<svg width="136" height="136" viewBox="0 0 136 136" fill="none" xmlns="http://www.w3.org/2000/svg">
<circle cx="68" cy="68" r="68" fill="white"/>
<path d="M64.2902 108.601C62.0503 108.977 60.0703 107.914 58.1603 106.43C54.6603 103.701 52.2903 103.691 48.5803 106.156C43.4103 109.6 39.7603 109.572 34.6503 106.082C33.6103 105.377 32.5503 104.672 31.2203 104.507C30.4003 104.406 29.9803 104.085 30.0103 103.27C30.0503 102.29 30.9203 102.436 31.5203 102.299C33.3303 101.878 34.5303 102.977 35.7403 103.884C40.5503 107.438 42.2503 107.475 47.2503 104.03C51.2103 101.301 55.2303 101.319 59.2503 104.113C64.0703 107.456 65.6903 107.429 70.4803 103.92C73.9803 101.346 78.6103 101.401 82.2103 104.058C86.7203 107.383 88.9803 107.392 93.5603 104.085C97.3303 101.365 101.46 101.319 105.28 103.957C106.78 104.992 108.09 106.293 110.12 106.522C111.04 106.623 111.11 107.328 111.02 107.988C110.91 108.775 110.17 108.583 109.62 108.611C107.81 108.693 106.41 107.933 105.05 106.888C100.7 103.563 98.7503 103.545 94.3002 106.586C89.8203 109.646 85.3903 109.517 81.0303 106.22C77.7603 103.746 74.7403 103.783 71.3903 106.339C68.4103 108.592 68.3703 108.611 64.2902 108.601Z" fill="#D88051"/>
<path d="M68.0935 27.0021C69.1201 27.4823 69.4295 28.3104 69.4125 29.4074C69.3676 32.0944 69.4082 34.7835 69.3933 37.4704C69.3847 38.8726 68.3304 39.7348 67.1011 39.3827C66.3008 39.1543 65.8313 38.4714 65.8227 37.4704C65.8099 36.0554 65.8185 34.6405 65.8185 33.2255C65.8185 31.9514 65.859 30.6772 65.8056 29.4053C65.7608 28.3083 66.098 27.4823 67.1225 27C67.4469 27.0021 67.7713 27.0021 68.0935 27.0021Z" fill="#D88051"/>
<path d="M52.2536 87.2699C52.546 85.5412 52.8277 83.8894 53.1095 82.2353C53.611 79.288 54.1061 76.3385 54.6226 73.3933C54.693 72.9878 54.5842 72.7253 54.2918 72.4436C51.1374 69.3917 47.9959 66.3248 44.8522 63.2622C44.7071 63.1214 44.5577 62.9848 44.4211 62.8354C43.9238 62.2826 43.7275 61.6445 43.975 60.9317C44.2162 60.2402 44.7434 59.8646 45.4647 59.76C47.6437 59.442 49.8249 59.124 52.0039 58.8103C54.3644 58.4709 56.7248 58.1295 59.0874 57.8051C59.4673 57.7538 59.6785 57.5874 59.8493 57.2374C61.8298 53.2144 63.8296 49.1999 65.8187 45.1812C66.1046 44.605 66.4461 44.0864 67.0992 43.8879C68.0084 43.6126 68.8151 44.0202 69.3102 45.0126C71.2908 48.9908 73.282 52.9625 75.2284 56.9578C75.5144 57.5447 75.8644 57.7666 76.4876 57.852C80.8115 58.4453 85.1332 59.0707 89.4507 59.7045C90.8977 59.9158 91.6319 60.8292 91.2648 61.986C91.1325 62.4043 90.8231 62.8034 90.5008 63.1192C87.3272 66.2373 84.1387 69.3426 80.9374 72.4351C80.6215 72.7403 80.5362 73.0262 80.6087 73.4424C81.3664 77.8218 82.1155 82.2033 82.8497 86.587C82.9179 86.9968 82.9436 87.4492 82.839 87.844C82.521 89.0413 81.281 89.4554 80.0453 88.8023C76.3489 86.8474 72.6332 84.9244 68.9794 82.8927C67.9785 82.3357 67.255 82.3314 66.2498 82.8884C62.5789 84.9309 58.8462 86.8623 55.1327 88.83C54.0464 89.4042 52.9686 89.1224 52.4969 88.1343C52.3582 87.8526 52.3198 87.5239 52.2536 87.2699ZM56.4025 84.0452C56.68 83.9064 56.8593 83.8232 57.0364 83.7314C60.1523 82.1073 63.2768 80.5002 66.38 78.8505C67.2315 78.398 67.9913 78.4023 68.8428 78.8526C71.946 80.5002 75.0704 82.1094 78.1864 83.7336C78.3614 83.8253 78.5407 83.9086 78.7776 84.0238C78.7584 83.7955 78.7562 83.6354 78.7285 83.4817C78.133 79.9368 77.5504 76.3876 76.923 72.8491C76.7608 71.9314 77.0169 71.2527 77.6721 70.6253C80.199 68.2072 82.7024 65.7614 85.2229 63.3348C85.3787 63.1854 85.6006 63.1064 85.7906 62.9955C85.7372 62.9293 85.686 62.861 85.6326 62.7948C85.4576 62.7607 85.2826 62.7201 85.1055 62.6945C81.567 62.1781 78.0306 61.6488 74.4878 61.16C73.5445 61.0299 72.9683 60.5582 72.5628 59.7194C71.0432 56.5736 69.4916 53.4449 67.9486 50.3097C67.8547 50.1176 67.7458 49.9341 67.605 49.6737C67.4641 49.9362 67.3553 50.1219 67.2614 50.314C65.7034 53.4854 64.1433 56.6569 62.5917 59.8304C62.2503 60.5304 61.7573 61.0021 60.9591 61.1174C58.4386 61.478 55.9202 61.8451 53.4018 62.2122C52.1256 62.3979 50.8515 62.59 49.5752 62.7778C49.5283 62.8461 49.4792 62.9144 49.4322 62.9827C49.6221 63.0979 49.8398 63.1854 49.9956 63.3348C52.5439 65.7891 55.0815 68.2584 57.6318 70.7128C58.1654 71.225 58.462 71.8097 58.3383 72.5524C57.8922 75.2223 57.4355 77.8901 56.983 80.5579C56.7931 81.6911 56.6074 82.8201 56.4025 84.0452Z" fill="#D88051"/>
<path d="M42.1101 36.0896C42.3384 36.2369 42.8955 36.4311 43.1985 36.8216C45.0083 39.1543 46.7712 41.5233 48.5276 43.8965C49.1572 44.7459 48.9993 45.7981 48.2203 46.3829C47.4285 46.9783 46.3635 46.8866 45.7297 46.0606C43.9092 43.6852 42.1207 41.2843 40.3408 38.879C39.9097 38.2942 39.8947 37.6241 40.2554 36.9881C40.5884 36.3991 41.1219 36.1024 42.1101 36.0896Z" fill="#D88051"/>
<path d="M95.2865 37.8844C95.1201 38.2622 95.0176 38.6869 94.7786 39.0113C93.0669 41.3355 91.334 43.6447 89.5903 45.9432C88.8967 46.8588 87.8168 47.0167 86.9802 46.3743C86.1799 45.7597 86.0774 44.7118 86.7668 43.7877C88.4763 41.487 90.1964 39.1948 91.923 36.907C92.48 36.1685 93.2313 35.9231 93.9953 36.192C94.7316 36.4502 95.1798 37.0713 95.2865 37.8844Z" fill="#D88051"/>
</svg>
