<svg width="136" height="136" viewBox="0 0 136 136" fill="none" xmlns="http://www.w3.org/2000/svg">
<circle cx="68" cy="68" r="68" fill="white"/>
<path d="M107.757 111.534C105.587 111.68 104.257 110.764 102.907 109.757C98.6274 106.523 96.3874 106.532 92.1574 109.665C88.4174 112.44 83.2674 112.422 79.5374 109.61C75.5274 106.587 72.8774 106.587 68.9874 109.582C65.3674 112.376 60.1874 112.605 56.7374 109.711C53.3774 106.889 49.4074 106.715 45.8274 109.527C41.7374 112.743 37.0974 112.431 32.8474 109.262C31.7674 108.465 30.7374 107.558 29.2374 107.466C28.1574 107.402 27.8874 106.77 28.0174 105.964C28.1974 104.874 29.1974 105.149 29.9274 105.222C31.6874 105.396 33.0174 106.376 34.3374 107.366C38.2274 110.288 40.7874 110.288 44.7074 107.411C49.0974 104.187 53.2174 104.196 57.6974 107.439C61.6874 110.324 63.9774 110.297 68.0274 107.329C72.2274 104.251 76.3074 104.233 80.4574 107.265C84.6974 110.361 86.9874 110.361 91.3274 107.247C95.4174 104.306 99.4574 104.279 103.537 107.182C104.867 108.126 106.057 109.289 107.867 109.463C108.757 109.546 109.027 110.059 109.007 110.782C108.957 111.827 108.067 111.479 107.757 111.534Z" fill="#7AAF52"/>
<path d="M88.4092 73.6071C89.1465 73.6071 89.8423 73.6071 90.5853 73.6071C90.5853 74.3312 90.5853 75.044 90.5853 75.8002C89.8687 75.8002 89.1578 75.8002 88.4092 75.8002C88.4092 75.0798 88.4092 74.384 88.4092 73.6071Z" fill="#7AAF52"/>
<path d="M76.6816 80.338C76.9664 82.6235 77.2436 84.8373 77.5283 87.1322C77.9846 87.1322 78.424 87.1209 78.8653 87.1341C80.7095 87.1888 82.1671 88.6728 82.1784 90.5001C82.1897 92.3594 80.7246 93.9075 78.8464 93.9132C71.2715 93.932 63.6948 93.9339 56.1181 93.9113C54.2757 93.9056 52.8219 92.3688 52.8162 90.5415C52.8087 88.6841 54.2795 87.1812 56.1577 87.1341C56.5763 87.1228 56.9968 87.1322 57.4626 87.1322C57.7473 84.8656 58.0245 82.6518 58.3149 80.3399C58.0302 80.3399 57.7813 80.3399 57.5305 80.3399C52.7313 80.3399 47.9303 80.3399 43.1312 80.3399C39.3504 80.3399 37.0008 77.996 37.0008 74.2246C36.999 63.2366 37.0008 52.2486 37.0008 41.2606C37.0008 37.197 39.605 34.7927 43.7271 35.1001C43.7271 35.8091 43.7271 36.5257 43.7271 37.3252C43.4292 37.3252 43.1331 37.3233 42.8352 37.3252C40.6855 37.3403 39.2637 38.7659 39.2618 40.9325C39.2561 48.8789 39.2599 56.8252 39.2599 64.7697C39.2599 66.1575 39.2599 67.5435 39.2599 68.9748C40.0217 68.9748 40.7345 68.9748 41.519 68.9748C41.519 66.7666 41.4831 64.5792 41.5341 62.3937C41.5586 61.3641 41.6283 60.3081 41.8791 59.3162C42.7937 55.707 45.0169 53.1651 48.3942 51.6301C49.3145 51.2115 50.2347 50.7966 51.17 50.412C51.5433 50.2592 51.7696 50.0688 51.6848 49.6388C51.681 49.6162 51.6829 49.5917 51.6848 49.569C51.8074 48.1793 51.6961 46.9762 50.4006 45.9862C49.6558 45.4186 49.3258 44.3117 48.7808 43.4669C48.6526 43.2689 48.4282 43.0257 48.2245 43.003C46.2822 42.7786 44.9547 41.4756 44.9113 39.6899C44.8661 37.8588 46.1201 36.4823 48.0963 36.1938C48.1415 36.1862 48.1849 36.1711 48.2358 36.1561C48.2962 34.985 48.2679 33.8008 48.4357 32.6449C48.9845 28.8339 52.3504 25.9997 56.2237 26.0072C60.1007 26.0148 63.4233 28.8433 63.9777 32.6807C64.1417 33.814 64.1097 34.9756 64.17 36.1598C65.6258 36.3107 66.7383 36.9895 67.2795 38.4132C68.0809 40.5196 66.6214 42.8013 64.3529 42.9615C63.8947 42.9936 63.7137 43.1558 63.5666 43.5574C63.0763 44.8925 62.2334 45.9749 61.1623 46.9045C60.936 47.1007 60.7607 47.4703 60.7437 47.7701C60.7022 48.564 60.4929 49.5313 60.8568 50.1121C61.2 50.6628 62.173 50.8457 62.8915 51.1304C65.4014 52.1223 67.5567 53.5592 69.0389 55.8824C69.978 57.3551 70.5757 58.9485 70.7718 60.689C70.7888 60.8474 70.8303 61.0039 70.9246 61.1642C71.4111 59.9668 72.2521 58.8844 71.6506 57.4286C71.2942 56.5688 71.181 55.6089 70.9491 54.6963C70.819 54.189 70.885 53.6799 71.3432 53.4517C71.6939 53.2782 72.1786 53.2914 72.5859 53.348C72.914 53.3932 73.2157 53.629 73.6136 53.8213C73.8531 53.1085 74.0624 52.4466 74.2981 51.7942C74.5602 51.0644 75.0222 50.8079 75.7859 50.9588C77.4906 51.2963 79.1971 51.632 80.898 51.9903C82.1407 52.2505 82.4217 52.7898 81.9559 53.9608C80.074 58.6826 78.1902 63.4025 76.3064 68.1224C76.1951 68.4015 76.097 68.6844 75.982 68.9955C82.5839 68.9955 89.1178 68.9955 95.7291 68.9955C95.7291 61.464 95.7291 53.959 95.7291 46.418C96.5022 46.418 97.198 46.418 97.9976 46.418C97.9976 46.6651 97.9976 46.914 97.9976 47.1629C97.9976 56.2161 97.9995 65.2713 97.9957 74.3245C97.9938 77.9545 95.6084 80.338 91.9784 80.3399C87.1548 80.3418 82.3331 80.3399 77.5094 80.3399C77.2511 80.338 76.9965 80.338 76.6816 80.338ZM95.7253 71.3338C76.8645 71.3338 58.0811 71.3338 39.2618 71.3338C39.2618 72.3012 39.2618 73.2195 39.2618 74.1359C39.2618 76.7703 40.5705 78.0733 43.2161 78.0733C59.4048 78.0733 75.5917 78.0733 91.7804 78.0733C92.0388 78.0733 92.299 78.0808 92.5573 78.0639C94.2394 77.9564 95.6348 76.6006 95.7159 74.9129C95.7725 73.7399 95.7253 72.5595 95.7253 71.3338ZM43.9138 68.971C44.9453 68.971 46.0352 68.971 47.2006 68.971C47.2006 66.3235 47.2006 63.7212 47.2006 61.1322C47.9756 61.1322 48.6714 61.1322 49.4446 61.1322C49.4446 63.7721 49.4446 66.3725 49.4446 68.9616C53.9985 68.9616 58.4771 68.9616 63.0065 68.9616C63.0065 66.3216 63.0065 63.7382 63.0065 61.1416C63.7721 61.1416 64.4849 61.1416 65.275 61.1416C65.275 63.791 65.275 66.3914 65.275 69.0163C66.0576 69.0163 66.7628 69.0276 67.4662 69.0068C67.6246 69.0031 67.8754 68.9201 67.9188 68.8088C68.1809 68.1357 68.5561 67.453 68.5957 66.7553C68.6919 65.0865 68.6881 63.4063 68.6071 61.7356C68.4505 58.5205 66.9684 56.0427 64.2492 54.321C64.1002 54.2267 63.9267 54.1758 63.7325 54.0891C63.4855 55.2997 63.2554 56.4537 63.0103 57.6021C62.7331 58.9014 61.9185 59.1861 60.8757 58.3564C60.0007 57.6587 59.1276 56.9591 58.2055 56.2199C57.8718 56.8837 57.6417 57.5154 57.2627 58.0396C57.0175 58.379 56.5537 58.7656 56.1916 58.7618C55.8277 58.7581 55.377 58.3602 55.1318 58.017C54.7566 57.4909 54.5246 56.861 54.2041 56.2199C53.2857 56.9534 52.4277 57.6436 51.566 58.33C50.4836 59.1937 49.6765 58.9165 49.3918 57.5757C49.1466 56.4273 48.9185 55.2771 48.6752 54.0853C48.4885 54.1664 48.332 54.2154 48.1981 54.2984C45.8448 55.7523 44.2174 57.819 43.9704 60.5721C43.7215 63.3309 43.9138 66.1274 43.9138 68.971ZM75.256 87.0907C74.9675 84.7977 74.6884 82.5877 74.4112 80.372C69.7686 80.372 65.192 80.372 60.5872 80.372C60.3062 82.6178 60.029 84.8316 59.7462 87.0907C64.9186 87.0907 70.0553 87.0907 75.256 87.0907ZM50.559 38.4057C50.559 39.2543 50.5439 40.0481 50.5609 40.8439C50.625 43.7234 52.8483 46.1031 55.7032 46.3615C58.5827 46.6217 61.3113 44.6493 61.6941 41.7585C61.9298 39.984 61.7374 38.153 61.7374 36.2786C60.2327 36.0184 58.7279 36.2937 57.3343 36.9405C55.1959 37.9324 53.018 38.6339 50.559 38.4057ZM61.8016 33.9724C62.0278 30.184 58 27.265 54.3794 28.5887C51.0851 29.7937 50.1706 32.6185 50.6533 36.0561C51.862 36.371 53.7364 36.1146 55.4317 35.2981C57.4381 34.3307 59.5161 33.7838 61.8016 33.9724ZM67.4983 89.3932C63.8985 89.3932 60.2987 89.3932 56.6989 89.3932C56.4877 89.3932 56.2708 89.3724 56.0653 89.4101C55.4562 89.5233 55.0904 89.8966 55.0904 90.5227C55.0904 91.1487 55.4581 91.5221 56.0653 91.6371C56.2708 91.6767 56.4877 91.6541 56.6989 91.656C63.8985 91.656 71.0981 91.656 78.2977 91.656C78.5089 91.656 78.7257 91.6767 78.9313 91.639C79.5385 91.524 79.9081 91.1506 79.9081 90.5246C79.9081 89.9004 79.5403 89.5233 78.9331 89.4101C78.7276 89.3724 78.5107 89.3932 78.2995 89.3932C74.6979 89.3932 71.0981 89.3932 67.4983 89.3932ZM70.2985 69.0182C71.1546 69.0182 71.9108 68.9729 72.6575 69.0314C73.2911 69.0823 73.5966 68.8786 73.8304 68.2639C74.7922 65.7352 75.818 63.2309 76.8174 60.7173C76.9098 60.4854 76.9871 60.2478 77.0908 59.9611C76.1008 59.9611 75.1844 59.9461 74.2679 59.9743C74.1076 59.98 73.8663 60.1271 73.8078 60.2685C72.6425 63.1442 71.4959 66.0256 70.2985 69.0182ZM53.9797 48.4131C53.9797 49.158 53.7647 50.0122 54.023 50.6816C54.602 52.1751 55.4166 53.5762 56.2029 55.1545C56.8233 53.9099 57.3023 52.7615 57.9453 51.715C58.6072 50.6382 58.4375 49.5219 58.4488 48.4037C57.6757 48.4867 56.9553 48.6243 56.2369 48.6262C55.4939 48.6262 54.7509 48.4923 53.9797 48.4131ZM79.4875 54.0136C78.3561 53.7874 77.27 53.5705 76.197 53.3555C76.1329 53.4988 76.0989 53.5592 76.0763 53.6252C75.9028 54.1343 75.7482 54.6529 75.5521 55.1545C75.3993 55.5392 75.2787 56.0068 74.9864 56.2501C74.6884 56.499 74.2019 56.5179 73.772 56.6461C73.8474 56.9478 73.9379 57.3061 74.0379 57.6983C75.2862 57.6983 76.5025 57.7096 77.7188 57.6832C77.8696 57.6794 78.0884 57.5003 78.1525 57.3513C78.6031 56.2727 79.0237 55.1809 79.4875 54.0136ZM51.3114 55.6335C51.8941 55.1696 52.4013 54.7924 52.8709 54.3719C52.984 54.272 53.0538 53.9948 52.9991 53.8571C52.7992 53.365 52.539 52.8992 52.2807 52.3844C51.8677 52.5673 51.4962 52.6729 51.2002 52.886C51.0267 53.0104 50.8645 53.3178 50.889 53.5196C50.9758 54.1928 51.1474 54.8547 51.3114 55.6335ZM60.1233 52.3919C59.8574 52.9237 59.5991 53.3951 59.3916 53.8873C59.3407 54.008 59.4048 54.2607 59.5067 54.3493C59.9969 54.7773 60.5193 55.1715 61.0963 55.6297C61.2623 54.832 61.4282 54.1287 61.5395 53.4178C61.564 53.2631 61.4433 53.001 61.3113 52.9237C60.9549 52.7144 60.5551 52.5786 60.1233 52.3919ZM48.266 38.451C47.5513 38.5905 47.1685 38.9601 47.1855 39.6088C47.2006 40.2499 47.574 40.6233 48.266 40.6987C48.266 39.9501 48.266 39.2335 48.266 38.451ZM64.1398 40.6704C64.8809 40.5479 65.2807 40.1462 65.2279 39.5428C65.1713 38.9054 64.8111 38.5415 64.1398 38.4717C64.1398 39.2316 64.1398 39.9501 64.1398 40.6704Z" fill="#7AAF52"/>
<path d="M77.665 44.1148C76.5166 44.1148 75.4606 44.1223 74.4046 44.1129C72.3398 44.0959 70.8972 42.659 70.8916 40.5923C70.8822 36.8906 70.8803 33.189 70.8916 29.4874C70.8991 27.464 72.3492 26.0083 74.3707 26.0064C81.0763 25.997 87.7799 25.9988 94.4855 26.0064C96.5503 26.0083 97.9872 27.4546 97.9929 29.5308C98.0042 33.2079 98.0023 36.8869 97.9929 40.564C97.9872 42.6779 96.5522 44.1072 94.4364 44.111C91.1195 44.1185 87.8025 44.1261 84.4856 44.1016C83.967 44.0978 83.6163 44.2562 83.2618 44.622C82.136 45.793 80.9707 46.9263 79.8279 48.0823C79.4244 48.4896 78.9982 48.797 78.3948 48.5556C77.7668 48.3029 77.6499 47.7787 77.6613 47.1677C77.6782 46.1815 77.665 45.1953 77.665 44.1148ZM79.9222 44.7955C80.7821 43.9262 81.51 43.2228 82.1964 42.4817C82.6301 42.0122 83.1203 41.8368 83.7577 41.8406C87.2613 41.8614 90.7669 41.8519 94.2705 41.85C95.3378 41.85 95.7319 41.4654 95.7338 40.4169C95.7376 36.8341 95.7376 33.2512 95.7338 29.6684C95.7319 28.6615 95.3321 28.2692 94.312 28.2673C87.7271 28.2655 81.1423 28.2636 74.5574 28.2673C73.5448 28.2673 73.1507 28.6652 73.1488 29.6816C73.145 33.2644 73.145 36.8473 73.1488 40.4301C73.1507 41.4484 73.5448 41.8425 74.5536 41.8482C75.917 41.8538 77.2822 41.8406 78.6456 41.8538C79.4828 41.8614 79.8977 42.2837 79.9203 43.1172C79.9335 43.6056 79.9222 44.094 79.9222 44.7955Z" fill="#7AAF52"/>
<path d="M92.3116 33.9C87.0524 33.9 81.8403 33.9 76.5811 33.9C76.5811 33.1702 76.5811 32.4574 76.5811 31.7031C81.8195 31.7031 87.0486 31.7031 92.3116 31.7031C92.3116 32.4272 92.3116 33.1249 92.3116 33.9Z" fill="#7AAF52"/>
<path d="M76.5684 38.4067C76.5684 37.6562 76.5684 36.9585 76.5684 36.2268C81.8125 36.2268 87.0246 36.2268 92.2913 36.2268C92.2913 36.9283 92.2913 37.643 92.2913 38.4067C87.0774 38.4067 81.8502 38.4067 76.5684 38.4067Z" fill="#7AAF52"/>
</svg>
