<svg width="136" height="136" viewBox="0 0 136 136" fill="none" xmlns="http://www.w3.org/2000/svg">
<circle cx="68" cy="68" r="68" fill="white"/>
<path d="M80.0467 109.797C78.7867 109.605 77.9566 108.799 77.0266 108.102C73.8766 105.73 70.7067 105.711 67.5767 108.02C62.7367 111.583 58.8667 111.611 53.9567 108.121C50.6767 105.785 48.0367 105.711 44.7567 107.882C39.1267 111.592 36.2166 111.611 30.6466 107.974C29.5066 107.232 28.3366 106.545 26.8966 106.38C25.8966 106.261 25.9467 105.583 26.0067 104.942C26.0667 104.182 26.7267 104.191 27.3267 104.172C29.1667 104.108 30.4866 105.07 31.8066 106.06C36.3866 109.458 38.7867 109.431 43.3767 105.977C46.6967 103.476 51.0667 103.394 54.6567 105.757C60.4367 109.568 60.9266 109.559 66.8366 105.629C69.9766 103.531 74.9467 103.366 77.6567 105.721C80.9767 108.588 84.3967 109.302 88.4367 107.315C88.5067 107.644 88.4867 108.148 89.0167 108.038C89.2567 107.983 89.3967 107.507 89.5767 107.214C89.8067 107.095 90.3967 107.47 90.2267 106.811C90.0167 106.948 89.7966 107.085 89.5866 107.223C89.2166 107.232 88.8567 107.25 88.4867 107.26C91.7467 103.678 96.5967 102.972 100.597 105.519C102.367 106.646 103.777 108.295 106.147 108.524C106.907 108.597 106.997 109.211 106.987 109.77C106.977 110.814 106.077 110.521 105.457 110.548C103.627 110.631 102.287 109.733 100.947 108.725C96.5867 105.446 94.5067 105.473 89.9767 108.716C88.9767 109.431 88.0066 110.273 86.5866 110.273C86.9766 109.843 87.3767 109.412 87.9767 108.753C85.5067 109.064 83.3967 109.834 81.2167 108.954C80.6166 108.67 80.1667 109.165 80.0467 109.797Z" fill="#5B5EA8"/>
<path d="M80.0469 109.798C80.1669 109.174 80.6169 108.67 81.2569 108.927C83.4369 109.807 85.5369 109.037 88.0168 108.725C87.4068 109.385 87.0168 109.816 86.6268 110.247C84.3768 110.686 82.1769 110.696 80.0469 109.798Z" fill="#3A3A91"/>
<path d="M88.507 107.241C88.877 107.232 89.237 107.214 89.6071 107.205L89.597 107.195C89.417 107.48 89.277 107.965 89.037 108.02C88.507 108.13 88.527 107.635 88.457 107.296L88.507 107.241Z" fill="#3A3A91"/>
<path d="M89.6074 107.196C89.8174 107.058 90.0374 106.921 90.2474 106.783C90.4274 107.452 89.8274 107.067 89.6074 107.196C89.6074 107.187 89.6074 107.196 89.6074 107.196Z" fill="#3A3A91"/>
<path d="M45.9785 94.5001C45.9785 93.4715 45.9785 92.4429 45.9785 91.3787C46.6033 91.3787 47.1836 91.3787 47.8262 91.3787C47.8262 91.7584 47.8262 92.1292 47.8262 92.5496C62.2243 92.5496 76.5615 92.5496 90.9571 92.5496C90.9571 92.0353 90.9571 91.5362 90.9571 90.9977C91.5959 90.9977 92.1788 90.9977 92.8886 90.9977C92.8886 92.1572 92.8886 93.3293 92.8886 94.5001C77.2524 94.5001 61.6148 94.5001 45.9785 94.5001Z" fill="#3A3A91"/>
<path d="M45.9304 75.58C52.9326 75.58 59.8104 75.58 66.7225 75.58C66.7225 76.5171 66.7225 77.4162 66.7225 78.3623C66.1155 78.3623 65.5186 78.3623 64.8786 78.3623C64.8633 78.088 64.8494 77.8213 64.8316 77.4988C59.1932 77.4988 53.5689 77.4988 47.9038 77.4988C47.9038 78.1236 47.9038 78.7433 47.9038 79.429C48.1972 79.429 48.4651 79.429 48.7343 79.429C62.6994 79.429 76.6633 79.4265 90.6284 79.4417C91.0703 79.4417 91.549 79.5624 91.9478 79.7554C94.4152 80.9504 96.8585 82.1974 99.3272 83.3911C99.8072 83.6235 100.074 83.8775 99.9824 84.4312C99.9482 84.6369 100.022 84.8655 99.9647 85.061C99.9037 85.2706 99.7945 85.5474 99.6256 85.6325C96.9537 86.9862 94.2717 88.3183 91.5833 89.6403C91.3687 89.7457 91.0957 89.7711 90.8493 89.7711C74.413 89.7774 57.9767 89.7762 41.5403 89.7749C41.3549 89.7749 41.1708 89.7533 40.9321 89.7381C40.9321 89.2479 40.9321 88.792 40.9321 88.2332C40.1917 88.2332 39.5022 88.2764 38.8215 88.2155C38.4799 88.185 38.1192 88.0199 37.831 87.8205C36.9281 87.1983 36.5433 86.3513 36.7096 85.2261C36.8011 84.6064 36.7655 83.9575 36.7147 83.3289C36.6639 82.7041 36.9192 82.2939 37.3255 81.8393C37.9262 81.1688 38.5675 80.8335 39.473 80.9593C39.9238 81.0215 40.3911 80.9707 40.9003 80.9707C40.9003 80.4513 40.9003 79.9941 40.9003 79.4659C42.5855 79.4659 44.2224 79.4659 45.9342 79.4659C45.9304 78.1426 45.9304 76.888 45.9304 75.58ZM50.1934 87.837C62.928 87.837 75.6092 87.837 88.3146 87.837C88.3146 85.6604 88.3146 83.5232 88.3146 81.3682C75.5851 81.3682 62.9052 81.3682 50.1934 81.3682C50.1934 83.5283 50.1934 85.6541 50.1934 87.837ZM97.4858 84.6166C95.2114 83.4876 93.1059 82.4361 90.989 81.405C90.8036 81.3148 90.5534 81.3555 90.3122 81.3339C90.3122 83.5448 90.3122 85.6833 90.3122 88.0326C92.81 87.0611 95.0006 85.7392 97.4858 84.6166ZM42.861 81.3669C42.861 83.5397 42.861 85.6769 42.861 87.8358C43.5481 87.8358 44.1906 87.8358 44.8675 87.8358C44.8675 85.6579 44.8675 83.5181 44.8675 81.3669C44.1754 81.3669 43.5315 81.3669 42.861 81.3669ZM48.2162 87.8472C48.2162 85.6503 48.2162 83.513 48.2162 81.3745C47.74 81.3745 47.3082 81.3745 46.8701 81.3745C46.8701 83.5511 46.8701 85.6858 46.8701 87.8472C47.3375 87.8472 47.7514 87.8472 48.2162 87.8472ZM40.8927 82.873C40.3047 82.873 39.7676 82.8057 39.2621 82.9022C39.0196 82.9492 38.6805 83.287 38.6539 83.5232C38.5726 84.2318 38.5802 84.9594 38.65 85.6693C38.6729 85.903 38.9688 86.2598 39.1834 86.2954C39.7333 86.3855 40.3073 86.3259 40.8927 86.3259C40.8927 85.155 40.8927 84.0616 40.8927 82.873Z" fill="#3A3A91"/>
<path d="M47.8523 31.5448C47.8523 45.6813 47.8523 59.7836 47.8523 73.9239C47.2173 73.9239 46.6357 73.9239 46.0059 73.9239C46.0059 59.1728 46.0059 44.4216 46.0059 29.6234C46.2129 29.6146 46.4173 29.5968 46.6218 29.5968C56.3835 29.5955 66.1452 29.598 75.9069 29.5879C76.3171 29.5879 76.6079 29.6996 76.9025 29.993C82.0787 35.1856 87.2687 40.3617 92.4372 45.5607C92.6709 45.7956 92.8512 46.2058 92.8512 46.5347C92.8728 56.8438 92.869 67.1528 92.869 77.4619C92.869 77.6689 92.869 77.8771 92.869 78.126C92.2315 78.126 91.6499 78.126 90.9819 78.126C90.9819 67.8856 90.9819 57.6349 90.9819 47.3106C85.6687 47.3106 80.4418 47.3106 75.1806 47.3106C75.1806 42.7644 75.1806 38.2931 75.1806 33.7684C75.7761 33.7684 76.3743 33.7684 77.0422 33.7684C77.0422 37.6264 77.0422 41.4792 77.0422 45.3689C81.2177 45.3689 85.3232 45.3689 89.5266 45.3689C89.3565 45.1759 89.246 45.035 89.1203 44.9105C84.7734 40.5624 80.4278 36.2142 76.0695 31.8775C75.8828 31.6908 75.5793 31.5131 75.3304 31.5131C66.2659 31.4953 57.2013 31.4991 48.1368 31.5004C48.0758 31.5016 48.0148 31.5194 47.8523 31.5448Z" fill="#3A3A91"/>
<path d="M51.0771 64.8683C53.8671 64.8683 56.5872 64.8683 59.3594 64.8683C59.3594 67.6341 59.3594 70.3822 59.3594 73.1798C56.619 73.1798 53.8684 73.1798 51.0771 73.1798C51.0771 70.4254 51.0771 67.676 51.0771 64.8683ZM57.4724 71.294C57.4724 69.779 57.4724 68.297 57.4724 66.7973C55.951 66.7973 54.4678 66.7973 52.9883 66.7973C52.9883 68.325 52.9883 69.8082 52.9883 71.294C54.5046 71.294 55.9726 71.294 57.4724 71.294Z" fill="#3A3A91"/>
<path d="M85.5189 53.2258C85.5189 53.8455 85.5189 54.4284 85.5189 55.0456C77.7967 55.0456 70.1023 55.0456 62.375 55.0456C62.375 54.4386 62.375 53.8557 62.375 53.2258C70.0706 53.2258 77.7637 53.2258 85.5189 53.2258Z" fill="#3A3A91"/>
<path d="M62.3594 66.7134C62.3594 66.0898 62.3594 65.5247 62.3594 64.905C70.0601 64.905 77.7506 64.905 85.4944 64.905C85.4944 65.4816 85.4944 66.0771 85.4944 66.7134C77.8052 66.7134 70.1134 66.7134 62.3594 66.7134Z" fill="#3A3A91"/>
<path d="M52.9834 47.9507C54.5009 47.9507 55.9702 47.9507 57.4864 47.9507C57.4864 47.5507 57.4864 47.1786 57.4864 46.7558C58.129 46.7558 58.7284 46.7558 59.3697 46.7558C59.3697 47.7704 59.3697 48.7901 59.3697 49.8454C56.6026 49.8454 53.852 49.8454 51.0684 49.8454C51.0684 47.0809 51.0684 44.3455 51.0684 41.5593C52.5033 41.5593 53.946 41.5593 55.433 41.5593C55.433 42.1486 55.433 42.7454 55.433 43.3956C54.6177 43.3956 53.824 43.3956 52.9846 43.3956C52.9834 44.9309 52.9834 46.4154 52.9834 47.9507Z" fill="#3A3A91"/>
<path d="M52.9643 55.057C52.9643 56.6202 52.9643 58.0895 52.9643 59.6032C54.4603 59.6032 55.9448 59.6032 57.4801 59.6032C57.4979 59.2121 57.5157 58.8248 57.5347 58.407C58.1544 58.407 58.736 58.407 59.3646 58.407C59.3646 59.4343 59.3646 60.4528 59.3646 61.5119C56.6051 61.5119 53.8545 61.5119 51.0684 61.5119C51.0684 58.7384 51.0684 55.9891 51.0684 53.208C52.5275 53.208 53.9536 53.208 55.4267 53.208C55.4267 53.8099 55.4267 54.4068 55.4267 55.057C54.6254 55.057 53.8329 55.057 52.9643 55.057Z" fill="#3A3A91"/>
<path d="M62.3594 71.3207C62.3594 70.6883 62.3594 70.1219 62.3594 69.5085C66.738 69.5085 71.0976 69.5085 75.4927 69.5085C75.4927 70.1092 75.4927 70.6921 75.4927 71.3207C71.1293 71.3207 66.771 71.3207 62.3594 71.3207Z" fill="#3A3A91"/>
<path d="M75.5082 57.8304C75.5082 58.4375 75.5082 59.0038 75.5082 59.6235C71.1385 59.6235 66.7827 59.6235 62.3838 59.6235C62.3838 59.0483 62.3838 58.4667 62.3838 57.8304C66.7294 57.8304 71.0852 57.8304 75.5082 57.8304Z" fill="#3A3A91"/>
<path d="M73.5422 41.5566C73.5422 42.1713 73.5422 42.7529 73.5422 43.3713C69.81 43.3713 66.1108 43.3713 62.376 43.3713C62.376 42.7681 62.376 42.1865 62.376 41.5566C66.0739 41.5566 69.7744 41.5566 73.5422 41.5566Z" fill="#3A3A91"/>
<path d="M73.5319 46.1512C73.5319 46.7811 73.5319 47.3615 73.5319 47.971C69.8009 47.971 66.1118 47.971 62.3809 47.971C62.3809 47.3703 62.3809 46.7887 62.3809 46.1512C66.0725 46.1512 69.7742 46.1512 73.5319 46.1512Z" fill="#3A3A91"/>
<path d="M87.8379 66.9877C88.4513 66.9877 89.0316 66.9877 89.6551 66.9877C89.6551 70.3808 89.6551 73.7486 89.6551 77.1735C89.0697 77.1735 88.4754 77.1735 87.8379 77.1735C87.8379 73.7854 87.8379 70.4037 87.8379 66.9877Z" fill="#3A3A91"/>
<path d="M60.5198 42.763C58.9325 44.3542 57.3463 45.9441 55.7742 47.5201C55.0301 46.7746 54.2567 46.0013 53.4541 45.1962C53.8732 44.8063 54.3126 44.3974 54.8307 43.9148C55.0859 44.2526 55.3767 44.6361 55.7209 45.092C57.006 43.8005 58.1464 42.6538 59.2677 41.5287C59.6919 41.9478 60.1084 42.3567 60.5198 42.763Z" fill="#3A3A91"/>
<path d="M59.2104 53.104C59.7146 53.6297 60.1197 54.0513 60.4803 54.4272C58.9196 55.9854 57.3285 57.5741 55.7766 59.1233C55.0668 58.4173 54.282 57.635 53.4883 56.8439C53.8756 56.473 54.2997 56.0667 54.8166 55.5714C55.0579 55.9194 55.3322 56.3156 55.6204 56.7321C56.9246 55.414 58.0586 54.2672 59.2104 53.104Z" fill="#3A3A91"/>
<path d="M87.8506 60.6395C88.4678 60.6395 89.0316 60.6395 89.6475 60.6395C89.6475 61.2516 89.6475 61.8434 89.6475 62.4771C89.0532 62.4771 88.4766 62.4771 87.8506 62.4771C87.8506 61.8599 87.8506 61.2529 87.8506 60.6395Z" fill="#3A3A91"/>
<path d="M89.6551 65.6529C89.0329 65.6529 88.4563 65.6529 87.8379 65.6529C87.8379 65.0459 87.8379 64.4694 87.8379 63.8383C88.4259 63.8383 89.0189 63.8383 89.6551 63.8383C89.6551 64.4211 89.6551 64.9989 89.6551 65.6529Z" fill="#3A3A91"/>
<path d="M74.6484 84.4629C74.6484 83.8419 74.6484 83.2615 74.6484 82.6393C78.4823 82.6393 82.2882 82.6393 86.1487 82.6393C86.1487 83.2349 86.1487 83.8292 86.1487 84.4629C82.3351 84.4629 78.528 84.4629 74.6484 84.4629Z" fill="#3A3A91"/>
<path d="M68.3125 84.4565C68.3125 83.8507 68.3125 83.2691 68.3125 82.6431C68.9068 82.6431 69.4872 82.6431 70.1259 82.6431C70.1259 83.2209 70.1259 83.8165 70.1259 84.4565C69.5532 84.4565 68.9716 84.4565 68.3125 84.4565Z" fill="#3A3A91"/>
<path d="M71.4707 84.454C71.4707 83.8267 71.4707 83.2603 71.4707 82.6469C72.0853 82.6469 72.6822 82.6469 73.3159 82.6469C73.3159 83.2463 73.3159 83.8267 73.3159 84.454C72.7127 84.454 72.1171 84.454 71.4707 84.454Z" fill="#3A3A91"/>
</svg>
