<svg width="136" height="136" viewBox="0 0 136 136" fill="none" xmlns="http://www.w3.org/2000/svg">
<circle cx="68" cy="68" r="68" fill="white"/>
<path d="M85.6943 106.556C82.7543 107.188 80.6143 105.732 78.7643 104.055C76.3543 101.893 72.0543 102.214 69.5243 104.211C65.0943 107.71 60.5743 107.674 56.1243 104.367C52.7143 101.838 49.9943 101.82 46.5043 104.303C41.6943 107.719 37.2543 107.637 32.4843 104.11C31.5743 103.442 30.7443 102.58 29.4043 102.58C28.1643 102.58 27.8443 101.838 28.0643 100.932C28.3143 99.924 29.3143 100.19 30.0543 100.254C31.9543 100.419 33.2643 101.646 34.6643 102.635C38.3643 105.246 40.5943 105.31 44.3043 102.764C49.7143 99.0538 52.9043 99.0904 58.1543 102.91C61.2943 105.191 64.1843 105.164 67.3543 102.828C72.3943 99.1087 75.8243 99.0629 80.9843 102.681C84.6143 105.219 86.7543 105.274 90.3943 102.901C96.4343 98.9805 98.9843 99.0171 104.724 103.112C105.674 103.79 106.694 104.367 107.914 104.532C108.824 104.66 109.044 105.228 108.964 105.915C108.854 106.886 107.984 106.62 107.344 106.638C105.514 106.693 104.154 105.832 102.824 104.788C98.9343 101.729 96.6943 101.674 92.5343 104.504C90.5043 105.878 88.4343 107.142 85.6943 106.556Z" fill="#70AE91"/>
<path d="M103 36.2529C103 37.1857 103 38.1185 103 39.0513C102.961 39.1683 102.902 39.2836 102.888 39.404C102.576 42.0294 101.533 44.3223 99.7946 46.3049C99.6725 46.4439 99.5623 46.5915 99.5284 46.6305C99.815 47.2461 100.159 47.7515 100.293 48.3095C100.919 50.9077 99.2197 53.5992 96.6164 54.1622C96.1907 54.2538 95.9957 54.4217 95.838 54.8321C94.5457 58.2105 92.1577 60.3949 88.6505 61.3124C88.1434 61.4447 87.6092 61.4769 87.0919 61.5821C86.98 61.6041 86.8901 61.7381 86.79 61.8195C86.8664 61.906 86.9274 62.0179 87.0224 62.0722C87.1496 62.1434 87.3056 62.1536 87.4413 62.2113C89.3984 63.0525 91.3725 63.8546 93.3008 64.7569C94.4676 65.303 95.1087 66.3206 95.2732 67.6112C95.5293 69.6073 95.7854 71.6018 96.0245 73.5996C96.1416 74.5799 96.2196 75.5652 96.3179 76.5828C96.9403 76.5828 97.5102 76.5608 98.0783 76.5879C99.3554 76.6489 100.303 77.6106 100.342 78.8774C100.363 79.5338 100.364 80.1918 100.339 80.8481C100.292 82.0607 99.3554 83.002 98.153 83.0715C97.9511 83.0834 97.7476 83.0732 97.5611 83.0732C97.5255 83.2293 97.5 83.2903 97.5 83.3514C97.4949 84.1993 97.4932 85.0473 97.4915 85.8953C97.4898 87.1978 97.2744 87.4183 95.9872 87.4183C81.8769 87.4183 67.7648 87.4183 53.6544 87.4183C53.4424 87.4183 53.2287 87.4268 53.0201 87.3979C52.5402 87.3335 52.2553 87.0486 52.2112 86.5652C52.1637 86.053 52.4028 85.6952 52.8997 85.5697C53.1609 85.5035 53.4441 85.512 53.7172 85.512C67.3832 85.5103 81.0509 85.5103 94.7169 85.5103C94.9849 85.5103 95.2512 85.5103 95.5327 85.5103C95.5327 84.6556 95.5327 83.8856 95.5327 83.1224C78.2899 83.1224 61.1014 83.1224 43.9111 83.1224C43.9111 83.9365 43.9111 84.703 43.9111 85.5103C45.6766 85.5103 47.3896 85.5069 49.1008 85.512C49.9114 85.5137 50.3371 85.8444 50.3456 86.455C50.3541 87.0808 49.9454 87.4132 49.1313 87.4166C47.4184 87.4217 45.7038 87.4183 43.9909 87.4183C41.971 87.4183 41.9523 87.3996 41.9523 85.3492C41.9523 84.5979 41.9523 83.8466 41.9523 83.0987C41.7285 83.0868 41.6233 83.0817 41.5182 83.0783C40.063 83.0325 39.1404 82.1337 39.098 80.6921C39.0794 80.0358 39.0743 79.376 39.1184 78.7214C39.1845 77.7428 39.8375 76.9559 40.7753 76.6964C41.1162 76.6015 41.4774 76.5794 41.8658 76.5201C41.9676 75.4804 42.0422 74.4272 42.1779 73.3808C42.4662 71.1778 42.7918 68.9798 43.0784 66.7785C43.0971 66.6292 42.9597 66.3986 42.8257 66.3019C39.578 63.9344 37.999 60.7307 38.0024 56.7197C38.0058 51.7167 37.9889 46.7153 38.0143 41.7122C38.0194 40.6353 38.1025 39.5499 38.2653 38.4865C39.4406 30.8055 46.2685 24.5424 53.9817 24.059C59.4495 23.7164 64.1168 25.4887 67.9666 29.4114C68.1379 29.5844 68.4211 29.6862 68.6687 29.7388C69.9441 30.0084 71.2313 30.2289 72.5016 30.5206C72.8781 30.6071 73.0697 30.5698 73.3462 30.2713C74.4384 29.096 75.5051 27.8749 76.7262 26.8438C79.0683 24.8697 81.7564 23.7656 84.9007 24.042C87.1275 24.2371 89.1983 24.9138 91.1537 25.9754C91.8118 26.3333 92.0187 26.8438 91.727 27.3712C91.437 27.897 90.935 27.9801 90.2413 27.651C89.5358 27.3169 88.8337 26.9659 88.1027 26.6945C84.4496 25.3361 81.0085 25.6532 78.0067 28.2701C76.677 29.4301 75.5153 30.792 74.3349 32.1148C73.7023 32.8237 73.5514 32.9136 72.6678 32.5981C71.791 32.2844 70.8955 32.0232 70.0085 31.74C72.0115 35.0827 72.8866 38.6171 72.7763 42.5246C74.2637 41.4544 74.959 40.1384 75.093 38.4696C75.1202 38.1202 75.344 37.6402 75.6188 37.4995C75.8918 37.3604 76.443 37.4486 76.7008 37.6538C79.7484 40.0807 83.2591 41.4697 86.9969 42.3567C89.6206 42.9791 92.2849 43.2657 94.9815 43.2827C96.2263 43.2912 96.4451 43.5286 96.4468 44.7921C96.4468 45.2296 96.4468 45.6672 96.4468 46.1115C97.4814 45.986 97.4847 45.9894 98.0868 45.3433C98.3463 45.0651 98.6024 44.7802 98.8347 44.4783C100.928 41.775 101.45 38.6985 100.892 35.405C100.683 34.172 100.298 32.9696 99.9829 31.7163C98.3259 32.2556 96.9794 31.8418 95.6938 31.0989C95.1443 30.7818 94.6067 30.4443 94.0776 30.0949C93.1601 29.4878 92.9396 29.001 93.3008 28.4397C93.6722 27.8647 94.1878 27.8987 95.1172 28.4871C95.8651 28.962 96.6249 29.4284 97.4186 29.8202C98.1818 30.1984 98.9551 30.1661 99.7048 29.6675C100.375 29.2232 100.926 29.3775 101.243 30.1271C101.655 31.0989 102.047 32.086 102.333 33.1002C102.629 34.1313 102.785 35.2014 103 36.2529ZM39.907 49.0506C39.9087 49.0506 39.9104 49.0506 39.9121 49.0506C39.9121 51.8066 39.8544 54.5642 39.9273 57.3167C40.0104 60.4424 41.3994 62.9219 43.9451 64.7314C44.1248 64.8586 44.4861 64.9434 44.6489 64.8485C46.6366 63.6986 48.7378 62.8269 50.9256 62.1519C51.0935 62.0993 51.2207 61.9196 51.3683 61.7991C51.197 61.7211 51.0325 61.5905 50.8561 61.5719C46.4415 61.1174 42.5747 57.7424 41.9811 53.3278C41.5894 50.4091 41.7725 47.4106 41.7369 44.4478C41.7301 43.8593 42.1507 43.5456 42.7426 43.5133C46.2668 43.3285 49.6994 42.6314 53.0625 41.5901C55.9168 40.7065 58.7118 39.6771 60.9827 37.6046C61.4847 37.1467 62.1003 37.3095 62.4836 37.9099C62.9839 38.6934 63.4486 39.5075 64.0099 40.2452C65.1411 41.736 66.4759 42.9791 68.3516 43.4896C68.9231 43.6439 69.0537 44.1018 69.052 44.631C69.0486 46.9205 69.0927 49.2117 69.0368 51.4996C68.9265 55.887 66.3215 59.5656 62.3191 60.9902C61.4914 61.2853 60.596 61.3802 59.7344 61.5804C59.6123 61.6092 59.5072 61.7127 59.3935 61.7822C59.4766 61.8839 59.5445 62.0077 59.6496 62.0807C59.7497 62.1502 59.8905 62.1553 60.0058 62.2045C61.9816 63.0525 63.9675 63.8818 65.923 64.7738C66.3097 64.9502 66.5437 64.9672 66.8744 64.7247C69.4981 62.7998 70.8497 60.2049 70.8684 56.9589C70.8989 51.7862 70.887 46.6135 70.8667 41.4426C70.8633 40.5776 70.7734 39.7059 70.6394 38.8511C69.281 30.1763 60.5722 24.3015 52.0382 26.2858C44.8626 27.9546 39.946 34.1126 39.9155 41.4833C39.8985 44.0052 39.907 46.527 39.907 49.0506ZM43.6618 45.4264C43.6618 47.6549 43.5126 49.8664 43.6924 52.0508C44.0587 56.4874 47.4167 59.5842 51.8482 59.6928C54.3837 59.7538 56.9242 59.7708 59.4563 59.6588C63.4418 59.4825 66.8371 56.1296 67.0711 52.1441C67.2017 49.9274 67.1322 47.6973 67.1254 45.4739C67.1254 45.3043 66.9406 45.0516 66.7777 44.9786C65.3582 44.3444 64.1728 43.4048 63.1772 42.2295C62.5243 41.4595 61.9273 40.6438 61.3303 39.8806C55.9592 43.4031 49.8877 44.653 43.6618 45.4264ZM76.7635 40.1062C76.1292 42.1396 74.9217 43.6151 73.0562 44.5496C72.9001 44.6276 72.7882 44.9515 72.7865 45.1618C72.7696 48.7861 72.7696 52.4103 72.7882 56.0329C72.7899 56.2992 72.9018 56.6231 73.0765 56.8215C74.5978 58.5548 76.5058 59.5961 78.819 59.6656C81.4393 59.7453 84.0663 59.7725 86.6849 59.6707C90.9502 59.5045 94.3404 56.0804 94.5117 51.815C94.5965 49.7205 94.5355 47.6192 94.5372 45.5213C94.5372 45.423 94.4965 45.3246 94.4693 45.2008C88.1536 44.9905 82.1787 43.6592 76.7635 40.1062ZM69.7033 81.1704C78.7546 81.1704 87.8059 81.1721 96.8572 81.1687C98.638 81.1687 98.4396 81.3705 98.4464 79.5728C98.4514 78.4874 98.4464 78.4874 97.3457 78.4874C79.1158 78.4874 60.886 78.4857 42.6561 78.4891C40.8432 78.4891 40.9975 78.2788 40.9975 80.1647C40.9975 81.1534 41.0161 81.1704 41.9778 81.1704C51.219 81.1704 60.4603 81.1704 69.7033 81.1704ZM46.969 65.7609C48.4885 67.1974 49.1618 68.9527 49.6214 70.864C50.0929 72.8263 49.4569 74.6545 49.1177 76.537C53.3441 76.537 57.4737 76.537 61.6729 76.537C61.2574 74.6358 60.6977 72.811 61.1489 70.8657C61.5932 68.9527 62.2767 67.1957 63.8047 65.7609C63.1942 65.4828 62.6515 65.2335 62.0715 64.9689C61.6085 66.2493 61.1489 67.4518 60.7401 68.6712C59.8803 71.2304 58.1996 73.1773 56.1814 74.8716C55.5861 75.3719 55.2096 75.3617 54.6025 74.8716C52.2603 72.9772 50.5491 70.6487 49.6876 67.7231C49.4162 66.8022 49.0431 65.9101 48.7022 64.9621C48.0934 65.2419 47.5659 65.4862 46.969 65.7609ZM89.4764 64.9672C89.0151 66.251 88.5606 67.4772 88.1349 68.7153C87.2649 71.2422 85.6063 73.1841 83.5982 74.8597C82.9741 75.3804 82.6146 75.377 81.9718 74.8411C79.9621 73.1655 78.3052 71.2253 77.4504 68.6898C77.0349 67.4552 76.5668 66.2375 76.1055 64.9655C75.5119 65.2385 74.9828 65.4811 74.379 65.7592C75.8918 67.194 76.5685 68.9459 77.0264 70.8556C77.4979 72.8229 76.8856 74.6528 76.5159 76.5489C80.7389 76.5489 84.8753 76.5489 89.1322 76.5489C87.7822 72.5583 88.2689 68.9306 91.1605 65.7321C90.5822 65.4692 90.0514 65.2284 89.4764 64.9672ZM67.6206 66.519C67.7122 66.9158 67.8174 67.2398 67.8564 67.5722C68.1939 70.3892 68.5144 73.2062 68.8536 76.0231C68.8756 76.2114 69.0147 76.3861 69.0995 76.5675C69.1792 76.3979 69.3115 76.2334 69.3335 76.0571C69.6541 73.3028 69.9526 70.5469 70.2697 67.791C70.4325 66.3884 71.1448 65.3623 72.3863 64.6687C74.2959 63.6019 76.3005 62.7777 78.3849 62.1315C78.5341 62.0858 78.646 61.9179 78.7749 61.8059C78.6308 61.7245 78.4934 61.5871 78.3425 61.5702C76.3599 61.3514 74.5859 60.6289 73.0121 59.4028C72.8866 59.3061 72.7475 59.2281 72.5847 59.1212C71.9199 62.3011 70.2663 64.7416 67.6206 66.519ZM47.1063 76.5557C48.7294 71.9885 47.432 68.2828 45.2306 66.9192C44.7049 67.562 43.6618 75.0954 43.9027 76.5557C44.9711 76.5557 46.043 76.5557 47.1063 76.5557ZM74.5062 76.5506C76.0648 72.253 75.0235 68.4761 72.6559 66.9158C72.1234 67.5264 71.0889 74.8529 71.3026 76.5506C72.3693 76.5506 73.4395 76.5506 74.5062 76.5506ZM93.0125 66.7802C92.7429 66.9922 92.5716 67.1075 92.424 67.2466C90.9808 68.6101 90.3719 70.3824 90.3516 72.2751C90.3363 73.6234 90.7382 74.975 90.974 76.3233C90.9909 76.4217 91.1656 76.5641 91.2674 76.5658C92.2951 76.5845 93.3229 76.576 94.3608 76.576C94.3608 76.3827 94.371 76.2775 94.3591 76.1741C94.042 73.4215 93.7299 70.6673 93.3907 67.9165C93.3466 67.5586 93.1618 67.2194 93.0125 66.7802ZM66.9439 76.5777C66.9439 76.3946 66.9558 76.2707 66.9422 76.1503C66.6217 73.3774 66.308 70.6029 65.9654 67.8334C65.9247 67.501 65.7313 67.1872 65.5804 66.7886C65.3175 67.0006 65.1462 67.1194 64.997 67.2618C63.5436 68.6474 62.9483 70.4451 62.9313 72.3582C62.9194 73.6844 63.3265 75.0157 63.5656 76.3403C63.5826 76.4353 63.7657 76.5658 63.8743 76.5675C64.8834 76.5845 65.8925 76.5777 66.9439 76.5777ZM84.8312 61.6787C83.4541 61.6787 82.0956 61.6787 80.7236 61.6787C80.6354 62.8082 80.6676 63.8394 81.7327 64.472C82.4687 64.9095 83.2353 64.8892 83.9493 64.4143C84.9516 63.7495 84.9482 62.7387 84.8312 61.6787ZM53.3305 61.6516C53.2253 62.8201 53.2644 63.8597 54.3633 64.4991C55.0909 64.9214 56.0271 64.84 56.6817 64.3159C57.411 63.7308 57.6654 62.7353 57.3516 61.6516C56.0355 61.6516 54.7127 61.6516 53.3305 61.6516ZM96.4502 52.1712C97.8036 51.8218 98.7177 50.3548 98.4871 48.9675C98.3599 48.206 98.019 47.8906 97.3779 47.9381C96.7707 47.9839 96.4689 48.3332 96.4553 49.0778C96.4366 50.0936 96.4502 51.1095 96.4502 52.1712ZM80.6303 66.1866C80.0893 65.5353 79.4686 64.7874 78.8173 64.0005C78.5918 64.0785 78.2797 64.1854 77.9117 64.3125C78.3374 65.5014 78.7461 66.6462 79.1786 67.8503C79.7128 67.2364 80.2063 66.6699 80.6303 66.1866ZM50.4932 64.3075C50.9341 65.5269 51.3428 66.6615 51.7957 67.9148C52.374 67.2635 52.8726 66.7022 53.2762 66.2476C52.6979 65.5523 52.0772 64.8044 51.4124 64.0056C51.1987 64.0751 50.8849 64.1786 50.4932 64.3075ZM86.4034 67.8808C86.8545 66.6174 87.2632 65.4777 87.6821 64.3041C87.2785 64.1735 86.9478 64.0649 86.7782 64.009C86.0828 64.8366 85.4706 65.5642 84.9228 66.2154C85.3366 66.6784 85.8335 67.2381 86.4034 67.8808ZM58.9729 67.9182C59.4292 66.6564 59.843 65.5082 60.2771 64.3058C59.8922 64.1803 59.5631 64.0717 59.3681 64.009C58.6795 64.8264 58.0554 65.5676 57.4601 66.2731C57.8824 66.731 58.3811 67.272 58.9729 67.9182ZM55.4216 71.3253C55.096 71.6934 54.8399 71.98 54.5584 72.2988C54.8178 72.5362 55.1028 72.7957 55.4267 73.0925C55.7404 72.7805 56.005 72.5193 56.2815 72.2462C55.9796 71.9223 55.7269 71.651 55.4216 71.3253ZM82.7876 71.3491C82.4687 71.6628 82.2025 71.9257 81.8972 72.2242C82.2143 72.5193 82.4993 72.7856 82.83 73.0959C83.1437 72.7839 83.4083 72.5193 83.7034 72.2242C83.3795 71.9155 83.1081 71.656 82.7876 71.3491ZM82.8571 67.0702C82.5094 67.3941 82.2517 67.6332 82.0617 67.8096C82.3195 68.0979 82.5654 68.3727 82.7978 68.6305C83.081 68.3744 83.3439 68.1369 83.5982 67.908C83.3354 67.6112 83.0996 67.3449 82.8571 67.0702ZM55.3639 68.7102C55.659 68.4286 55.9253 68.1742 56.2323 67.8808C55.9287 67.5959 55.6624 67.3432 55.3741 67.0736C55.0756 67.3602 54.8212 67.6027 54.5244 67.8859C54.8145 68.1692 55.0672 68.4168 55.3639 68.7102ZM52.5843 69.76C52.8302 70.1026 53.0456 70.4044 53.2966 70.7555C53.5561 70.4943 53.7731 70.2738 53.9529 70.0924C53.6816 69.7718 53.4424 69.4886 53.188 69.1867C52.9642 69.3987 52.7997 69.5548 52.5843 69.76ZM80.0011 69.7905C80.247 70.1212 80.4658 70.4129 80.7032 70.7318C80.978 70.4672 81.19 70.2637 81.4274 70.0347C81.1238 69.743 80.8559 69.4869 80.5336 69.18C80.3471 69.3953 80.1962 69.5666 80.0011 69.7905ZM58.1792 69.7515C57.9774 69.5615 57.801 69.3936 57.6128 69.2156C57.3313 69.5141 57.0786 69.7803 56.8988 69.9703C57.0887 70.223 57.2753 70.4689 57.4907 70.7538C57.7434 70.3875 57.952 70.0839 58.1792 69.7515ZM85.1127 69.2308C84.7752 69.5463 84.5073 69.8007 84.219 70.0703C84.4496 70.2891 84.6718 70.4977 84.9211 70.7334C85.1619 70.3807 85.362 70.0839 85.5944 69.743C85.4163 69.5548 85.2484 69.375 85.1127 69.2308Z" fill="#639E80"/>
<path d="M55.413 55.6259C54.5481 55.6411 53.7968 55.3494 53.171 54.7541C52.7673 54.3708 52.7148 53.8315 53.015 53.4415C53.3474 53.0107 53.8612 52.9513 54.3649 53.2854C55.2519 53.8756 55.5148 53.8739 56.4103 53.2803C56.8919 52.9598 57.377 53.0039 57.7178 53.4008C58.0621 53.7993 58.0214 54.3522 57.5923 54.7609C56.9852 55.3392 56.2542 55.6259 55.413 55.6259Z" fill="#639E80"/>
<path d="M62.3734 47.6226C62.2395 48.2688 62.2055 48.8776 61.9749 49.3966C61.829 49.7256 61.3762 50.136 61.0811 50.1208C60.7419 50.1038 60.3112 49.7222 60.1178 49.3847C59.7108 48.6775 59.7481 47.8821 60.0245 47.1155C60.2823 46.3998 60.6351 46.1675 61.4017 46.1675C61.7595 46.1675 62.1191 46.1777 62.4769 46.1675C62.9704 46.1539 63.3351 46.3574 63.3503 46.8662C63.3639 47.375 63.0196 47.6074 62.5176 47.5989C62.4532 47.6006 62.3904 47.6192 62.3734 47.6226Z" fill="#639E80"/>
<path d="M48.3917 47.643C48.2374 47.6192 48.0508 47.6464 47.966 47.5649C47.7557 47.3648 47.4267 47.0952 47.4504 46.89C47.481 46.6356 47.7913 46.2608 48.0321 46.2167C48.5816 46.1132 49.1701 46.1302 49.7298 46.1997C49.9791 46.2319 50.2572 46.466 50.4201 46.6847C50.978 47.4293 50.9729 48.8488 50.4574 49.6306C49.974 50.3633 49.2482 50.3684 48.797 49.6137C48.6274 49.3304 48.5206 48.9963 48.4544 48.6724C48.3883 48.3485 48.4103 48.0076 48.3917 47.643Z" fill="#639E80"/>
<path d="M82.7998 55.6089C81.9348 55.6241 81.1869 55.3257 80.5475 54.7541C80.0693 54.3267 80.0116 53.7806 80.3745 53.355C80.7222 52.9479 81.2276 52.9157 81.7313 53.2668C82.5861 53.8603 83.0084 53.862 83.8462 53.2719C84.3448 52.9208 84.8671 52.9479 85.208 53.3431C85.576 53.7688 85.5235 54.3149 85.0469 54.7456C84.4143 55.3223 83.6647 55.6224 82.7998 55.6089Z" fill="#639E80"/>
<path d="M90.0707 47.1698C89.8638 47.7125 89.7434 48.2603 89.4653 48.7097C89.1024 49.2931 88.4732 49.2643 88.0373 48.7335C87.403 47.9618 87.3979 46.3473 88.0288 45.5688C88.4884 45.0024 89.1176 44.9854 89.4924 45.6129C89.7621 46.0674 89.8723 46.6169 90.0707 47.1698Z" fill="#639E80"/>
<path d="M78.1624 47.1308C77.9504 47.6989 77.8334 48.2484 77.5553 48.6979C77.1923 49.2864 76.5699 49.2677 76.1256 48.7454C75.4777 47.9839 75.4862 46.2811 76.1391 45.5298C76.5767 45.0278 77.1703 44.9939 77.5247 45.5536C77.8165 46.0149 77.947 46.5813 78.1624 47.1308Z" fill="#639E80"/>
</svg>
