<svg width="887" height="770" viewBox="0 0 887 770" fill="none" xmlns="http://www.w3.org/2000/svg">
<path d="M887 0C881.823 25.7433 860.694 49.9712 836.121 62.2191C800.751 79.8384 759.802 81.2818 721.545 91.1379C683.277 100.994 643.381 124.407 635.131 163.038C628.779 192.761 642.937 222.597 656.57 249.753C682.473 301.322 708.47 354.953 711.357 412.584C714.234 470.216 687.959 533.321 634.935 556.106C587.315 576.55 531.311 560.591 481.432 574.653C428.336 589.633 390.862 635.48 355.183 677.544C319.504 719.597 277.152 762.908 222.355 769.218C161.288 776.259 105.201 734.66 64.737 688.379C31.4191 650.275 2.81385 606.768 -35 573.87L-34.3503 514.568L-28.751 0H887Z" fill="#DDF6FF"/>
</svg>
