<svg width="140" height="140" viewBox="0 0 140 140" fill="none" xmlns="http://www.w3.org/2000/svg">
<circle cx="70" cy="70" r="70" fill="white"/>
<path d="M50.0697 57.7783C50.0995 57.4818 50.0588 57.1824 49.9511 56.9045C49.8434 56.6267 49.6716 56.3781 49.4497 56.1792L44.8772 50.669V49.8423H59.0803L70.0595 73.9189L79.7108 49.8423H93.2501V50.6664L89.3363 54.4148C89.1726 54.5424 89.0459 54.7115 88.9696 54.9046C88.8933 55.0976 88.8701 55.3076 88.9023 55.5127V83.0665C88.8695 83.2716 88.8925 83.4818 88.9688 83.675C89.0452 83.8682 89.1721 84.0372 89.3363 84.1644L93.1571 87.9129V88.7369H73.9474V87.9129L77.8973 84.0714C78.29 83.6839 78.29 83.5677 78.29 82.9761V60.7026L67.2876 88.6465H65.8022L52.994 60.7026V79.4292C52.8881 80.2171 53.149 81.0102 53.7044 81.5811L58.8504 87.825V88.6491H44.2598V87.825L49.4058 81.5811C49.6765 81.299 49.8775 80.9575 49.9928 80.5838C50.1081 80.2102 50.1344 79.8148 50.0697 79.4292V57.7783Z" fill="black"/>
</svg>
