<svg width="140" height="140" viewBox="0 0 140 140" fill="none" xmlns="http://www.w3.org/2000/svg">
<circle cx="70" cy="70" r="70" fill="white"/>
<path fill-rule="evenodd" clip-rule="evenodd" d="M60.5177 47.138C62.9704 47.0251 63.7524 47 70 47C76.2476 47 77.0296 47.0272 79.4802 47.138C81.9307 47.2488 83.6035 47.6398 85.0671 48.2065C86.5997 48.7856 87.9902 49.691 89.1402 50.8619C90.3111 52.0098 91.2144 53.3982 91.7915 54.9329C92.3602 56.3965 92.7491 58.0693 92.862 60.5156C92.9749 62.9725 93 63.7545 93 70C93 76.2476 92.9728 77.0296 92.862 79.4823C92.7512 81.9286 92.3602 83.6014 91.7915 85.065C91.2143 86.5999 90.3096 87.9906 89.1402 89.1402C87.9902 90.3111 86.5997 91.2144 85.0671 91.7915C83.6035 92.3602 81.9307 92.7491 79.4844 92.862C77.0296 92.9749 76.2476 93 70 93C63.7524 93 62.9704 92.9728 60.5177 92.862C58.0714 92.7512 56.3986 92.3602 54.935 91.7915C53.4001 91.2143 52.0094 90.3095 50.8598 89.1402C49.6897 87.9916 48.7842 86.6016 48.2065 85.0671C47.6398 83.6035 47.2509 81.9307 47.138 79.4844C47.0251 77.0275 47 76.2455 47 70C47 63.7524 47.0272 62.9704 47.138 60.5198C47.2488 58.0693 47.6398 56.3965 48.2065 54.9329C48.7851 53.3984 49.6912 52.0084 50.8619 50.8598C52.0099 49.69 53.3992 48.7845 54.9329 48.2065C56.3965 47.6398 58.0693 47.2509 60.5156 47.138H60.5177ZM79.2941 51.278C76.8686 51.1672 76.141 51.1442 70 51.1442C63.859 51.1442 63.1314 51.1672 60.7059 51.278C58.4624 51.3805 57.2455 51.7547 56.4342 52.0705C55.3615 52.4886 54.5942 52.9842 53.7892 53.7892C53.0261 54.5316 52.4388 55.4353 52.0705 56.4342C51.7547 57.2455 51.3805 58.4624 51.278 60.7059C51.1672 63.1314 51.1442 63.859 51.1442 70C51.1442 76.141 51.1672 76.8686 51.278 79.2941C51.3805 81.5376 51.7547 82.7545 52.0705 83.5658C52.4385 84.5632 53.026 85.4685 53.7892 86.2108C54.5315 86.974 55.4368 87.5615 56.4342 87.9295C57.2455 88.2453 58.4624 88.6195 60.7059 88.722C63.1314 88.8328 63.8569 88.8558 70 88.8558C76.1431 88.8558 76.8686 88.8328 79.2941 88.722C81.5376 88.6195 82.7545 88.2453 83.5658 87.9295C84.6385 87.5114 85.4058 87.0158 86.2108 86.2108C86.974 85.4685 87.5615 84.5632 87.9295 83.5658C88.2453 82.7545 88.6195 81.5376 88.722 79.2941C88.8328 76.8686 88.8558 76.141 88.8558 70C88.8558 63.859 88.8328 63.1314 88.722 60.7059C88.6195 58.4624 88.2453 57.2455 87.9295 56.4342C87.5114 55.3615 87.0158 54.5942 86.2108 53.7892C85.4684 53.0261 84.5647 52.4389 83.5658 52.0705C82.7545 51.7547 81.5376 51.3805 79.2941 51.278ZM67.0623 77.0903C68.7029 77.7732 70.5298 77.8654 72.2309 77.3511C73.9319 76.8367 75.4016 75.7477 76.389 74.2701C77.3764 72.7926 77.8201 71.018 77.6445 69.2496C77.4688 67.4812 76.6846 65.8286 75.4259 64.5741C74.6235 63.7722 73.6533 63.1582 72.5851 62.7762C71.5169 62.3943 70.3773 62.2539 69.2483 62.3653C68.1194 62.4766 67.0291 62.8369 66.0561 63.4202C65.0831 64.0034 64.2516 64.7952 63.6213 65.7384C62.991 66.6816 62.5777 67.7529 62.4111 68.875C62.2445 69.9971 62.3288 71.1422 62.6579 72.2279C62.9869 73.3135 63.5526 74.3127 64.3142 75.1535C65.0758 75.9943 66.0144 76.6557 67.0623 77.0903ZM61.6405 61.6405C62.7383 60.5428 64.0416 59.672 65.4759 59.0778C66.9102 58.4837 68.4475 58.1779 70 58.1779C71.5525 58.1779 73.0898 58.4837 74.5241 59.0778C75.9584 59.672 77.2617 60.5428 78.3595 61.6405C79.4572 62.7383 80.328 64.0416 80.9222 65.4759C81.5163 66.9102 81.8221 68.4475 81.8221 70C81.8221 71.5525 81.5163 73.0898 80.9222 74.5241C80.328 75.9584 79.4572 77.2617 78.3595 78.3595C76.1424 80.5765 73.1354 81.8221 70 81.8221C66.8646 81.8221 63.8576 80.5765 61.6405 78.3595C59.4235 76.1424 58.1779 73.1354 58.1779 70C58.1779 66.8646 59.4235 63.8576 61.6405 61.6405ZM84.444 59.9385C84.716 59.6819 84.9338 59.3733 85.0845 59.031C85.2351 58.6887 85.3155 58.3197 85.321 57.9458C85.3264 57.5718 85.2568 57.2006 85.1162 56.8541C84.9756 56.5075 84.7669 56.1927 84.5025 55.9283C84.238 55.6638 83.9232 55.4551 83.5767 55.3145C83.2301 55.1739 82.8589 55.1043 82.485 55.1098C82.111 55.1152 81.742 55.1956 81.3997 55.3463C81.0574 55.4969 80.7488 55.7147 80.4922 55.9867C79.9931 56.5158 79.7199 57.2185 79.7305 57.9458C79.7411 58.673 80.0347 59.3675 80.549 59.8818C81.0633 60.3961 81.7577 60.6897 82.485 60.7003C83.2122 60.7109 83.9149 60.4376 84.444 59.9385Z" fill="black"/>
</svg>
