<svg width="140" height="140" viewBox="0 0 140 140" fill="none" xmlns="http://www.w3.org/2000/svg">
<circle cx="70" cy="70" r="70" fill="white"/>
<path d="M94 74.5894V92H83.7117V75.755C83.7117 71.6731 82.2231 68.8889 78.5002 68.8889C75.6576 68.8889 73.9645 70.767 73.2214 72.5815C72.9496 73.2303 72.8799 74.134 72.8799 75.0424V92H62.5868C62.5868 92 62.7263 64.4885 62.5868 61.6359H72.8799V65.9395L72.8126 66.0386H72.8799V65.9395C74.2459 63.875 76.6869 60.9233 82.1533 60.9233C88.9232 60.9233 94 65.2647 94 74.5894ZM51.8223 47C48.3039 47 46 49.2651 46 52.2451C46 55.1591 48.2366 57.4926 51.6877 57.4926H51.755C55.3456 57.4926 57.5749 55.1591 57.5749 52.2451C57.5124 49.2651 55.348 47 51.8247 47H51.8223ZM46.6109 92H56.8991V61.6359H46.6109V92Z" fill="black"/>
</svg>
