<svg width="192" height="193" viewBox="0 0 192 193" fill="none" xmlns="http://www.w3.org/2000/svg">
<g opacity="0.3" clip-path="url(#clip0_1505_11752)">
<path d="M137.369 3.54284L2.79883 53.7109L53.1041 187.47L187.674 137.302L137.369 3.54284Z" fill="#5F74AA"/>
<path d="M63.5026 109.185C65.5333 109.703 67.168 110.93 67.8975 112.83C69.6447 117.441 65.2851 124.312 59.0987 126.621C55.8026 127.858 52.7356 127.523 50.4566 125.729C50.3538 122.889 50.4687 116.591 50.7342 112.752C51.0096 108.576 51.3743 105.775 51.9177 103.963C49.8349 105.545 48.1477 107.299 47.5448 108.488C46.5981 108.285 44.9932 106.93 44.5221 105.969C46.1914 103.588 50.9002 100.372 54.8866 98.8599C59.973 96.9489 63.9051 97.9563 65.2607 101.557C66.2745 104.226 65.522 106.938 63.5026 109.185ZM54.539 113.31C54.2176 118.328 54.1468 123.323 54.4747 124.549C55.2046 124.688 56.0739 124.522 57.2953 124.07C63.1177 121.921 66.9399 116.484 65.4689 112.559C64.9541 111.142 63.9101 110.361 62.5039 110.202C61.1073 111.467 59.3149 112.561 57.2362 113.304C56.6673 113.526 56.4246 113.633 55.9691 113.719C55.5056 113.721 55.0263 113.557 54.539 113.31ZM55.1305 101.854C55.3513 101.959 55.5382 102.15 55.7212 102.301C55.339 103.594 54.9244 107.196 54.6669 111.119C55.3412 110.677 56.4294 110.154 57.4459 109.764C57.973 109.546 58.5499 109.407 59.0849 109.272C62.8785 107.065 64.8305 104.113 63.928 101.726C63.1866 99.7013 61.0803 99.2739 58.0269 100.404C57.1318 100.741 56.1689 101.252 55.1305 101.854Z" fill="white"/>
<path d="M70.8375 114.937C69.5435 111.541 70.211 106.615 72.4235 103.302C73.2692 102.006 74.2381 101.117 75.2168 100.772C76.0263 100.863 77.0465 101.394 78.0985 102.257C78.3034 102.196 78.4625 102.097 78.6674 102.035C79.8052 101.591 80.72 102.342 81.5072 104.404C83.489 109.705 81.5264 115.635 76.8395 118.639C74.2437 119.264 71.9129 117.81 70.8375 114.937ZM74.4634 115.387C74.855 116.398 75.6643 117.368 76.1238 117.324C79.617 115.063 80.8574 109.957 78.9949 105.022C78.5954 103.928 78.2474 103.375 77.794 103.041C76.1428 104.288 75.1439 106.186 74.5964 107.956C73.9076 110.453 73.8373 113.687 74.4634 115.387Z" fill="white"/>
<path d="M89.8627 98.3253C89.7825 101.015 88.1004 106.792 88.5873 108.799C89.4152 106.876 90.5557 103.372 91.0035 102.324C92.0045 100.007 93.8295 95.725 95.9042 94.94C97.0042 94.5415 98.116 95.1478 98.81 95.794C98.8597 95.873 98.4996 96.0751 98.2031 96.9416C97.6298 98.8824 97.012 103.887 97.976 106.477C98.3716 107.529 98.7177 107.622 99.2448 107.404C99.6924 107.235 100.188 106.685 100.472 106.574C100.685 106.595 100.926 106.908 100.987 107.111C100.557 107.907 99.4572 109.185 98.7252 109.465C96.2407 110.373 95.1072 109.098 94.4234 107.236C94.0279 106.184 93.8094 104.78 94.0252 100.861C93.9456 100.911 92.9091 101.974 92.0991 103.644C90.8335 106.279 89.9995 108.58 89.1833 111.508C88.7493 113.142 88.4049 114.391 87.9891 114.891C86.9171 114.7 86.1197 113.855 85.5689 112.943C84.9547 111.367 84.5777 107.422 84.8054 103.628C85.0232 99.2906 85.6842 96.5032 85.9946 96.2221C87.3431 96.219 88.9003 97.0761 89.8627 98.3253Z" fill="white"/>
<path d="M103.751 90.1672C104.362 89.9412 105.163 89.9485 106.201 90.2265C105.723 93.164 105.59 94.8532 105.729 96.3068C106.181 101.922 106.609 109.047 106.63 111.476C106.627 117.176 105.646 119.701 103.081 120.658C101.208 121.34 98.97 121.303 97.8384 120.489C97.7689 120.202 97.9341 119.725 98.135 119.622C99.1513 120.112 99.9986 120.157 101.099 119.758C103.826 118.743 104.053 115.83 102.424 100.981C101.682 94.095 102.082 90.7877 103.751 90.1672ZM103.183 86.8687C102.875 86.7305 102.543 86.3431 102.378 85.9397C102.093 85.1706 101.784 82.8113 101.82 81.4248C102.795 81.0383 105.535 81.4889 106.53 82.1902C105.855 83.512 104.605 87.1938 104.593 87.9493C104.054 88.0428 103.441 87.8079 103.276 87.4046C103.272 87.363 103.211 87.1594 103.183 86.8687Z" fill="white"/>
<path d="M109.789 100.403C108.495 97.0064 109.162 92.081 111.375 88.7682C112.22 87.472 113.189 86.5831 114.168 86.2382C114.977 86.3285 115.998 86.8596 117.05 87.7231C117.255 87.6616 117.414 87.5626 117.619 87.5011C118.756 87.0571 119.671 87.8079 120.458 89.8701C122.44 95.1711 120.478 101.1 115.791 104.105C113.195 104.73 110.864 103.276 109.789 100.403ZM113.415 100.853C113.806 101.864 114.615 102.834 115.075 102.79C118.568 100.528 119.809 95.4225 117.946 90.4874C117.547 89.3939 117.199 88.8404 116.745 88.5066C115.094 89.754 114.095 91.6516 113.548 93.4223C112.859 95.9189 112.792 99.1943 113.415 100.853Z" fill="white"/>
<path d="M132.091 92.9501C131.918 92.4637 131.837 92.0524 131.809 91.7617C131.441 91.8806 130.36 96.0074 129.999 97.0895C129.653 97.877 129.287 98.4568 129.007 98.6094C127.614 99.0358 125.482 98.7785 124.595 97.4383C124.146 96.2658 123.999 95.6092 123.82 94.6205C123.361 91.1438 123.651 84.9133 125.603 81.9607C126.335 81.6812 127.911 81.4049 128.843 81.9026C128.603 82.4704 127.757 85.5269 127.539 90.7447C127.475 91.8405 127.659 95.0919 128.062 96.2269C128.178 96.5511 128.402 96.6973 128.49 96.7309C129.035 96.2597 129.493 94.8748 130.381 91.8143C130.785 90.3088 131.641 87.7962 131.647 85.6581C131.62 84.4873 131.626 82.3492 132.541 80.4596C133.683 80.0571 135.408 80.0181 135.986 80.34C135.806 84.6321 134.678 89.1406 135.964 92.4544C136.643 94.2754 137.61 94.686 137.779 95.1308C137.829 95.2099 137.711 95.3049 137.711 95.3049C137.142 95.5269 135.452 95.4789 134.201 95.1794C133.025 94.7887 132.371 93.6777 132.091 92.9501Z" fill="white"/>
<path d="M139.72 79.2709C139.786 77.7558 139.919 76.9467 140.232 76.2463C141.473 76.002 143.259 76.1666 144.013 76.5556C143.34 78.3382 143.185 80.2391 143.307 83.2869C144.804 80.4197 145.884 78.0532 146.579 75.1788C146.688 75.0007 146.848 74.9017 147.174 74.7867C147.784 74.5607 148.499 74.5344 148.819 74.7972C148.805 75.9721 148.991 77.0439 149.383 78.0542C149.725 78.9855 150.122 79.6181 150.58 79.9935C150.649 80.2803 150.331 81.3584 149.909 82.237C148.545 82.074 147.166 81.3255 146.262 80.2385C143.255 84.5072 142.761 87.2786 143.702 93.601C142.921 93.8015 140.944 93.4036 140.429 92.8661C139.924 90.232 139.532 83.4799 139.72 79.2709Z" fill="white"/>
<path d="M0.676533 100.183C3.76358 99.8459 7.13885 100.32 9.01184 103.158C10.2466 105.052 10.1131 105.861 12.351 105.019C13.4092 104.624 14.9825 104.767 15.9531 105.219C16.9693 105.709 17.3948 106.632 17.7068 107.692C17.9493 108.465 18.5059 109.879 20.1725 110.558L54.5635 32.4195C53.5176 31.1783 51.9124 31.5831 49.5298 30.4696C48.2052 29.8418 47.213 28.7212 46.0018 27.9568C45.6399 27.698 41.9242 28.514 40.9177 28.5683C38.0276 28.7606 34.6649 25.7709 32.6981 24.1567C31.326 23.0304 29.4722 23.0399 27.5288 23.4352L-4.65317 96.459C-3.26535 98.6315 -1.78396 100.46 0.676533 100.183Z" fill="#FF4B4B"/>
</g>
<defs>
<clipPath id="clip0_1505_11752">
<rect width="187.565" height="175.06" fill="white" transform="translate(-12.1641 17.8398) rotate(-5.45776)"/>
</clipPath>
</defs>
</svg>
