<svg width="20" height="20" viewBox="0 0 20 20" fill="none" xmlns="http://www.w3.org/2000/svg">
<path fill-rule="evenodd" clip-rule="evenodd" d="M2 10.0002C2 5.58407 5.58407 2 10.0002 2C14.4163 2 18.0003 5.58407 18.0003 10.0002C18.0003 14.4163 14.4163 18.0003 10.0002 18.0003C5.58407 18.0003 2 14.4163 2 10.0002ZM4.95994 10.5599L7.832 13.4319C8.144 13.7439 8.65602 13.7439 8.96002 13.4319L15.0321 7.3598C15.3442 7.04779 15.3442 6.54378 15.0321 6.23178C14.7201 5.91977 14.2161 5.91977 13.9041 6.23178L8.40001 11.7359L6.08796 9.43184C5.77596 9.11983 5.27195 9.11983 4.95994 9.43184C4.81014 9.58131 4.72595 9.78423 4.72595 9.99585C4.72595 10.2075 4.81014 10.4104 4.95994 10.5599Z" fill="#02182C"/>
</svg>
