<svg width="412" height="398" viewBox="0 0 412 398" fill="none" xmlns="http://www.w3.org/2000/svg">
<g opacity="0.2">
<path d="M205.551 3.86567C203.132 2.71267 200.092 2.76335 197.724 3.9797C199.091 6.04497 196.938 8.465 195.469 10.4796C190.846 16.8274 192.86 25.3039 191.327 32.8047C189.909 39.7734 185.134 46.1212 178.535 49.821C169.618 54.8257 157.7 55.2059 150.417 62.0858C147.416 64.924 145.579 69.6247 148.226 72.7416C145.794 75.453 143.147 78.2912 139.474 79.3048C130.355 81.8009 118.918 72.0954 112.129 78.2025C106.771 75.6558 104.542 68.7758 107.519 63.9737C104.986 63.8724 102.604 62.2759 101.756 60.0839C97.1582 62.618 91.0027 62.58 86.4558 59.9699C82.3774 71.4239 96.4616 82.6878 94.4858 94.5853C94.1818 96.4351 93.4852 98.2977 93.9032 100.122C94.7771 103.961 99.7674 105.482 103.96 106.293C102.149 109.714 97.4875 111.64 93.4852 110.601C89.4829 109.562 86.6204 105.684 87.0384 101.909C84.5179 101.63 82.3014 104.443 83.378 106.546C77.5645 103.087 68.5465 106.001 66.3934 112.032C63.8856 112.653 64.3289 112.425 62.4543 110.778C60.0985 108.725 59.3259 105.418 56.7421 103.594C56.0455 103.1 55.2349 102.732 54.627 102.149C53.981 101.516 53.6264 100.68 53.0818 99.9701C50.7893 96.8913 44.8997 97.0433 42.7973 100.236C38.073 101.769 37.047 102.631 32.3228 104.164C28.6624 105.355 24.508 107.015 23.5075 110.461C15.5788 106.47 4.17967 110.892 1.77319 118.862C4.5723 118.912 7.38408 118.963 10.1832 119.014C9.75256 122.143 13.6536 125.045 16.9213 124.006C17.4279 126.591 13.6789 127.807 11.0318 128.808C8.372 129.809 6.59881 134.028 9.44858 134.421C5.48423 133.737 1.16524 136.131 0 139.666C3.47039 140.401 6.76346 141.757 9.6639 143.645C17.314 138.602 28.2191 141.085 36.1984 145.672C41.746 148.865 47.1669 154.174 45.8623 160.066C51.2199 155.542 59.2626 155.314 66.558 155.339C65.3674 158.9 65.8741 162.916 67.9386 166.135C71.3456 166.439 74.816 166.084 78.0584 165.108C77.8305 171.748 76.9439 178.374 75.4113 184.861C81.8075 185.051 83.226 193.084 87.165 197.696C90.4328 201.51 95.8537 203.056 100.363 205.615C104.872 208.175 108.849 213.192 106.619 217.589C104.96 218.64 103.301 219.679 101.642 220.731C107.379 229.651 113.674 238.254 120.514 246.49C117.791 245.666 115.067 244.843 112.344 244.019C109.634 251.267 106.923 258.527 104.2 265.774C106.746 267.117 109.469 268.156 112.306 268.866C102.035 276.29 102.554 290.304 99.2987 301.91C97.2469 309.233 93.3205 316.113 87.925 321.853C94.4985 319.192 100.603 325.857 105.644 330.532C111.356 335.828 118.956 339.376 126.999 340.504C132.153 341.226 139.259 342.67 138.879 347.422C143.857 345.268 150.405 346.852 153.571 350.982C160.93 347.244 167.541 342.265 172.962 336.373C182.765 338.286 187.452 348.929 196.432 353.022C208.616 358.584 224.207 350.425 236.607 355.569C234.391 347.08 235.113 337.957 238.634 329.848C232.681 325.464 231.592 316.531 236.354 311.045C236.062 308.701 236.417 306.053 238.368 304.507C240.318 302.962 244.118 303.595 244.536 305.914C246.385 302.138 250.375 299.3 254.833 298.578C251.363 301.289 255.77 306.484 260.254 307.269C264.725 308.055 270.032 307.358 273.224 310.336C274.756 311.755 275.44 313.744 276.618 315.416C279.1 318.939 283.989 320.89 288.498 320.155C292.437 319.522 295.743 317.089 298.656 314.58C300.113 316.937 300.163 319.978 298.795 322.372C306.192 326.49 313.754 330.672 322.164 332.559C330.574 334.447 340.149 333.712 346.887 328.733C344.962 323.804 351.32 319.851 356.272 317.228C368.647 310.678 378.247 299.87 382.731 287.453C375.068 292.09 363.72 290.621 357.779 284.209C351.763 280.066 365.277 269.829 359.388 265.533C353.866 265.141 348.951 260.883 348.23 255.853C354.499 253.319 359.844 248.91 363.251 243.474C362.858 241.472 361.832 239.635 360.807 237.836C358.172 233.186 355.538 228.523 352.903 223.873C354.993 223.595 357.095 223.328 359.185 223.05C360.199 219.984 356.855 216.487 353.397 216.993C355.487 211.216 356.133 204.45 352.422 199.42C348.711 194.377 339.389 192.869 335.551 197.823C339.414 203.575 333.119 212.318 325.824 211.33C330.954 207.579 333.449 201.054 332.017 195.188C337.426 189.511 343.049 184.012 348.875 178.704C352.181 175.688 355.677 172.546 357.019 168.453C358.349 164.361 356.564 159.065 352.093 157.836C355.208 156.138 358.058 154.022 360.515 151.576C359.033 155.061 363.365 158.735 367.443 158.634C371.534 158.52 375.017 156.036 378.184 153.654C376.689 152.615 375.182 151.576 373.687 150.537C376.081 143.518 375.663 135.979 376.879 128.706C379.007 115.973 386.353 104.025 397.157 95.7763C390.431 91.1389 382.135 88.4275 373.725 88.1107C373.662 88.1107 371.902 83.1819 371.636 82.7131C358.311 84.677 349.015 89.099 336.45 81.2434C332.929 82.0543 332.727 82.1557 329.206 82.9666C329.484 77.2522 324.127 71.804 317.895 71.4492C314.438 71.2592 310.613 72.3488 307.725 70.6003C305.407 69.1939 304.546 66.3938 302.393 64.7846C300.949 63.7076 299.074 63.2769 297.491 62.4026C290.727 58.6522 292.083 49.4662 294.299 42.5229C293.147 41.2431 290.778 41.6613 289.461 42.8016C288.144 43.9419 287.498 45.5764 286.51 46.9575C283.597 51.0373 277.34 52.7858 272.438 50.8853C271.742 47.515 273.3 43.8279 276.301 41.7626C274.389 40.0521 271.336 39.52 268.867 40.4576C267.473 35.6049 264.915 31.0309 261.432 27.1664C256.885 28.6742 252.338 30.1693 247.791 31.677C247.588 29.219 247.398 26.7483 247.196 24.2902C242.801 22.9852 237.823 23.53 233.669 21.6675C229.514 19.8049 227.501 13.4191 231.718 11.6833C229.755 9.78271 226.766 8.81977 223.941 9.17454C224.499 6.29837 224.891 2.89005 222.586 0.862801C218.419 -2.74824 210.668 6.29837 205.551 3.86567Z" fill="white"/>
<path d="M163.183 55.4971C158.434 57.0302 153.899 58.8294 150.429 62.111C147.427 64.9491 145.591 69.6498 148.238 72.7667C145.806 75.4782 143.159 78.3163 139.486 79.33C130.367 81.826 118.93 72.1205 112.141 78.2276C106.783 75.6809 104.554 68.8009 107.53 63.9989C104.997 63.8975 102.616 62.301 101.768 60.1091C97.17 62.6431 91.0145 62.6051 86.4675 59.995C82.3891 71.449 96.4734 82.7129 94.4975 94.6104C94.1935 96.4603 93.4969 98.3228 93.9149 100.147C94.7888 103.986 99.7791 105.507 103.971 106.318C102.16 109.739 97.4993 111.665 93.4969 110.626C89.4946 109.587 86.6321 105.71 87.0501 101.934C84.5296 101.655 82.3131 104.468 83.3897 106.571C77.5762 103.112 68.5582 106.026 66.4051 112.057C63.8973 112.678 64.3406 112.45 62.4661 110.803C60.1103 108.75 59.3377 105.444 56.7539 103.619C56.0572 103.125 55.2466 102.757 54.6387 102.175C53.9927 101.541 53.6381 100.705 53.0935 99.9953C50.801 96.9164 44.9115 97.0684 42.809 100.261C38.0847 101.794 37.0588 102.656 32.3345 104.189C28.6741 105.38 24.5198 107.04 23.5192 110.486C15.5905 106.495 4.19139 110.917 1.78491 118.887L10.1949 119.039C9.76427 122.168 13.6653 125.07 16.933 124.031C17.4397 126.616 13.6906 127.832 11.0435 128.833C8.38372 129.834 6.61053 134.053 9.4603 134.446C5.49595 133.762 1.17696 136.156 0.0117188 139.691C3.48211 140.426 6.77518 141.782 9.67561 143.67C17.3257 138.627 28.2308 141.111 36.2102 145.697C41.7577 148.89 47.1786 154.199 45.8741 160.091C51.2316 155.567 59.2743 155.339 66.5697 155.365C65.3792 158.925 65.8858 162.941 67.9503 166.16C71.3574 166.464 74.8277 166.109 78.0702 165.133C77.8422 171.773 76.9556 178.399 75.423 184.887C81.8192 185.077 83.2377 193.11 87.1768 197.722C90.4445 201.535 95.8654 203.081 100.374 205.641C104.883 208.2 108.86 213.217 106.631 217.614C104.972 218.666 103.313 219.705 101.654 220.756C107.391 229.676 113.686 238.279 120.525 246.515C117.802 245.691 115.079 244.868 112.356 244.044C109.646 251.292 106.935 258.552 104.212 265.799C106.758 267.142 109.481 268.181 112.318 268.891C102.046 276.316 102.566 290.329 99.3105 301.935C97.2586 309.258 93.3323 316.138 87.9367 321.878C94.5102 319.217 100.615 325.882 105.656 330.557C111.368 335.854 118.968 339.401 127.01 340.529C132.165 341.251 139.271 342.695 138.891 347.447C143.868 345.293 150.429 346.877 153.583 351.007C156.952 349.297 160.144 347.307 163.158 345.116V55.4971H163.183Z" fill="#1855A4"/>
<path d="M397.182 95.8017C390.456 91.1644 382.16 88.4529 373.75 88.1362C373.687 88.1362 371.926 83.2074 371.66 82.7386C358.336 84.7025 349.04 89.1245 336.475 81.2688C332.954 82.0798 332.752 82.1811 329.23 82.992C329.509 77.2777 324.152 71.8295 317.92 71.4747C314.462 71.2846 310.637 72.3743 307.75 70.6258C305.432 69.2194 304.57 66.4192 302.417 64.8101C300.973 63.7331 299.099 63.3023 297.516 62.4281C290.752 58.6776 292.107 49.4917 294.324 42.5483C293.171 41.2686 290.803 41.6867 289.486 42.8271C288.168 43.9674 287.522 45.6019 286.535 46.9829C284.647 49.631 281.342 51.2909 277.922 51.6076V316.899C280.594 319.471 284.698 320.789 288.523 320.168C292.462 319.534 295.768 317.102 298.681 314.593C300.137 316.95 300.188 319.991 298.82 322.385C306.217 326.503 313.778 330.684 322.188 332.572C330.598 334.46 340.174 333.725 346.912 328.746C344.987 323.817 351.345 319.864 356.297 317.241C368.671 310.691 378.272 299.883 382.756 287.466C375.093 292.103 363.744 290.633 357.804 284.222C351.788 280.079 365.302 269.841 359.413 265.546C353.89 265.153 348.976 260.896 348.254 255.866C354.524 253.332 359.869 248.923 363.276 243.487C362.883 241.485 361.857 239.648 360.831 237.849L352.928 223.886C355.03 223.607 357.12 223.341 359.21 223.063C360.223 219.996 356.88 216.499 353.422 217.006C355.512 211.228 356.158 204.462 352.447 199.432C348.736 194.39 339.414 192.882 335.576 197.836C339.439 203.588 333.144 212.331 325.849 211.342C330.978 207.592 333.473 201.067 332.042 195.2C337.45 189.524 343.074 184.025 348.9 178.716C352.206 175.701 355.702 172.559 357.044 168.466C358.374 164.374 356.588 159.077 352.117 157.848C355.233 156.151 358.083 154.035 360.54 151.589C359.058 155.074 363.39 158.761 367.468 158.647C371.559 158.533 375.042 156.049 378.209 153.667C376.714 152.628 375.207 151.589 373.712 150.55C376.106 143.531 375.688 135.992 376.904 128.719C379.019 115.998 386.378 104.063 397.182 95.8017Z" fill="#EE3831"/>
<path d="M411.265 364.058C411.392 364.539 411.481 365.072 411.24 365.515C411.05 365.883 410.67 366.123 410.316 366.364C406.478 368.999 404.35 373.181 402.374 377.184C400.018 381.961 397.65 386.738 395.294 391.527C394.255 393.631 393.116 395.848 391.013 397.14C388.911 398.42 385.542 398.268 384.364 396.215C382.337 392.706 388.341 388.499 386.453 384.913C384.288 380.783 374.89 383.406 373.978 378.895C373.395 376.031 377.575 373.092 375.814 370.659C375.219 369.836 374.13 369.481 373.243 368.923C370.976 367.517 370.039 364.552 371.153 362.246C372.23 362.031 373.306 361.828 374.383 361.613C372.129 358.356 375.168 353.301 379.373 353.314C390.418 353.326 386.162 336.069 396.244 340.086C400.867 341.923 400.702 347.384 402.678 350.729C405.401 355.366 409.923 358.736 411.265 364.058Z" fill="#EE3831"/>
</g>
</svg>
