<svg width="496" height="251" viewBox="0 0 496 251" fill="none" xmlns="http://www.w3.org/2000/svg">
<path d="M382.14 156.45C382.88 156.447 383.607 156.254 384.25 155.89C383.344 158.235 381.841 160.303 379.89 161.89C379.779 161.982 379.686 162.095 379.618 162.222C379.55 162.35 379.508 162.49 379.494 162.634C379.48 162.778 379.495 162.923 379.537 163.061C379.579 163.199 379.648 163.328 379.74 163.44C379.832 163.551 379.945 163.644 380.073 163.712C380.201 163.78 380.34 163.822 380.484 163.836C380.628 163.85 380.773 163.835 380.912 163.793C381.05 163.751 381.179 163.682 381.29 163.59C385.29 160.34 387.07 155.84 387.07 153.05C387.063 152.063 386.769 151.1 386.224 150.278C385.679 149.456 384.906 148.81 384 148.42C383.414 148.136 382.772 147.985 382.12 147.98C381.547 147.952 380.974 148.041 380.436 148.241C379.898 148.441 379.406 148.749 378.99 149.145C378.574 149.541 378.243 150.017 378.017 150.545C377.791 151.072 377.674 151.641 377.674 152.215C377.674 152.789 377.791 153.357 378.017 153.885C378.243 154.412 378.574 154.889 378.99 155.285C379.406 155.681 379.898 155.988 380.436 156.188C380.974 156.389 381.547 156.478 382.12 156.45H382.14Z" fill="#1E1E1E"/>
<path d="M371 156.45C371.74 156.449 372.466 156.256 373.11 155.89C372.204 158.234 370.705 160.301 368.76 161.89C368.638 161.978 368.535 162.09 368.458 162.219C368.382 162.348 368.332 162.491 368.312 162.64C368.293 162.789 368.304 162.94 368.345 163.084C368.386 163.229 368.456 163.363 368.551 163.479C368.646 163.595 368.764 163.691 368.897 163.76C369.031 163.829 369.177 163.87 369.326 163.88C369.476 163.891 369.626 163.87 369.768 163.82C369.91 163.771 370.039 163.692 370.15 163.59C374.15 160.34 375.93 155.84 375.93 153.05C375.925 152.075 375.64 151.122 375.108 150.304C374.576 149.487 373.82 148.84 372.93 148.44C372.328 148.148 371.668 147.998 371 148C370.426 147.973 369.853 148.061 369.315 148.262C368.777 148.462 368.285 148.769 367.869 149.165C367.454 149.561 367.123 150.038 366.897 150.565C366.67 151.093 366.554 151.661 366.554 152.235C366.554 152.81 366.67 153.378 366.897 153.905C367.123 154.433 367.454 154.91 367.869 155.306C368.285 155.702 368.777 156.009 369.315 156.209C369.853 156.409 370.426 156.498 371 156.47V156.45Z" fill="#1E1E1E"/>
<g clip-path="url(#clip0_1505_11887)">
<path d="M29.2247 4.95398L27.6022 2.50488C16.3694 9.91341 10.1289 18.9139 10.1289 26.3224C10.1289 33.486 15.4957 36.8535 20.0512 36.8535C25.7924 36.8535 29.8487 32.0778 29.8487 27.0571C29.8487 22.8324 27.1029 19.22 23.4211 17.873C22.3602 17.5056 21.3617 17.1995 21.3617 15.4239C21.3617 13.1585 23.0466 9.79095 29.2247 4.95398ZM53.9992 4.95398L52.3767 2.50488C41.2687 9.91341 34.9035 18.9139 34.9035 26.3224C34.9035 33.486 40.3951 36.8535 44.9506 36.8535C50.7542 36.8535 54.8729 32.0778 54.8729 27.0571C54.8729 22.8324 52.0647 19.22 48.258 17.873C47.1972 17.5056 46.2611 17.1995 46.2611 15.4239C46.2611 13.1585 48.0084 9.79095 53.9992 4.95398Z" stroke="#FBA229" stroke-width="2.5" stroke-linecap="round" stroke-linejoin="round"/>
</g>
<line x1="9.5" y1="68.5" x2="154.5" y2="68.5" stroke="#232323" stroke-width="5" stroke-linecap="round"/>
<path d="M46.7455 121.456H37.4335L35.8335 126H32.0255L39.9935 103.728H44.2175L52.1855 126H48.3455L46.7455 121.456ZM45.7215 118.48L42.1055 108.144L38.4575 118.48H45.7215ZM64.546 108.08C65.9327 108.08 67.17 108.368 68.258 108.944C69.3673 109.52 70.2313 110.373 70.85 111.504C71.4687 112.635 71.778 114 71.778 115.6V126H68.162V116.144C68.162 114.565 67.7673 113.36 66.978 112.528C66.1887 111.675 65.1113 111.248 63.746 111.248C62.3807 111.248 61.2927 111.675 60.482 112.528C59.6927 113.36 59.298 114.565 59.298 116.144V126H55.65V108.368H59.298V110.384C59.8953 109.659 60.6527 109.093 61.57 108.688C62.5087 108.283 63.5007 108.08 64.546 108.08ZM86.5998 106.032C85.9384 106.032 85.3838 105.808 84.9358 105.36C84.4878 104.912 84.2638 104.357 84.2638 103.696C84.2638 103.035 84.4878 102.48 84.9358 102.032C85.3838 101.584 85.9384 101.36 86.5998 101.36C87.2398 101.36 87.7838 101.584 88.2318 102.032C88.6798 102.48 88.9038 103.035 88.9038 103.696C88.9038 104.357 88.6798 104.912 88.2318 105.36C87.7838 105.808 87.2398 106.032 86.5998 106.032ZM88.3918 108.368V126H84.7438V108.368H88.3918ZM102.077 108.08C103.464 108.08 104.701 108.368 105.789 108.944C106.899 109.52 107.763 110.373 108.381 111.504C109 112.635 109.309 114 109.309 115.6V126H105.693V116.144C105.693 114.565 105.299 113.36 104.509 112.528C103.72 111.675 102.643 111.248 101.277 111.248C99.9119 111.248 98.8239 111.675 98.0133 112.528C97.2239 113.36 96.8293 114.565 96.8293 116.144V126H93.1813V108.368H96.8293V110.384C97.4266 109.659 98.1839 109.093 99.1013 108.688C100.04 108.283 101.032 108.08 102.077 108.08ZM120.779 122.736L125.771 108.368H129.642L122.923 126H118.571L111.883 108.368H115.786L120.779 122.736ZM148.56 116.752C148.56 117.413 148.517 118.011 148.432 118.544H134.96C135.067 119.952 135.589 121.083 136.528 121.936C137.467 122.789 138.619 123.216 139.984 123.216C141.947 123.216 143.333 122.395 144.144 120.752H148.08C147.547 122.373 146.576 123.707 145.168 124.752C143.781 125.776 142.053 126.288 139.984 126.288C138.299 126.288 136.784 125.915 135.44 125.168C134.117 124.4 133.072 123.333 132.304 121.968C131.557 120.581 131.184 118.981 131.184 117.168C131.184 115.355 131.547 113.765 132.272 112.4C133.019 111.013 134.053 109.947 135.376 109.2C136.72 108.453 138.256 108.08 139.984 108.08C141.648 108.08 143.131 108.443 144.432 109.168C145.733 109.893 146.747 110.917 147.472 112.24C148.197 113.541 148.56 115.045 148.56 116.752ZM144.752 115.6C144.731 114.256 144.251 113.179 143.312 112.368C142.373 111.557 141.211 111.152 139.824 111.152C138.565 111.152 137.488 111.557 136.592 112.368C135.696 113.157 135.163 114.235 134.992 115.6H144.752ZM158.55 126.288C157.163 126.288 155.915 126.043 154.806 125.552C153.718 125.04 152.854 124.357 152.214 123.504C151.574 122.629 151.233 121.659 151.19 120.592H154.966C155.03 121.339 155.382 121.968 156.022 122.48C156.683 122.971 157.505 123.216 158.486 123.216C159.51 123.216 160.299 123.024 160.854 122.64C161.43 122.235 161.718 121.723 161.718 121.104C161.718 120.443 161.398 119.952 160.758 119.632C160.139 119.312 159.147 118.96 157.782 118.576C156.459 118.213 155.382 117.861 154.55 117.52C153.718 117.179 152.993 116.656 152.374 115.952C151.777 115.248 151.478 114.32 151.478 113.168C151.478 112.229 151.755 111.376 152.31 110.608C152.865 109.819 153.654 109.2 154.678 108.752C155.723 108.304 156.918 108.08 158.262 108.08C160.267 108.08 161.878 108.592 163.094 109.616C164.331 110.619 164.993 111.995 165.078 113.744H161.43C161.366 112.955 161.046 112.325 160.47 111.856C159.894 111.387 159.115 111.152 158.134 111.152C157.174 111.152 156.438 111.333 155.926 111.696C155.414 112.059 155.158 112.539 155.158 113.136C155.158 113.605 155.329 114 155.67 114.32C156.011 114.64 156.427 114.896 156.918 115.088C157.409 115.259 158.134 115.483 159.094 115.76C160.374 116.101 161.419 116.453 162.23 116.816C163.062 117.157 163.777 117.669 164.374 118.352C164.971 119.035 165.281 119.941 165.302 121.072C165.302 122.075 165.025 122.971 164.47 123.76C163.915 124.549 163.126 125.168 162.102 125.616C161.099 126.064 159.915 126.288 158.55 126.288ZM173.5 111.344V121.104C173.5 121.765 173.649 122.245 173.948 122.544C174.268 122.821 174.801 122.96 175.548 122.96H177.788V126H174.908C173.265 126 172.006 125.616 171.132 124.848C170.257 124.08 169.82 122.832 169.82 121.104V111.344H167.74V108.368H169.82V103.984H173.5V108.368H177.788V111.344H173.5ZM202.494 108.08C203.881 108.08 205.118 108.368 206.206 108.944C207.315 109.52 208.179 110.373 208.798 111.504C209.438 112.635 209.758 114 209.758 115.6V126H206.142V116.144C206.142 114.565 205.747 113.36 204.958 112.528C204.169 111.675 203.091 111.248 201.726 111.248C200.361 111.248 199.273 111.675 198.462 112.528C197.673 113.36 197.278 114.565 197.278 116.144V126H193.662V116.144C193.662 114.565 193.267 113.36 192.478 112.528C191.689 111.675 190.611 111.248 189.246 111.248C187.881 111.248 186.793 111.675 185.982 112.528C185.193 113.36 184.798 114.565 184.798 116.144V126H181.15V108.368H184.798V110.384C185.395 109.659 186.153 109.093 187.07 108.688C187.987 108.283 188.969 108.08 190.014 108.08C191.422 108.08 192.681 108.379 193.79 108.976C194.899 109.573 195.753 110.437 196.35 111.568C196.883 110.501 197.715 109.659 198.846 109.04C199.977 108.4 201.193 108.08 202.494 108.08ZM230.56 116.752C230.56 117.413 230.517 118.011 230.432 118.544H216.96C217.067 119.952 217.589 121.083 218.528 121.936C219.467 122.789 220.619 123.216 221.984 123.216C223.947 123.216 225.333 122.395 226.144 120.752H230.08C229.547 122.373 228.576 123.707 227.168 124.752C225.781 125.776 224.053 126.288 221.984 126.288C220.299 126.288 218.784 125.915 217.44 125.168C216.117 124.4 215.072 123.333 214.304 121.968C213.557 120.581 213.184 118.981 213.184 117.168C213.184 115.355 213.547 113.765 214.272 112.4C215.019 111.013 216.053 109.947 217.376 109.2C218.72 108.453 220.256 108.08 221.984 108.08C223.648 108.08 225.131 108.443 226.432 109.168C227.733 109.893 228.747 110.917 229.472 112.24C230.197 113.541 230.56 115.045 230.56 116.752ZM226.752 115.6C226.731 114.256 226.251 113.179 225.312 112.368C224.373 111.557 223.211 111.152 221.824 111.152C220.565 111.152 219.488 111.557 218.592 112.368C217.696 113.157 217.163 114.235 216.992 115.6H226.752ZM243.046 108.08C244.433 108.08 245.67 108.368 246.758 108.944C247.867 109.52 248.731 110.373 249.35 111.504C249.969 112.635 250.278 114 250.278 115.6V126H246.662V116.144C246.662 114.565 246.267 113.36 245.478 112.528C244.689 111.675 243.611 111.248 242.246 111.248C240.881 111.248 239.793 111.675 238.982 112.528C238.193 113.36 237.798 114.565 237.798 116.144V126H234.15V108.368H237.798V110.384C238.395 109.659 239.153 109.093 240.07 108.688C241.009 108.283 242.001 108.08 243.046 108.08ZM259.187 111.344V121.104C259.187 121.765 259.337 122.245 259.635 122.544C259.955 122.821 260.489 122.96 261.235 122.96H263.475V126H260.595C258.953 126 257.694 125.616 256.819 124.848C255.945 124.08 255.507 122.832 255.507 121.104V111.344H253.427V108.368H255.507V103.984H259.187V108.368H263.475V111.344H259.187ZM277.006 106.032C276.345 106.032 275.79 105.808 275.342 105.36C274.894 104.912 274.67 104.357 274.67 103.696C274.67 103.035 274.894 102.48 275.342 102.032C275.79 101.584 276.345 101.36 277.006 101.36C277.646 101.36 278.19 101.584 278.638 102.032C279.086 102.48 279.31 103.035 279.31 103.696C279.31 104.357 279.086 104.912 278.638 105.36C278.19 105.808 277.646 106.032 277.006 106.032ZM278.798 108.368V126H275.15V108.368H278.798ZM292.484 108.08C293.87 108.08 295.108 108.368 296.196 108.944C297.305 109.52 298.169 110.373 298.788 111.504C299.406 112.635 299.716 114 299.716 115.6V126H296.1V116.144C296.1 114.565 295.705 113.36 294.916 112.528C294.126 111.675 293.049 111.248 291.684 111.248C290.318 111.248 289.23 111.675 288.42 112.528C287.63 113.36 287.236 114.565 287.236 116.144V126H283.588V108.368H287.236V110.384C287.833 109.659 288.59 109.093 289.508 108.688C290.446 108.283 291.438 108.08 292.484 108.08ZM319.657 117.2L327.785 126H322.857L316.329 118.416V126H312.681V102.32H316.329V116.08L322.729 108.368H327.785L319.657 117.2ZM339.296 108.08C340.683 108.08 341.92 108.368 343.008 108.944C344.117 109.52 344.981 110.373 345.6 111.504C346.219 112.635 346.528 114 346.528 115.6V126H342.912V116.144C342.912 114.565 342.517 113.36 341.728 112.528C340.939 111.675 339.861 111.248 338.496 111.248C337.131 111.248 336.043 111.675 335.232 112.528C334.443 113.36 334.048 114.565 334.048 116.144V126H330.4V108.368H334.048V110.384C334.645 109.659 335.403 109.093 336.32 108.688C337.259 108.283 338.251 108.08 339.296 108.08ZM358.829 126.288C357.165 126.288 355.661 125.915 354.317 125.168C352.973 124.4 351.917 123.333 351.149 121.968C350.381 120.581 349.997 118.981 349.997 117.168C349.997 115.376 350.392 113.787 351.181 112.4C351.971 111.013 353.048 109.947 354.413 109.2C355.779 108.453 357.304 108.08 358.989 108.08C360.675 108.08 362.2 108.453 363.565 109.2C364.931 109.947 366.008 111.013 366.797 112.4C367.587 113.787 367.981 115.376 367.981 117.168C367.981 118.96 367.576 120.549 366.765 121.936C365.955 123.323 364.845 124.4 363.437 125.168C362.051 125.915 360.515 126.288 358.829 126.288ZM358.829 123.12C359.768 123.12 360.643 122.896 361.453 122.448C362.285 122 362.957 121.328 363.469 120.432C363.981 119.536 364.237 118.448 364.237 117.168C364.237 115.888 363.992 114.811 363.501 113.936C363.011 113.04 362.36 112.368 361.549 111.92C360.739 111.472 359.864 111.248 358.925 111.248C357.987 111.248 357.112 111.472 356.301 111.92C355.512 112.368 354.883 113.04 354.413 113.936C353.944 114.811 353.709 115.888 353.709 117.168C353.709 119.067 354.189 120.539 355.149 121.584C356.131 122.608 357.357 123.12 358.829 123.12ZM395.268 108.368L389.796 126H385.956L382.404 112.976L378.852 126H375.012L369.508 108.368H373.22L376.9 122.544L380.644 108.368H384.452L388.036 122.48L391.684 108.368H395.268ZM401.642 102.32V126H397.994V102.32H401.642ZM422.591 116.752C422.591 117.413 422.549 118.011 422.463 118.544H408.991C409.098 119.952 409.621 121.083 410.559 121.936C411.498 122.789 412.65 123.216 414.015 123.216C415.978 123.216 417.365 122.395 418.175 120.752H422.111C421.578 122.373 420.607 123.707 419.199 124.752C417.813 125.776 416.085 126.288 414.015 126.288C412.33 126.288 410.815 125.915 409.471 125.168C408.149 124.4 407.103 123.333 406.335 121.968C405.589 120.581 405.215 118.981 405.215 117.168C405.215 115.355 405.578 113.765 406.303 112.4C407.05 111.013 408.085 109.947 409.407 109.2C410.751 108.453 412.287 108.08 414.015 108.08C415.679 108.08 417.162 108.443 418.463 109.168C419.765 109.893 420.778 110.917 421.503 112.24C422.229 113.541 422.591 115.045 422.591 116.752ZM418.783 115.6C418.762 114.256 418.282 113.179 417.343 112.368C416.405 111.557 415.242 111.152 413.855 111.152C412.597 111.152 411.519 111.557 410.623 112.368C409.727 113.157 409.194 114.235 409.023 115.6H418.783ZM424.965 117.104C424.965 115.333 425.328 113.765 426.053 112.4C426.8 111.035 427.803 109.979 429.061 109.232C430.341 108.464 431.76 108.08 433.317 108.08C434.469 108.08 435.6 108.336 436.709 108.848C437.84 109.339 438.736 110 439.397 110.832V102.32H443.077V126H439.397V123.344C438.8 124.197 437.968 124.901 436.901 125.456C435.856 126.011 434.651 126.288 433.285 126.288C431.749 126.288 430.341 125.904 429.061 125.136C427.803 124.347 426.8 123.259 426.053 121.872C425.328 120.464 424.965 118.875 424.965 117.104ZM439.397 117.168C439.397 115.952 439.141 114.896 438.629 114C438.139 113.104 437.488 112.421 436.677 111.952C435.867 111.483 434.992 111.248 434.053 111.248C433.115 111.248 432.24 111.483 431.429 111.952C430.619 112.4 429.957 113.072 429.445 113.968C428.955 114.843 428.709 115.888 428.709 117.104C428.709 118.32 428.955 119.387 429.445 120.304C429.957 121.221 430.619 121.925 431.429 122.416C432.261 122.885 433.136 123.12 434.053 123.12C434.992 123.12 435.867 122.885 436.677 122.416C437.488 121.947 438.139 121.264 438.629 120.368C439.141 119.451 439.397 118.384 439.397 117.168ZM454.973 108.08C456.338 108.08 457.543 108.357 458.589 108.912C459.655 109.445 460.487 110.117 461.085 110.928V108.368H464.765V126.288C464.765 127.909 464.423 129.349 463.741 130.608C463.058 131.888 462.066 132.891 460.765 133.616C459.485 134.341 457.949 134.704 456.157 134.704C453.767 134.704 451.783 134.139 450.205 133.008C448.626 131.899 447.73 130.384 447.517 128.464H451.133C451.41 129.381 451.997 130.117 452.893 130.672C453.81 131.248 454.898 131.536 456.157 131.536C457.629 131.536 458.813 131.088 459.709 130.192C460.626 129.296 461.085 127.995 461.085 126.288V123.344C460.466 124.176 459.623 124.88 458.557 125.456C457.511 126.011 456.317 126.288 454.973 126.288C453.437 126.288 452.029 125.904 450.749 125.136C449.49 124.347 448.487 123.259 447.741 121.872C447.015 120.464 446.653 118.875 446.653 117.104C446.653 115.333 447.015 113.765 447.741 112.4C448.487 111.035 449.49 109.979 450.749 109.232C452.029 108.464 453.437 108.08 454.973 108.08ZM461.085 117.168C461.085 115.952 460.829 114.896 460.317 114C459.826 113.104 459.175 112.421 458.365 111.952C457.554 111.483 456.679 111.248 455.741 111.248C454.802 111.248 453.927 111.483 453.117 111.952C452.306 112.4 451.645 113.072 451.133 113.968C450.642 114.843 450.397 115.888 450.397 117.104C450.397 118.32 450.642 119.387 451.133 120.304C451.645 121.221 452.306 121.925 453.117 122.416C453.949 122.885 454.823 123.12 455.741 123.12C456.679 123.12 457.554 122.885 458.365 122.416C459.175 121.947 459.826 121.264 460.317 120.368C460.829 119.451 461.085 118.384 461.085 117.168ZM485.716 116.752C485.716 117.413 485.674 118.011 485.588 118.544H472.116C472.223 119.952 472.746 121.083 473.684 121.936C474.623 122.789 475.775 123.216 477.14 123.216C479.103 123.216 480.49 122.395 481.3 120.752H485.236C484.703 122.373 483.732 123.707 482.324 124.752C480.938 125.776 479.21 126.288 477.14 126.288C475.455 126.288 473.94 125.915 472.596 125.168C471.274 124.4 470.228 123.333 469.46 121.968C468.714 120.581 468.34 118.981 468.34 117.168C468.34 115.355 468.703 113.765 469.428 112.4C470.175 111.013 471.21 109.947 472.532 109.2C473.876 108.453 475.412 108.08 477.14 108.08C478.804 108.08 480.287 108.443 481.588 109.168C482.89 109.893 483.903 110.917 484.628 112.24C485.354 113.541 485.716 115.045 485.716 116.752ZM481.908 115.6C481.887 114.256 481.407 113.179 480.468 112.368C479.53 111.557 478.367 111.152 476.98 111.152C475.722 111.152 474.644 111.557 473.748 112.368C472.852 113.157 472.319 114.235 472.148 115.6H481.908ZM12.048 151.96C12.6667 151.149 13.5093 150.467 14.576 149.912C15.6427 149.357 16.848 149.08 18.192 149.08C19.728 149.08 21.1253 149.464 22.384 150.232C23.664 150.979 24.6667 152.035 25.392 153.4C26.1173 154.765 26.48 156.333 26.48 158.104C26.48 159.875 26.1173 161.464 25.392 162.872C24.6667 164.259 23.664 165.347 22.384 166.136C21.1253 166.904 19.728 167.288 18.192 167.288C16.848 167.288 15.6533 167.021 14.608 166.488C13.5627 165.933 12.7093 165.251 12.048 164.44V175.384H8.4V149.368H12.048V151.96ZM22.768 158.104C22.768 156.888 22.512 155.843 22 154.968C21.5093 154.072 20.848 153.4 20.016 152.952C19.2053 152.483 18.3307 152.248 17.392 152.248C16.4747 152.248 15.6 152.483 14.768 152.952C13.9573 153.421 13.296 154.104 12.784 155C12.2933 155.896 12.048 156.952 12.048 158.168C12.048 159.384 12.2933 160.451 12.784 161.368C13.296 162.264 13.9573 162.947 14.768 163.416C15.6 163.885 16.4747 164.12 17.392 164.12C18.3307 164.12 19.2053 163.885 20.016 163.416C20.848 162.925 21.5093 162.221 22 161.304C22.512 160.387 22.768 159.32 22.768 158.104ZM28.8715 158.104C28.8715 156.333 29.2342 154.765 29.9595 153.4C30.7062 152.035 31.7088 150.979 32.9675 150.232C34.2475 149.464 35.6555 149.08 37.1915 149.08C38.5782 149.08 39.7835 149.357 40.8075 149.912C41.8528 150.445 42.6848 151.117 43.3035 151.928V149.368H46.9835V167H43.3035V164.376C42.6848 165.208 41.8422 165.901 40.7755 166.456C39.7088 167.011 38.4928 167.288 37.1275 167.288C35.6128 167.288 34.2262 166.904 32.9675 166.136C31.7088 165.347 30.7062 164.259 29.9595 162.872C29.2342 161.464 28.8715 159.875 28.8715 158.104ZM43.3035 158.168C43.3035 156.952 43.0475 155.896 42.5355 155C42.0448 154.104 41.3942 153.421 40.5835 152.952C39.7728 152.483 38.8982 152.248 37.9595 152.248C37.0208 152.248 36.1462 152.483 35.3355 152.952C34.5248 153.4 33.8635 154.072 33.3515 154.968C32.8608 155.843 32.6155 156.888 32.6155 158.104C32.6155 159.32 32.8608 160.387 33.3515 161.304C33.8635 162.221 34.5248 162.925 35.3355 163.416C36.1675 163.885 37.0422 164.12 37.9595 164.12C38.8982 164.12 39.7728 163.885 40.5835 163.416C41.3942 162.947 42.0448 162.264 42.5355 161.368C43.0475 160.451 43.3035 159.384 43.3035 158.168ZM67.647 149.368L56.831 175.288H53.055L56.639 166.712L49.695 149.368H53.759L58.719 162.808L63.871 149.368H67.647ZM76.8 167.288C75.4133 167.288 74.1653 167.043 73.056 166.552C71.968 166.04 71.104 165.357 70.464 164.504C69.824 163.629 69.4827 162.659 69.44 161.592H73.216C73.28 162.339 73.632 162.968 74.272 163.48C74.9333 163.971 75.7547 164.216 76.736 164.216C77.76 164.216 78.5493 164.024 79.104 163.64C79.68 163.235 79.968 162.723 79.968 162.104C79.968 161.443 79.648 160.952 79.008 160.632C78.3893 160.312 77.3973 159.96 76.032 159.576C74.7093 159.213 73.632 158.861 72.8 158.52C71.968 158.179 71.2427 157.656 70.624 156.952C70.0267 156.248 69.728 155.32 69.728 154.168C69.728 153.229 70.0053 152.376 70.56 151.608C71.1147 150.819 71.904 150.2 72.928 149.752C73.9733 149.304 75.168 149.08 76.512 149.08C78.5173 149.08 80.128 149.592 81.344 150.616C82.5813 151.619 83.2427 152.995 83.328 154.744H79.68C79.616 153.955 79.296 153.325 78.72 152.856C78.144 152.387 77.3653 152.152 76.384 152.152C75.424 152.152 74.688 152.333 74.176 152.696C73.664 153.059 73.408 153.539 73.408 154.136C73.408 154.605 73.5787 155 73.92 155.32C74.2613 155.64 74.6773 155.896 75.168 156.088C75.6587 156.259 76.384 156.483 77.344 156.76C78.624 157.101 79.6693 157.453 80.48 157.816C81.312 158.157 82.0267 158.669 82.624 159.352C83.2213 160.035 83.5307 160.941 83.552 162.072C83.552 163.075 83.2747 163.971 82.72 164.76C82.1653 165.549 81.376 166.168 80.352 166.616C79.3493 167.064 78.1653 167.288 76.8 167.288ZM100.062 152.344V162.104C100.062 162.765 100.212 163.245 100.51 163.544C100.83 163.821 101.364 163.96 102.11 163.96H104.35V167H101.47C99.8276 167 98.5689 166.616 97.6943 165.848C96.8196 165.08 96.3823 163.832 96.3823 162.104V152.344H94.3023V149.368H96.3823V144.984H100.062V149.368H104.35V152.344H100.062ZM116.833 149.08C118.177 149.08 119.371 149.368 120.417 149.944C121.483 150.52 122.315 151.373 122.913 152.504C123.531 153.635 123.841 155 123.841 156.6V167H120.225V157.144C120.225 155.565 119.83 154.36 119.041 153.528C118.251 152.675 117.174 152.248 115.809 152.248C114.443 152.248 113.355 152.675 112.545 153.528C111.755 154.36 111.361 155.565 111.361 157.144V167H107.713V143.32H111.361V151.416C111.979 150.669 112.758 150.093 113.697 149.688C114.657 149.283 115.702 149.08 116.833 149.08ZM144.654 157.752C144.654 158.413 144.611 159.011 144.526 159.544H131.054C131.16 160.952 131.683 162.083 132.622 162.936C133.56 163.789 134.712 164.216 136.078 164.216C138.04 164.216 139.427 163.395 140.238 161.752H144.174C143.64 163.373 142.67 164.707 141.262 165.752C139.875 166.776 138.147 167.288 136.078 167.288C134.392 167.288 132.878 166.915 131.534 166.168C130.211 165.4 129.166 164.333 128.398 162.968C127.651 161.581 127.278 159.981 127.278 158.168C127.278 156.355 127.64 154.765 128.366 153.4C129.112 152.013 130.147 150.947 131.47 150.2C132.814 149.453 134.35 149.08 136.078 149.08C137.742 149.08 139.224 149.443 140.526 150.168C141.827 150.893 142.84 151.917 143.566 153.24C144.291 154.541 144.654 156.045 144.654 157.752ZM140.846 156.6C140.824 155.256 140.344 154.179 139.406 153.368C138.467 152.557 137.304 152.152 135.918 152.152C134.659 152.152 133.582 152.557 132.686 153.368C131.79 154.157 131.256 155.235 131.086 156.6H140.846ZM160.204 151.992C160.823 151.139 161.666 150.445 162.732 149.912C163.82 149.357 165.026 149.08 166.348 149.08C167.906 149.08 169.314 149.453 170.572 150.2C171.831 150.947 172.823 152.013 173.548 153.4C174.274 154.765 174.636 156.333 174.636 158.104C174.636 159.875 174.274 161.464 173.548 162.872C172.823 164.259 171.82 165.347 170.54 166.136C169.282 166.904 167.884 167.288 166.348 167.288C164.983 167.288 163.767 167.021 162.7 166.488C161.655 165.955 160.823 165.272 160.204 164.44V167H156.556V143.32H160.204V151.992ZM170.924 158.104C170.924 156.888 170.668 155.843 170.156 154.968C169.666 154.072 169.004 153.4 168.172 152.952C167.362 152.483 166.487 152.248 165.548 152.248C164.631 152.248 163.756 152.483 162.924 152.952C162.114 153.421 161.452 154.104 160.94 155C160.45 155.896 160.204 156.952 160.204 158.168C160.204 159.384 160.45 160.451 160.94 161.368C161.452 162.264 162.114 162.947 162.924 163.416C163.756 163.885 164.631 164.12 165.548 164.12C166.487 164.12 167.362 163.885 168.172 163.416C169.004 162.925 169.666 162.221 170.156 161.304C170.668 160.387 170.924 159.32 170.924 158.104ZM194.404 157.752C194.404 158.413 194.361 159.011 194.276 159.544H180.804C180.91 160.952 181.433 162.083 182.372 162.936C183.31 163.789 184.462 164.216 185.828 164.216C187.79 164.216 189.177 163.395 189.988 161.752H193.924C193.39 163.373 192.42 164.707 191.012 165.752C189.625 166.776 187.897 167.288 185.828 167.288C184.142 167.288 182.628 166.915 181.284 166.168C179.961 165.4 178.916 164.333 178.148 162.968C177.401 161.581 177.028 159.981 177.028 158.168C177.028 156.355 177.39 154.765 178.116 153.4C178.862 152.013 179.897 150.947 181.22 150.2C182.564 149.453 184.1 149.08 185.828 149.08C187.492 149.08 188.974 149.443 190.276 150.168C191.577 150.893 192.59 151.917 193.316 153.24C194.041 154.541 194.404 156.045 194.404 157.752ZM190.596 156.6C190.574 155.256 190.094 154.179 189.156 153.368C188.217 152.557 187.054 152.152 185.668 152.152C184.409 152.152 183.332 152.557 182.436 153.368C181.54 154.157 181.006 155.235 180.836 156.6H190.596ZM204.394 167.288C203.007 167.288 201.759 167.043 200.65 166.552C199.562 166.04 198.698 165.357 198.058 164.504C197.418 163.629 197.076 162.659 197.034 161.592H200.81C200.874 162.339 201.226 162.968 201.866 163.48C202.527 163.971 203.348 164.216 204.33 164.216C205.354 164.216 206.143 164.024 206.698 163.64C207.274 163.235 207.562 162.723 207.562 162.104C207.562 161.443 207.242 160.952 206.602 160.632C205.983 160.312 204.991 159.96 203.626 159.576C202.303 159.213 201.226 158.861 200.394 158.52C199.562 158.179 198.836 157.656 198.218 156.952C197.62 156.248 197.322 155.32 197.322 154.168C197.322 153.229 197.599 152.376 198.154 151.608C198.708 150.819 199.498 150.2 200.522 149.752C201.567 149.304 202.762 149.08 204.106 149.08C206.111 149.08 207.722 149.592 208.938 150.616C210.175 151.619 210.836 152.995 210.922 154.744H207.274C207.21 153.955 206.89 153.325 206.314 152.856C205.738 152.387 204.959 152.152 203.978 152.152C203.018 152.152 202.282 152.333 201.77 152.696C201.258 153.059 201.002 153.539 201.002 154.136C201.002 154.605 201.172 155 201.514 155.32C201.855 155.64 202.271 155.896 202.762 156.088C203.252 156.259 203.978 156.483 204.938 156.76C206.218 157.101 207.263 157.453 208.074 157.816C208.906 158.157 209.62 158.669 210.218 159.352C210.815 160.035 211.124 160.941 211.146 162.072C211.146 163.075 210.868 163.971 210.314 164.76C209.759 165.549 208.97 166.168 207.946 166.616C206.943 167.064 205.759 167.288 204.394 167.288ZM219.344 152.344V162.104C219.344 162.765 219.493 163.245 219.792 163.544C220.112 163.821 220.645 163.96 221.392 163.96H223.632V167H220.752C219.109 167 217.85 166.616 216.976 165.848C216.101 165.08 215.664 163.832 215.664 162.104V152.344H213.584V149.368H215.664V144.984H219.344V149.368H223.632V152.344H219.344ZM237.162 147.032C236.501 147.032 235.946 146.808 235.498 146.36C235.05 145.912 234.826 145.357 234.826 144.696C234.826 144.035 235.05 143.48 235.498 143.032C235.946 142.584 236.501 142.36 237.162 142.36C237.802 142.36 238.346 142.584 238.794 143.032C239.242 143.48 239.466 144.035 239.466 144.696C239.466 145.357 239.242 145.912 238.794 146.36C238.346 146.808 237.802 147.032 237.162 147.032ZM238.954 149.368V167H235.306V149.368H238.954ZM252.64 149.08C254.026 149.08 255.264 149.368 256.352 149.944C257.461 150.52 258.325 151.373 258.944 152.504C259.562 153.635 259.872 155 259.872 156.6V167H256.256V157.144C256.256 155.565 255.861 154.36 255.072 153.528C254.282 152.675 253.205 152.248 251.84 152.248C250.474 152.248 249.386 152.675 248.576 153.528C247.786 154.36 247.392 155.565 247.392 157.144V167H243.744V149.368H247.392V151.384C247.989 150.659 248.746 150.093 249.664 149.688C250.602 149.283 251.594 149.08 252.64 149.08ZM268.781 152.344V162.104C268.781 162.765 268.93 163.245 269.229 163.544C269.549 163.821 270.082 163.96 270.829 163.96H273.069V167H270.189C268.546 167 267.288 166.616 266.413 165.848C265.538 165.08 265.101 163.832 265.101 162.104V152.344H263.021V149.368H265.101V144.984H268.781V149.368H273.069V152.344H268.781ZM292.591 157.752C292.591 158.413 292.549 159.011 292.463 159.544H278.991C279.098 160.952 279.621 162.083 280.559 162.936C281.498 163.789 282.65 164.216 284.015 164.216C285.978 164.216 287.365 163.395 288.175 161.752H292.111C291.578 163.373 290.607 164.707 289.199 165.752C287.813 166.776 286.085 167.288 284.015 167.288C282.33 167.288 280.815 166.915 279.471 166.168C278.149 165.4 277.103 164.333 276.335 162.968C275.589 161.581 275.215 159.981 275.215 158.168C275.215 156.355 275.578 154.765 276.303 153.4C277.05 152.013 278.085 150.947 279.407 150.2C280.751 149.453 282.287 149.08 284.015 149.08C285.679 149.08 287.162 149.443 288.463 150.168C289.765 150.893 290.778 151.917 291.503 153.24C292.229 154.541 292.591 156.045 292.591 157.752ZM288.783 156.6C288.762 155.256 288.282 154.179 287.343 153.368C286.405 152.557 285.242 152.152 283.855 152.152C282.597 152.152 281.519 152.557 280.623 153.368C279.727 154.157 279.194 155.235 279.023 156.6H288.783ZM299.829 151.928C300.363 151.032 301.067 150.339 301.941 149.848C302.837 149.336 303.893 149.08 305.109 149.08V152.856H304.181C302.752 152.856 301.664 153.219 300.917 153.944C300.192 154.669 299.829 155.928 299.829 157.72V167H296.181V149.368H299.829V151.928ZM324.623 157.752C324.623 158.413 324.58 159.011 324.495 159.544H311.023C311.129 160.952 311.652 162.083 312.591 162.936C313.529 163.789 314.681 164.216 316.047 164.216C318.009 164.216 319.396 163.395 320.207 161.752H324.142C323.609 163.373 322.639 164.707 321.231 165.752C319.844 166.776 318.116 167.288 316.047 167.288C314.361 167.288 312.847 166.915 311.503 166.168C310.18 165.4 309.135 164.333 308.367 162.968C307.62 161.581 307.247 159.981 307.247 158.168C307.247 156.355 307.609 154.765 308.335 153.4C309.081 152.013 310.116 150.947 311.439 150.2C312.783 149.453 314.319 149.08 316.047 149.08C317.711 149.08 319.193 149.443 320.495 150.168C321.796 150.893 322.809 151.917 323.535 153.24C324.26 154.541 324.623 156.045 324.623 157.752ZM320.815 156.6C320.793 155.256 320.313 154.179 319.375 153.368C318.436 152.557 317.273 152.152 315.887 152.152C314.628 152.152 313.551 152.557 312.655 153.368C311.759 154.157 311.225 155.235 311.055 156.6H320.815ZM334.613 167.288C333.226 167.288 331.978 167.043 330.869 166.552C329.781 166.04 328.917 165.357 328.277 164.504C327.637 163.629 327.295 162.659 327.253 161.592H331.029C331.093 162.339 331.445 162.968 332.085 163.48C332.746 163.971 333.567 164.216 334.549 164.216C335.573 164.216 336.362 164.024 336.917 163.64C337.493 163.235 337.781 162.723 337.781 162.104C337.781 161.443 337.461 160.952 336.821 160.632C336.202 160.312 335.21 159.96 333.845 159.576C332.522 159.213 331.445 158.861 330.613 158.52C329.781 158.179 329.055 157.656 328.437 156.952C327.839 156.248 327.541 155.32 327.541 154.168C327.541 153.229 327.818 152.376 328.373 151.608C328.927 150.819 329.717 150.2 330.741 149.752C331.786 149.304 332.981 149.08 334.325 149.08C336.33 149.08 337.941 149.592 339.157 150.616C340.394 151.619 341.055 152.995 341.141 154.744H337.493C337.429 153.955 337.109 153.325 336.533 152.856C335.957 152.387 335.178 152.152 334.197 152.152C333.237 152.152 332.501 152.333 331.989 152.696C331.477 153.059 331.221 153.539 331.221 154.136C331.221 154.605 331.391 155 331.733 155.32C332.074 155.64 332.49 155.896 332.981 156.088C333.471 156.259 334.197 156.483 335.157 156.76C336.437 157.101 337.482 157.453 338.293 157.816C339.125 158.157 339.839 158.669 340.437 159.352C341.034 160.035 341.343 160.941 341.365 162.072C341.365 163.075 341.087 163.971 340.533 164.76C339.978 165.549 339.189 166.168 338.165 166.616C337.162 167.064 335.978 167.288 334.613 167.288ZM349.562 152.344V162.104C349.562 162.765 349.712 163.245 350.01 163.544C350.33 163.821 350.864 163.96 351.61 163.96H353.85V167H350.97C349.328 167 348.069 166.616 347.194 165.848C346.32 165.08 345.882 163.832 345.882 162.104V152.344H343.802V149.368H345.882V144.984H349.562V149.368H353.85V152.344H349.562ZM358.685 167.224C358.023 167.224 357.469 167 357.021 166.552C356.573 166.104 356.349 165.549 356.349 164.888C356.349 164.227 356.573 163.672 357.021 163.224C357.469 162.776 358.023 162.552 358.685 162.552C359.325 162.552 359.869 162.776 360.317 163.224C360.765 163.672 360.989 164.227 360.989 164.888C360.989 165.549 360.765 166.104 360.317 166.552C359.869 167 359.325 167.224 358.685 167.224Z" fill="#1E1E1E"/>
<path d="M11.8597 111.55C11.12 111.553 10.3933 111.746 9.74969 112.11C10.6558 109.765 12.1587 107.697 14.1097 106.11C14.2213 106.018 14.3137 105.905 14.3817 105.778C14.4496 105.65 14.4918 105.51 14.5057 105.366C14.5196 105.222 14.5051 105.077 14.4629 104.939C14.4207 104.801 14.3516 104.672 14.2597 104.56C14.1678 104.449 14.0548 104.356 13.9271 104.288C13.7995 104.22 13.6597 104.178 13.5158 104.164C13.3718 104.15 13.2266 104.165 13.0883 104.207C12.9499 104.249 12.8213 104.318 12.7097 104.41C8.70969 107.66 6.92969 112.16 6.92969 114.95C6.93658 115.937 7.23056 116.9 7.77573 117.722C8.3209 118.544 9.09367 119.19 9.99969 119.58C10.586 119.864 11.2282 120.015 11.8797 120.02C12.4531 120.048 13.0263 119.959 13.5644 119.759C14.1025 119.559 14.5943 119.251 15.01 118.855C15.4257 118.459 15.7567 117.983 15.9828 117.455C16.2089 116.928 16.3255 116.359 16.3255 115.785C16.3255 115.211 16.2089 114.643 15.9828 114.115C15.7567 113.588 15.4257 113.111 15.01 112.715C14.5943 112.319 14.1025 112.012 13.5644 111.812C13.0263 111.611 12.4531 111.522 11.8797 111.55H11.8597Z" fill="#1E1E1E"/>
<path d="M23.0003 111.55C22.2605 111.551 21.5336 111.744 20.8903 112.11C21.7961 109.766 23.2951 107.699 25.2403 106.11C25.3621 106.022 25.4646 105.91 25.5415 105.781C25.6185 105.652 25.6682 105.509 25.6878 105.36C25.7073 105.211 25.6961 105.06 25.655 104.916C25.6139 104.771 25.5437 104.637 25.4487 104.521C25.3537 104.405 25.2359 104.309 25.1026 104.24C24.9693 104.171 24.8233 104.13 24.6736 104.12C24.5238 104.109 24.3736 104.13 24.232 104.18C24.0904 104.229 23.9605 104.308 23.8503 104.41C19.8503 107.66 18.0703 112.16 18.0703 114.95C18.0751 115.925 18.3605 116.878 18.8924 117.696C19.4244 118.513 20.1805 119.16 21.0703 119.56C21.6715 119.852 22.3318 120.002 23.0003 120C23.5738 120.027 24.1469 119.939 24.685 119.738C25.2231 119.538 25.7149 119.231 26.1306 118.835C26.5463 118.439 26.8773 117.962 27.1034 117.435C27.3296 116.907 27.4462 116.339 27.4462 115.765C27.4462 115.19 27.3296 114.622 27.1034 114.095C26.8773 113.567 26.5463 113.09 26.1306 112.694C25.7149 112.298 25.2231 111.991 24.685 111.791C24.1469 111.591 23.5738 111.502 23.0003 111.53V111.55Z" fill="#1E1E1E"/>
<path d="M8.99121 228.361C8.69499 228.065 8.70638 227.78 9.02539 227.507C9.36719 227.233 9.89128 226.983 10.5977 226.755C11.3268 226.527 12.1927 226.333 13.1953 226.174C14.1979 226.014 15.2347 225.889 16.3057 225.798C17.3766 225.707 18.4134 225.673 19.416 225.695C20.4414 225.695 21.3301 225.764 22.082 225.9C22.8568 226.037 23.4264 226.242 23.791 226.516C24.1784 226.789 24.2695 227.142 24.0645 227.575C23.8138 227.575 23.3923 227.598 22.7998 227.644C22.2301 227.666 21.6149 227.701 20.9541 227.746C20.2933 227.792 19.6667 227.837 19.0742 227.883C18.4818 227.906 18.0716 227.928 17.8438 227.951C17.2741 227.997 16.5791 228.133 15.7588 228.361C14.9385 228.566 14.0954 228.749 13.2295 228.908C12.3864 229.045 11.5775 229.102 10.8027 229.079C10.028 229.056 9.42415 228.817 8.99121 228.361ZM26.0127 237.624C25.6481 237.373 25.5 236.997 25.5684 236.496C25.6367 235.995 25.7962 235.482 26.0469 234.958C26.2975 234.366 26.6621 233.716 27.1406 233.01C27.8698 231.62 28.5192 230.378 29.0889 229.284C29.6813 228.168 30.2282 227.119 30.7295 226.14C31.2308 225.16 31.7093 224.214 32.165 223.303C32.6208 222.391 33.0765 221.434 33.5322 220.432C34.0107 219.429 34.5007 218.358 35.002 217.219C35.5033 216.079 36.0615 214.781 36.6768 213.322C36.7223 213.231 36.7907 213.106 36.8818 212.946C36.9958 212.764 37.1211 212.627 37.2578 212.536C37.4173 212.422 37.5768 212.388 37.7363 212.434C37.8958 212.456 38.0553 212.616 38.2148 212.912C38.4427 213.368 38.4541 213.994 38.249 214.792C38.0667 215.59 37.7363 216.512 37.2578 217.561C36.7793 218.586 36.2096 219.702 35.5488 220.91C34.888 222.095 34.193 223.303 33.4639 224.533C32.7347 225.764 32.0169 226.983 31.3105 228.19C30.6042 229.398 29.9775 230.526 29.4307 231.574C28.9066 232.622 28.4964 233.579 28.2002 234.445C27.9268 235.288 27.8356 235.961 27.9268 236.462C29.5446 236.621 31.1738 236.61 32.8145 236.428C34.4551 236.245 36.0957 236.029 37.7363 235.778C39.377 235.505 41.0176 235.266 42.6582 235.061C44.3216 234.855 45.9736 234.81 47.6143 234.924C47.9105 234.878 48.1611 234.981 48.3662 235.231C48.5713 235.482 48.5827 235.756 48.4004 236.052C48.3548 236.052 48.2523 236.052 48.0928 236.052C47.9561 236.029 47.8079 236.018 47.6484 236.018C47.4889 236.018 47.3294 236.029 47.1699 236.052C47.0332 236.052 46.9307 236.052 46.8623 236.052C45.5863 236.166 44.0938 236.371 42.3848 236.667C40.6758 236.94 38.9098 237.202 37.0869 237.453C35.264 237.704 33.4411 237.897 31.6182 238.034C29.818 238.171 28.1888 238.16 26.7305 238C26.7077 238 26.5938 237.954 26.3887 237.863C26.2064 237.749 26.0811 237.67 26.0127 237.624ZM51.8867 237.624C51.2031 237.396 50.679 237.054 50.3145 236.599C49.9727 236.12 49.7448 235.596 49.6309 235.026C49.5169 234.457 49.4941 233.864 49.5625 233.249C49.6536 232.611 49.7904 232.007 49.9727 231.438C50.6562 230.708 51.4196 229.877 52.2627 228.942C53.1286 227.985 54.04 227.051 54.9971 226.14C55.9541 225.228 56.9453 224.385 57.9707 223.61C59.0189 222.813 60.0785 222.209 61.1494 221.799C61.514 221.639 61.7988 221.651 62.0039 221.833C62.2318 221.993 62.3913 222.255 62.4824 222.619C62.5736 222.984 62.6077 223.405 62.585 223.884C62.585 224.362 62.5508 224.829 62.4824 225.285C62.4141 225.741 62.3229 226.151 62.209 226.516C62.0951 226.88 61.9811 227.131 61.8672 227.268C61.5938 227.587 61.0583 227.963 60.2607 228.396C59.486 228.828 58.6201 229.307 57.6631 229.831C56.7061 230.332 55.749 230.856 54.792 231.403C53.835 231.95 53.0488 232.497 52.4336 233.044C51.8184 233.568 51.4538 234.092 51.3398 234.616C51.2259 235.14 51.5449 235.619 52.2969 236.052C53.0716 236.143 54.0059 236.109 55.0996 235.949C56.2161 235.767 57.3441 235.539 58.4834 235.266C59.6455 234.969 60.762 234.673 61.833 234.377C62.904 234.058 63.7812 233.807 64.4648 233.625L64.875 234.001C64.3737 234.662 63.5534 235.266 62.4141 235.812C61.2747 236.359 60.0443 236.815 58.7227 237.18C57.401 237.521 56.1136 237.749 54.8604 237.863C53.6071 237.954 52.6159 237.875 51.8867 237.624ZM60.0557 224.567C60.0329 224.545 59.862 224.647 59.543 224.875C59.224 225.08 58.8252 225.365 58.3467 225.729C57.891 226.071 57.3896 226.459 56.8428 226.892C56.3187 227.302 55.8288 227.689 55.373 228.054C54.9401 228.418 54.5755 228.737 54.2793 229.011C53.9831 229.261 53.8577 229.387 53.9033 229.387C54.2679 229.455 54.735 229.41 55.3047 229.25C55.8971 229.068 56.501 228.817 57.1162 228.498C57.7542 228.179 58.3581 227.826 58.9277 227.438C59.4974 227.028 59.9417 226.63 60.2607 226.242C60.6025 225.855 60.7734 225.513 60.7734 225.217C60.7962 224.921 60.557 224.704 60.0557 224.567ZM65.7979 237.214C65.251 236.758 64.9434 236.086 64.875 235.197C64.8294 234.309 64.9548 233.306 65.251 232.189C65.57 231.073 66.0257 229.911 66.6182 228.703C67.2334 227.473 67.9398 226.311 68.7373 225.217C69.5348 224.1 70.4007 223.109 71.335 222.243C72.2692 221.354 73.2035 220.705 74.1377 220.295C75.0719 219.862 75.9834 219.714 76.8721 219.851C77.7607 219.965 78.5697 220.477 79.2988 221.389C79.7546 221.958 80.028 222.539 80.1191 223.132C80.2103 223.701 80.1989 224.294 80.085 224.909C79.971 225.502 79.7887 226.117 79.5381 226.755C79.2874 227.37 79.0368 227.997 78.7861 228.635C78.5583 229.273 78.3646 229.922 78.2051 230.583C78.0684 231.244 78.0456 231.916 78.1367 232.6C78.2507 233.465 78.638 233.978 79.2988 234.138C79.9596 234.297 80.7458 234.252 81.6572 234.001C82.5915 233.75 83.5713 233.352 84.5967 232.805C85.6221 232.258 86.5677 231.711 87.4336 231.164C88.3223 230.617 89.0514 230.139 89.6211 229.729C90.2135 229.318 90.5098 229.113 90.5098 229.113C91.1478 228.977 91.501 229.022 91.5693 229.25C91.6605 229.455 91.5352 229.774 91.1934 230.207C90.8743 230.617 90.3844 231.096 89.7236 231.643C89.0628 232.167 88.3109 232.679 87.4678 233.181C86.6247 233.682 85.7246 234.138 84.7676 234.548C83.8105 234.958 82.8763 235.243 81.9648 235.402C81.0534 235.539 80.1875 235.528 79.3672 235.368C78.5697 235.186 77.9089 234.776 77.3848 234.138C77.1341 233.864 76.9404 233.591 76.8037 233.317C76.6898 233.044 76.4961 232.805 76.2227 232.6C75.8809 232.919 75.4707 233.34 74.9922 233.864C74.5137 234.366 73.9896 234.878 73.4199 235.402C72.873 235.904 72.2806 236.382 71.6426 236.838C71.0273 237.294 70.3893 237.635 69.7285 237.863C69.0677 238.091 68.3955 238.171 67.7119 238.103C67.0511 238.034 66.4131 237.738 65.7979 237.214ZM66.1738 236.052C66.3789 236.781 66.8346 237.123 67.541 237.077C68.2474 237.009 69.0677 236.656 70.002 236.018C70.9362 235.38 71.9046 234.514 72.9072 233.42C73.9098 232.303 74.8099 231.073 75.6074 229.729C76.4049 228.361 77.0088 226.926 77.4189 225.422C77.8519 223.918 77.9658 222.437 77.7607 220.979C77.2139 220.546 76.5303 220.534 75.71 220.944C74.8896 221.332 74.0124 221.981 73.0781 222.893C72.1667 223.781 71.2552 224.852 70.3438 226.105C69.4551 227.336 68.6689 228.589 67.9854 229.865C67.3018 231.118 66.7777 232.303 66.4131 233.42C66.0713 234.536 65.9915 235.414 66.1738 236.052ZM88.835 237.624C88.7894 237.601 88.7894 237.339 88.835 236.838C88.9033 236.314 88.9945 235.664 89.1084 234.89C89.2223 234.115 89.3704 233.26 89.5527 232.326C89.735 231.392 89.9287 230.503 90.1338 229.66C90.3389 228.794 90.5553 228.042 90.7832 227.404C91.0339 226.743 91.2731 226.288 91.501 226.037C91.6605 225.878 91.82 225.878 91.9795 226.037C92.139 226.174 92.2985 226.356 92.458 226.584C92.6175 226.789 92.777 226.983 92.9365 227.165C93.096 227.325 93.2669 227.336 93.4492 227.199C94.0872 226.311 94.7822 225.467 95.5342 224.67C96.3089 223.85 97.1634 223.143 98.0977 222.551C98.1888 222.482 98.4395 222.38 98.8496 222.243C99.2598 222.084 99.7269 221.936 100.251 221.799C100.775 221.639 101.311 221.514 101.857 221.423C102.427 221.309 102.906 221.263 103.293 221.286C103.703 221.286 103.977 221.389 104.113 221.594C104.273 221.776 104.204 222.095 103.908 222.551C102.541 222.574 101.265 222.972 100.08 223.747C98.8952 224.522 97.8014 225.479 96.7988 226.618C95.7962 227.757 94.8848 228.999 94.0645 230.344C93.2441 231.665 92.5264 232.896 91.9111 234.035C91.3187 235.174 90.8174 236.12 90.4072 236.872C90.0199 237.624 89.735 238 89.5527 238C89.5299 238 89.4274 237.954 89.2451 237.863C89.0628 237.749 88.9261 237.67 88.835 237.624ZM117.785 237.624C117.717 236.872 117.774 236.132 117.956 235.402C118.161 234.65 118.423 233.921 118.742 233.215C119.084 232.486 119.437 231.768 119.802 231.062C120.189 230.332 120.52 229.626 120.793 228.942C121.066 228.236 121.26 227.552 121.374 226.892C121.488 226.208 121.442 225.536 121.237 224.875C120.668 224.67 120.007 224.715 119.255 225.012C118.526 225.308 117.751 225.764 116.931 226.379C116.11 226.971 115.256 227.678 114.367 228.498C113.501 229.296 112.647 230.116 111.804 230.959C110.983 231.779 110.197 232.565 109.445 233.317C108.693 234.069 108.01 234.696 107.395 235.197C106.802 235.676 106.301 235.983 105.891 236.12C105.48 236.234 105.207 236.086 105.07 235.676C105.048 235.653 105.173 235.368 105.446 234.821C105.743 234.252 106.096 233.545 106.506 232.702C106.939 231.859 107.406 230.948 107.907 229.968C108.431 228.988 108.921 228.076 109.377 227.233C109.833 226.368 110.231 225.638 110.573 225.046C110.915 224.453 111.132 224.134 111.223 224.089C111.701 224.408 111.94 224.761 111.94 225.148C111.963 225.513 111.906 225.9 111.77 226.311C111.633 226.698 111.473 227.097 111.291 227.507C111.132 227.917 111.109 228.327 111.223 228.737C111.587 228.487 112.089 228.145 112.727 227.712C113.387 227.256 114.094 226.789 114.846 226.311C115.62 225.832 116.418 225.365 117.238 224.909C118.081 224.453 118.868 224.1 119.597 223.85C120.326 223.576 120.975 223.428 121.545 223.405C122.137 223.382 122.57 223.553 122.844 223.918C123.117 224.283 123.197 224.886 123.083 225.729C122.992 226.55 122.639 227.678 122.023 229.113C121.955 229.273 121.784 229.66 121.511 230.275C121.26 230.868 120.975 231.517 120.656 232.224C120.36 232.907 120.075 233.557 119.802 234.172C119.551 234.764 119.392 235.14 119.323 235.3C119.3 235.391 119.266 235.562 119.221 235.812C119.198 236.04 119.164 236.302 119.118 236.599C119.073 236.872 119.004 237.146 118.913 237.419C118.822 237.67 118.708 237.863 118.571 238C118.435 238.137 118.275 238.125 118.093 237.966C117.91 237.784 117.808 237.67 117.785 237.624ZM126.672 237.897C125.988 237.51 125.51 237.134 125.236 236.77C124.963 236.405 124.826 236.018 124.826 235.607C124.826 235.197 124.929 234.742 125.134 234.24C125.339 233.739 125.578 233.158 125.852 232.497C125.92 232.36 126.057 232.087 126.262 231.677C126.467 231.244 126.695 230.743 126.945 230.173C127.219 229.603 127.504 229.011 127.8 228.396C128.119 227.757 128.404 227.154 128.654 226.584C128.928 226.014 129.156 225.524 129.338 225.114C129.543 224.681 129.68 224.396 129.748 224.26C130.044 223.622 130.17 223.063 130.124 222.585C130.101 222.084 130.044 221.617 129.953 221.184C129.885 220.751 129.851 220.329 129.851 219.919C129.873 219.509 130.09 219.042 130.5 218.518C130.568 218.449 130.716 218.29 130.944 218.039C131.172 217.788 131.411 217.526 131.662 217.253C131.936 216.957 132.186 216.695 132.414 216.467C132.642 216.216 132.779 216.057 132.824 215.988C132.938 215.852 133.257 215.624 133.781 215.305C134.328 214.986 134.989 214.644 135.764 214.279C136.538 213.892 137.393 213.505 138.327 213.117C139.284 212.707 140.23 212.354 141.164 212.058C142.098 211.739 142.998 211.499 143.864 211.34C144.73 211.18 145.471 211.135 146.086 211.203C146.701 211.271 147.146 211.488 147.419 211.853C147.715 212.217 147.761 212.775 147.556 213.527C147.214 214.758 146.656 215.84 145.881 216.774C145.129 217.709 144.331 218.54 143.488 219.27C142.645 219.999 141.836 220.648 141.062 221.218C140.31 221.787 139.751 222.323 139.387 222.824C142.121 222.915 144.115 223.246 145.368 223.815C146.644 224.385 147.362 225.103 147.521 225.969C147.704 226.835 147.43 227.803 146.701 228.874C145.972 229.922 144.969 230.97 143.693 232.019C142.417 233.044 140.97 234.024 139.353 234.958C137.735 235.869 136.117 236.621 134.499 237.214C132.904 237.806 131.4 238.182 129.987 238.342C128.597 238.501 127.492 238.353 126.672 237.897ZM129.372 229.626C128.939 230.15 128.54 230.731 128.176 231.369C127.811 231.984 127.526 232.6 127.321 233.215C127.139 233.807 127.059 234.377 127.082 234.924C127.105 235.448 127.276 235.881 127.595 236.223C127.914 236.542 128.392 236.735 129.03 236.804C129.691 236.872 130.568 236.747 131.662 236.428C134.077 235.881 136.174 235.186 137.951 234.343C139.751 233.5 141.232 232.622 142.395 231.711C143.579 230.777 144.445 229.854 144.992 228.942C145.562 228.031 145.824 227.233 145.778 226.55C145.756 225.843 145.425 225.308 144.787 224.943C144.172 224.579 143.272 224.476 142.087 224.636C140.902 224.772 139.432 225.24 137.678 226.037C135.946 226.812 133.941 228.008 131.662 229.626C131.411 229.831 131.184 229.934 130.979 229.934C130.773 229.911 130.58 229.865 130.397 229.797C130.215 229.706 130.044 229.626 129.885 229.558C129.725 229.489 129.554 229.512 129.372 229.626ZM130.124 226.755C130.124 226.823 130.113 226.926 130.09 227.062C130.09 227.199 130.09 227.347 130.09 227.507C130.09 227.644 130.09 227.78 130.09 227.917C130.113 228.054 130.124 228.156 130.124 228.225C130.306 228.179 130.682 227.963 131.252 227.575C131.822 227.188 132.505 226.687 133.303 226.071C134.123 225.456 135.012 224.761 135.969 223.986C136.926 223.189 137.883 222.368 138.84 221.525C139.82 220.66 140.743 219.805 141.608 218.962C142.497 218.096 143.26 217.287 143.898 216.535C144.536 215.783 145.015 215.122 145.334 214.553C145.676 213.96 145.778 213.505 145.642 213.186C144.639 213.049 143.579 213.117 142.463 213.391C141.369 213.641 140.287 214.017 139.216 214.519C138.168 215.02 137.188 215.601 136.276 216.262C135.365 216.9 134.602 217.526 133.986 218.142C133.85 218.438 133.622 218.962 133.303 219.714C132.984 220.466 132.631 221.263 132.243 222.106C131.879 222.95 131.525 223.747 131.184 224.499C130.865 225.228 130.637 225.741 130.5 226.037C130.5 226.083 130.443 226.208 130.329 226.413C130.215 226.595 130.147 226.709 130.124 226.755ZM151.384 237.624C150.427 237.237 149.823 236.656 149.572 235.881C149.344 235.106 149.356 234.252 149.606 233.317C149.857 232.36 150.29 231.381 150.905 230.378C151.521 229.353 152.204 228.418 152.956 227.575C153.708 226.732 154.46 226.026 155.212 225.456C155.987 224.864 156.647 224.533 157.194 224.465C158.607 224.283 159.712 224.385 160.51 224.772C161.33 225.137 161.888 225.673 162.185 226.379C162.481 227.085 162.561 227.917 162.424 228.874C162.287 229.808 161.979 230.754 161.501 231.711C161.045 232.668 160.441 233.591 159.689 234.479C158.96 235.368 158.14 236.12 157.229 236.735C156.34 237.328 155.394 237.727 154.392 237.932C153.389 238.114 152.386 238.011 151.384 237.624ZM151.008 235.676C151.19 236.405 151.577 236.815 152.17 236.906C152.762 236.975 153.446 236.826 154.221 236.462C155.018 236.075 155.85 235.528 156.716 234.821C157.582 234.092 158.368 233.306 159.074 232.463C159.803 231.62 160.396 230.777 160.852 229.934C161.33 229.068 161.558 228.316 161.535 227.678C161.535 227.04 161.228 226.561 160.612 226.242C160.02 225.9 159.017 225.832 157.604 226.037C157.285 226.333 156.875 226.698 156.374 227.131C155.873 227.541 155.349 227.997 154.802 228.498C154.278 228.999 153.754 229.546 153.229 230.139C152.705 230.708 152.25 231.301 151.862 231.916C151.475 232.531 151.19 233.158 151.008 233.796C150.848 234.434 150.848 235.061 151.008 235.676ZM174.797 237.624C174.341 237.282 173.988 236.838 173.737 236.291C173.487 235.744 173.293 235.163 173.156 234.548C173.042 233.933 172.963 233.317 172.917 232.702C172.871 232.087 172.849 231.54 172.849 231.062C172.803 231.016 172.735 230.993 172.644 230.993C172.575 230.993 172.518 231.016 172.473 231.062C171.903 231.472 171.356 231.962 170.832 232.531C170.308 233.101 169.784 233.682 169.26 234.274C168.758 234.867 168.257 235.459 167.756 236.052C167.277 236.621 166.787 237.146 166.286 237.624C165.967 237.738 165.637 237.772 165.295 237.727C164.953 237.658 164.657 237.544 164.406 237.385C164.178 237.202 164.007 236.975 163.894 236.701C163.802 236.405 163.837 236.063 163.996 235.676C164.429 234.286 164.896 232.816 165.397 231.267C165.922 229.694 166.468 228.202 167.038 226.789C167.243 226.288 167.46 226.014 167.688 225.969C167.938 225.923 168.155 226.014 168.337 226.242C168.519 226.47 168.645 226.789 168.713 227.199C168.781 227.587 168.747 227.974 168.61 228.361C168.542 228.544 168.417 228.874 168.234 229.353C168.052 229.808 167.858 230.31 167.653 230.856C167.448 231.381 167.255 231.882 167.072 232.36C166.89 232.839 166.765 233.169 166.696 233.352V234.514C167.403 233.876 167.995 233.306 168.474 232.805C168.952 232.303 169.396 231.802 169.807 231.301C170.24 230.777 170.684 230.23 171.14 229.66C171.595 229.068 172.165 228.373 172.849 227.575C173.373 226.96 173.783 226.63 174.079 226.584C174.375 226.516 174.592 226.641 174.729 226.96C174.888 227.256 174.979 227.701 175.002 228.293C175.025 228.863 175.025 229.489 175.002 230.173C175.002 230.834 174.979 231.506 174.934 232.189C174.888 232.85 174.865 233.431 174.865 233.933C174.888 234.411 174.945 234.764 175.036 234.992C175.127 235.197 175.298 235.174 175.549 234.924C175.822 234.491 176.221 233.864 176.745 233.044C177.269 232.224 177.862 231.324 178.522 230.344C179.183 229.341 179.901 228.339 180.676 227.336C181.473 226.311 182.282 225.399 183.103 224.602C183.923 223.781 184.743 223.143 185.563 222.688C186.384 222.209 187.17 222.027 187.922 222.141C187.945 222.232 187.808 222.482 187.512 222.893C187.238 223.303 186.862 223.793 186.384 224.362C185.928 224.909 185.415 225.513 184.846 226.174C184.299 226.812 183.752 227.427 183.205 228.02C182.681 228.612 182.214 229.147 181.804 229.626C181.394 230.104 181.109 230.458 180.949 230.686C180.881 230.777 180.733 230.982 180.505 231.301C180.3 231.597 180.049 231.962 179.753 232.395C179.479 232.805 179.172 233.249 178.83 233.728C178.511 234.206 178.203 234.662 177.907 235.095C177.611 235.528 177.349 235.904 177.121 236.223C176.916 236.542 176.779 236.747 176.711 236.838C176.506 237.134 176.335 237.373 176.198 237.556C176.062 237.738 175.925 237.863 175.788 237.932C175.674 238 175.537 238.011 175.378 237.966C175.218 237.92 175.025 237.806 174.797 237.624ZM190.827 237.624C190.166 237.146 189.733 236.542 189.528 235.812C189.346 235.083 189.323 234.297 189.46 233.454C189.597 232.588 189.836 231.7 190.178 230.788C190.542 229.877 190.93 228.999 191.34 228.156C191.773 227.313 192.183 226.538 192.57 225.832C192.98 225.126 193.299 224.545 193.527 224.089C193.596 223.952 193.755 223.622 194.006 223.098C194.279 222.574 194.564 222.004 194.86 221.389C195.157 220.773 195.43 220.204 195.681 219.68C195.954 219.133 196.125 218.791 196.193 218.654C196.262 218.54 196.353 218.324 196.467 218.005C196.604 217.663 196.752 217.299 196.911 216.911C197.071 216.524 197.242 216.159 197.424 215.817C197.629 215.453 197.834 215.191 198.039 215.031C198.267 214.872 198.483 214.849 198.688 214.963C198.916 215.077 199.133 215.419 199.338 215.988C199.247 216.216 199.019 216.672 198.654 217.355C198.312 218.039 197.902 218.859 197.424 219.816C196.945 220.773 196.41 221.833 195.817 222.995C195.248 224.157 194.689 225.331 194.143 226.516C193.596 227.701 193.083 228.863 192.604 230.002C192.126 231.118 191.727 232.144 191.408 233.078C191.112 233.99 190.93 234.753 190.861 235.368C190.816 235.961 190.93 236.325 191.203 236.462C191.522 236.621 191.932 236.69 192.434 236.667C192.958 236.621 193.493 236.553 194.04 236.462C194.587 236.371 195.122 236.28 195.646 236.188C196.171 236.075 196.626 236.029 197.014 236.052C197.105 236.257 197.036 236.462 196.809 236.667C196.581 236.849 196.262 237.02 195.852 237.18C195.441 237.316 194.963 237.442 194.416 237.556C193.892 237.647 193.379 237.715 192.878 237.761C192.399 237.806 191.966 237.818 191.579 237.795C191.215 237.772 190.964 237.715 190.827 237.624ZM224.46 237.624C224.323 237.054 224.323 236.405 224.46 235.676C224.619 234.924 224.836 234.172 225.109 233.42C225.383 232.668 225.679 231.95 225.998 231.267C226.317 230.56 226.579 229.979 226.784 229.523C226.898 229.25 227.069 228.851 227.297 228.327C227.548 227.803 227.821 227.211 228.117 226.55C228.436 225.889 228.755 225.194 229.074 224.465C229.416 223.736 229.735 223.041 230.031 222.38C230.35 221.719 230.624 221.138 230.852 220.637C231.102 220.113 231.285 219.725 231.398 219.475C231.011 219.406 230.453 219.44 229.724 219.577C229.017 219.714 228.231 219.896 227.365 220.124C226.499 220.329 225.611 220.546 224.699 220.773C223.788 221.001 222.933 221.172 222.136 221.286C221.361 221.377 220.689 221.389 220.119 221.32C219.572 221.229 219.23 220.99 219.094 220.603C219.253 220.306 219.834 219.965 220.837 219.577C221.84 219.19 223.116 218.791 224.665 218.381C226.237 217.948 227.98 217.515 229.895 217.082C231.831 216.649 233.802 216.239 235.808 215.852C237.813 215.464 239.772 215.111 241.687 214.792C243.601 214.473 245.31 214.211 246.813 214.006C248.317 213.801 249.525 213.664 250.437 213.596C251.371 213.527 251.861 213.55 251.906 213.664C251.975 213.846 251.986 214.074 251.94 214.348C251.895 214.598 251.747 214.758 251.496 214.826C250.38 215.008 249.172 215.214 247.873 215.441C246.574 215.646 245.253 215.874 243.908 216.125C242.587 216.353 241.288 216.592 240.012 216.843C238.736 217.071 237.551 217.299 236.457 217.526C235.751 217.663 235.067 218.073 234.406 218.757C233.745 219.44 233.107 220.295 232.492 221.32C231.877 222.323 231.285 223.451 230.715 224.704C230.145 225.935 229.598 227.188 229.074 228.464C228.573 229.74 228.106 230.97 227.673 232.155C227.24 233.34 226.841 234.388 226.477 235.3C226.112 236.188 225.793 236.883 225.52 237.385C225.246 237.886 225.018 238.091 224.836 238C224.79 237.954 224.722 237.886 224.631 237.795C224.54 237.704 224.483 237.647 224.46 237.624ZM240.456 237.624C239.772 237.396 239.248 237.054 238.884 236.599C238.542 236.12 238.314 235.596 238.2 235.026C238.086 234.457 238.063 233.864 238.132 233.249C238.223 232.611 238.36 232.007 238.542 231.438C239.226 230.708 239.989 229.877 240.832 228.942C241.698 227.985 242.609 227.051 243.566 226.14C244.523 225.228 245.515 224.385 246.54 223.61C247.588 222.813 248.648 222.209 249.719 221.799C250.083 221.639 250.368 221.651 250.573 221.833C250.801 221.993 250.961 222.255 251.052 222.619C251.143 222.984 251.177 223.405 251.154 223.884C251.154 224.362 251.12 224.829 251.052 225.285C250.983 225.741 250.892 226.151 250.778 226.516C250.664 226.88 250.55 227.131 250.437 227.268C250.163 227.587 249.628 227.963 248.83 228.396C248.055 228.828 247.189 229.307 246.232 229.831C245.275 230.332 244.318 230.856 243.361 231.403C242.404 231.95 241.618 232.497 241.003 233.044C240.388 233.568 240.023 234.092 239.909 234.616C239.795 235.14 240.114 235.619 240.866 236.052C241.641 236.143 242.575 236.109 243.669 235.949C244.785 235.767 245.913 235.539 247.053 235.266C248.215 234.969 249.331 234.673 250.402 234.377C251.473 234.058 252.351 233.807 253.034 233.625L253.444 234.001C252.943 234.662 252.123 235.266 250.983 235.812C249.844 236.359 248.614 236.815 247.292 237.18C245.97 237.521 244.683 237.749 243.43 237.863C242.176 237.954 241.185 237.875 240.456 237.624ZM248.625 224.567C248.602 224.545 248.431 224.647 248.112 224.875C247.793 225.08 247.395 225.365 246.916 225.729C246.46 226.071 245.959 226.459 245.412 226.892C244.888 227.302 244.398 227.689 243.942 228.054C243.509 228.418 243.145 228.737 242.849 229.011C242.552 229.261 242.427 229.387 242.473 229.387C242.837 229.455 243.304 229.41 243.874 229.25C244.466 229.068 245.07 228.817 245.686 228.498C246.324 228.179 246.927 227.826 247.497 227.438C248.067 227.028 248.511 226.63 248.83 226.242C249.172 225.855 249.343 225.513 249.343 225.217C249.366 224.921 249.126 224.704 248.625 224.567ZM254.367 237.214C253.82 236.758 253.513 236.086 253.444 235.197C253.399 234.309 253.524 233.306 253.82 232.189C254.139 231.073 254.595 229.911 255.188 228.703C255.803 227.473 256.509 226.311 257.307 225.217C258.104 224.1 258.97 223.109 259.904 222.243C260.839 221.354 261.773 220.705 262.707 220.295C263.641 219.862 264.553 219.714 265.441 219.851C266.33 219.965 267.139 220.477 267.868 221.389C268.324 221.958 268.597 222.539 268.688 223.132C268.78 223.701 268.768 224.294 268.654 224.909C268.54 225.502 268.358 226.117 268.107 226.755C267.857 227.37 267.606 227.997 267.355 228.635C267.128 229.273 266.934 229.922 266.774 230.583C266.638 231.244 266.615 231.916 266.706 232.6C266.82 233.465 267.207 233.978 267.868 234.138C268.529 234.297 269.315 234.252 270.227 234.001C271.161 233.75 272.141 233.352 273.166 232.805C274.191 232.258 275.137 231.711 276.003 231.164C276.892 230.617 277.621 230.139 278.19 229.729C278.783 229.318 279.079 229.113 279.079 229.113C279.717 228.977 280.07 229.022 280.139 229.25C280.23 229.455 280.104 229.774 279.763 230.207C279.444 230.617 278.954 231.096 278.293 231.643C277.632 232.167 276.88 232.679 276.037 233.181C275.194 233.682 274.294 234.138 273.337 234.548C272.38 234.958 271.446 235.243 270.534 235.402C269.623 235.539 268.757 235.528 267.937 235.368C267.139 235.186 266.478 234.776 265.954 234.138C265.703 233.864 265.51 233.591 265.373 233.317C265.259 233.044 265.065 232.805 264.792 232.6C264.45 232.919 264.04 233.34 263.562 233.864C263.083 234.366 262.559 234.878 261.989 235.402C261.442 235.904 260.85 236.382 260.212 236.838C259.597 237.294 258.959 237.635 258.298 237.863C257.637 238.091 256.965 238.171 256.281 238.103C255.62 238.034 254.982 237.738 254.367 237.214ZM254.743 236.052C254.948 236.781 255.404 237.123 256.11 237.077C256.817 237.009 257.637 236.656 258.571 236.018C259.506 235.38 260.474 234.514 261.477 233.42C262.479 232.303 263.379 231.073 264.177 229.729C264.974 228.361 265.578 226.926 265.988 225.422C266.421 223.918 266.535 222.437 266.33 220.979C265.783 220.546 265.1 220.534 264.279 220.944C263.459 221.332 262.582 221.981 261.647 222.893C260.736 223.781 259.825 224.852 258.913 226.105C258.024 227.336 257.238 228.589 256.555 229.865C255.871 231.118 255.347 232.303 254.982 233.42C254.641 234.536 254.561 235.414 254.743 236.052ZM297.673 237.214C297.422 236.918 297.274 236.587 297.229 236.223C297.206 235.835 297.229 235.459 297.297 235.095C297.388 234.707 297.502 234.343 297.639 234.001C297.798 233.636 297.946 233.306 298.083 233.01C298.174 232.782 298.356 232.372 298.63 231.779C298.926 231.164 299.234 230.526 299.553 229.865C299.895 229.204 300.214 228.589 300.51 228.02C300.806 227.427 301.011 227.017 301.125 226.789V226.037C300.897 225.923 300.43 226.083 299.724 226.516C299.017 226.926 298.197 227.507 297.263 228.259C296.328 228.988 295.337 229.808 294.289 230.72C293.241 231.631 292.25 232.508 291.315 233.352C290.404 234.172 289.606 234.912 288.923 235.573C288.239 236.211 287.806 236.633 287.624 236.838C287.123 236.997 286.792 236.895 286.633 236.53C286.496 236.143 286.462 235.619 286.53 234.958C286.599 234.274 286.735 233.522 286.94 232.702C287.146 231.859 287.351 231.073 287.556 230.344C287.784 229.592 287.977 228.954 288.137 228.43C288.319 227.906 288.399 227.621 288.376 227.575C287.92 227.416 287.442 227.473 286.94 227.746C286.439 228.02 285.926 228.43 285.402 228.977C284.878 229.501 284.354 230.127 283.83 230.856C283.306 231.563 282.782 232.281 282.258 233.01C281.734 233.716 281.232 234.4 280.754 235.061C280.275 235.699 279.82 236.223 279.387 236.633C278.954 237.043 278.544 237.282 278.156 237.351C277.792 237.419 277.473 237.248 277.199 236.838C277.176 236.815 277.165 236.758 277.165 236.667C277.165 236.576 277.176 236.507 277.199 236.462C277.313 236.234 277.484 235.881 277.712 235.402C277.963 234.901 278.236 234.343 278.532 233.728C278.828 233.112 279.147 232.474 279.489 231.813C279.831 231.13 280.15 230.492 280.446 229.899C280.765 229.284 281.039 228.737 281.267 228.259C281.517 227.78 281.711 227.427 281.848 227.199C281.962 226.971 282.121 226.687 282.326 226.345C282.531 225.98 282.736 225.638 282.941 225.319C283.146 224.978 283.329 224.693 283.488 224.465C283.648 224.214 283.728 224.089 283.728 224.089H284.548C284.707 224.613 284.685 225.103 284.479 225.559C284.274 226.014 284.024 226.459 283.728 226.892C283.454 227.325 283.215 227.757 283.01 228.19C282.827 228.601 282.827 229.045 283.01 229.523C284.969 227.792 286.473 226.516 287.521 225.695C288.592 224.875 289.344 224.408 289.777 224.294C290.21 224.18 290.415 224.351 290.393 224.807C290.37 225.262 290.267 225.878 290.085 226.652C289.925 227.427 289.755 228.316 289.572 229.318C289.413 230.298 289.401 231.255 289.538 232.189H289.948C290.085 232.098 290.313 231.927 290.632 231.677C290.951 231.426 291.293 231.153 291.657 230.856C292.045 230.56 292.398 230.287 292.717 230.036C293.059 229.785 293.298 229.615 293.435 229.523C293.685 229.318 294.05 229.034 294.528 228.669C295.007 228.304 295.485 227.94 295.964 227.575C296.465 227.188 296.91 226.857 297.297 226.584C297.707 226.288 297.969 226.105 298.083 226.037C298.174 225.969 298.368 225.832 298.664 225.627C298.983 225.399 299.325 225.16 299.689 224.909C300.077 224.659 300.441 224.431 300.783 224.226C301.125 223.998 301.376 223.827 301.535 223.713C301.877 223.485 302.196 223.382 302.492 223.405C302.788 223.428 303.028 223.542 303.21 223.747C303.415 223.929 303.54 224.191 303.586 224.533C303.632 224.852 303.586 225.217 303.449 225.627C302.902 226.652 302.355 227.655 301.809 228.635C301.285 229.615 300.795 230.606 300.339 231.608C299.906 232.588 299.541 233.602 299.245 234.65C298.972 235.699 298.824 236.815 298.801 238C298.687 238.068 298.562 238.068 298.425 238C298.311 237.932 298.197 237.84 298.083 237.727C297.969 237.613 297.867 237.499 297.775 237.385C297.707 237.271 297.673 237.214 297.673 237.214Z" fill="black"/>
<defs>
<clipPath id="clip0_1505_11887">
<rect width="47" height="39" fill="white" transform="translate(9)"/>
</clipPath>
</defs>
</svg>
