<svg width="289" height="86" viewBox="0 0 289 86" fill="none" xmlns="http://www.w3.org/2000/svg">
<path d="M23.1 8.625V10.95H18.475V26H15.625V10.95H10.975V8.625H23.1ZM28.8363 14.225C29.253 13.525 29.803 12.9833 30.4863 12.6C31.1863 12.2 32.0113 12 32.9613 12V14.95H32.2363C31.1197 14.95 30.2697 15.2333 29.6863 15.8C29.1197 16.3667 28.8363 17.35 28.8363 18.75V26H25.9863V12.225H28.8363V14.225ZM47.9811 12.225L39.5311 32.475H36.5811L39.3811 25.775L33.9561 12.225H37.1311L41.0061 22.725L45.0311 12.225H47.9811ZM58.076 10.4C57.5593 10.4 57.126 10.225 56.776 9.875C56.426 9.525 56.251 9.09167 56.251 8.575C56.251 8.05833 56.426 7.625 56.776 7.275C57.126 6.925 57.5593 6.75 58.076 6.75C58.576 6.75 59.001 6.925 59.351 7.275C59.701 7.625 59.876 8.05833 59.876 8.575C59.876 9.09167 59.701 9.525 59.351 9.875C59.001 10.225 58.576 10.4 58.076 10.4ZM59.476 12.225V26H56.626V12.225H59.476ZM66.5428 14.55V22.175C66.5428 22.6917 66.6594 23.0667 66.8928 23.3C67.1428 23.5167 67.5594 23.625 68.1428 23.625H69.8928V26H67.6428C66.3594 26 65.3761 25.7 64.6928 25.1C64.0094 24.5 63.6678 23.525 63.6678 22.175V14.55H62.0428V12.225H63.6678V8.8H66.5428V12.225H69.8928V14.55H66.5428ZM91.4137 12.225L82.9637 32.475H80.0137L82.8137 25.775L77.3887 12.225H80.5637L84.4387 22.725L88.4637 12.225H91.4137ZM99.5395 26.225C98.2395 26.225 97.0645 25.9333 96.0145 25.35C94.9645 24.75 94.1395 23.9167 93.5395 22.85C92.9395 21.7667 92.6395 20.5167 92.6395 19.1C92.6395 17.7 92.9478 16.4583 93.5645 15.375C94.1811 14.2917 95.0228 13.4583 96.0895 12.875C97.1561 12.2917 98.3478 12 99.6645 12C100.981 12 102.173 12.2917 103.239 12.875C104.306 13.4583 105.148 14.2917 105.764 15.375C106.381 16.4583 106.689 17.7 106.689 19.1C106.689 20.5 106.373 21.7417 105.739 22.825C105.106 23.9083 104.239 24.75 103.139 25.35C102.056 25.9333 100.856 26.225 99.5395 26.225ZM99.5395 23.75C100.273 23.75 100.956 23.575 101.589 23.225C102.239 22.875 102.764 22.35 103.164 21.65C103.564 20.95 103.764 20.1 103.764 19.1C103.764 18.1 103.573 17.2583 103.189 16.575C102.806 15.875 102.298 15.35 101.664 15C101.031 14.65 100.348 14.475 99.6145 14.475C98.8811 14.475 98.1978 14.65 97.5645 15C96.9478 15.35 96.4561 15.875 96.0895 16.575C95.7228 17.2583 95.5395 18.1 95.5395 19.1C95.5395 20.5833 95.9145 21.7333 96.6645 22.55C97.4311 23.35 98.3895 23.75 99.5395 23.75ZM121.982 12.225V26H119.132V24.375C118.682 24.9417 118.09 25.3917 117.357 25.725C116.64 26.0417 115.874 26.2 115.057 26.2C113.974 26.2 112.999 25.975 112.132 25.525C111.282 25.075 110.607 24.4083 110.107 23.525C109.624 22.6417 109.382 21.575 109.382 20.325V12.225H112.207V19.9C112.207 21.1333 112.515 22.0833 113.132 22.75C113.749 23.4 114.59 23.725 115.657 23.725C116.724 23.725 117.565 23.4 118.182 22.75C118.815 22.0833 119.132 21.1333 119.132 19.9V12.225H121.982ZM128.592 14.225C129.009 13.525 129.559 12.9833 130.242 12.6C130.942 12.2 131.767 12 132.717 12V14.95H131.992C130.876 14.95 130.026 15.2333 129.442 15.8C128.876 16.3667 128.592 17.35 128.592 18.75V26H125.742V12.225H128.592V14.225ZM140.337 26.225C139.254 26.225 138.279 26.0333 137.412 25.65C136.562 25.25 135.887 24.7167 135.387 24.05C134.887 23.3667 134.62 22.6083 134.587 21.775H137.537C137.587 22.3583 137.862 22.85 138.362 23.25C138.879 23.6333 139.52 23.825 140.287 23.825C141.087 23.825 141.704 23.675 142.137 23.375C142.587 23.0583 142.812 22.6583 142.812 22.175C142.812 21.6583 142.562 21.275 142.062 21.025C141.579 20.775 140.804 20.5 139.737 20.2C138.704 19.9167 137.862 19.6417 137.212 19.375C136.562 19.1083 135.995 18.7 135.512 18.15C135.045 17.6 134.812 16.875 134.812 15.975C134.812 15.2417 135.029 14.575 135.462 13.975C135.895 13.3583 136.512 12.875 137.312 12.525C138.129 12.175 139.062 12 140.112 12C141.679 12 142.937 12.4 143.887 13.2C144.854 13.9833 145.37 15.0583 145.437 16.425H142.587C142.537 15.8083 142.287 15.3167 141.837 14.95C141.387 14.5833 140.779 14.4 140.012 14.4C139.262 14.4 138.687 14.5417 138.287 14.825C137.887 15.1083 137.687 15.4833 137.687 15.95C137.687 16.3167 137.82 16.625 138.087 16.875C138.354 17.125 138.679 17.325 139.062 17.475C139.445 17.6083 140.012 17.7833 140.762 18C141.762 18.2667 142.579 18.5417 143.212 18.825C143.862 19.0917 144.42 19.4917 144.887 20.025C145.354 20.5583 145.595 21.2667 145.612 22.15C145.612 22.9333 145.395 23.6333 144.962 24.25C144.529 24.8667 143.912 25.35 143.112 25.7C142.329 26.05 141.404 26.225 140.337 26.225ZM161.316 18.775C161.316 19.2917 161.283 19.7583 161.216 20.175H150.691C150.775 21.275 151.183 22.1583 151.916 22.825C152.65 23.4917 153.55 23.825 154.616 23.825C156.15 23.825 157.233 23.1833 157.866 21.9H160.941C160.525 23.1667 159.766 24.2083 158.666 25.025C157.583 25.825 156.233 26.225 154.616 26.225C153.3 26.225 152.116 25.9333 151.066 25.35C150.033 24.75 149.216 23.9167 148.616 22.85C148.033 21.7667 147.741 20.5167 147.741 19.1C147.741 17.6833 148.025 16.4417 148.591 15.375C149.175 14.2917 149.983 13.4583 151.016 12.875C152.066 12.2917 153.266 12 154.616 12C155.916 12 157.075 12.2833 158.091 12.85C159.108 13.4167 159.9 14.2167 160.466 15.25C161.033 16.2667 161.316 17.4417 161.316 18.775ZM158.341 17.875C158.325 16.825 157.95 15.9833 157.216 15.35C156.483 14.7167 155.575 14.4 154.491 14.4C153.508 14.4 152.666 14.7167 151.966 15.35C151.266 15.9667 150.85 16.8083 150.716 17.875H158.341ZM166.971 7.5V26H164.121V7.5H166.971ZM176.488 14.55H173.938V26H171.063V14.55H169.438V12.225H171.063V11.25C171.063 9.66667 171.48 8.51667 172.313 7.8C173.163 7.06667 174.488 6.7 176.288 6.7V9.075C175.421 9.075 174.813 9.24167 174.463 9.575C174.113 9.89167 173.938 10.45 173.938 11.25V12.225H176.488V14.55ZM204.008 12.225L199.733 26H196.733L193.958 15.825L191.183 26H188.183L183.883 12.225H186.783L189.658 23.3L192.583 12.225H195.558L198.358 23.25L201.208 12.225H204.008ZM207.588 10.4C207.071 10.4 206.638 10.225 206.288 9.875C205.938 9.525 205.763 9.09167 205.763 8.575C205.763 8.05833 205.938 7.625 206.288 7.275C206.638 6.925 207.071 6.75 207.588 6.75C208.088 6.75 208.513 6.925 208.863 7.275C209.213 7.625 209.388 8.05833 209.388 8.575C209.388 9.09167 209.213 9.525 208.863 9.875C208.513 10.225 208.088 10.4 207.588 10.4ZM208.988 12.225V26H206.138V12.225H208.988ZM216.054 14.55V22.175C216.054 22.6917 216.171 23.0667 216.404 23.3C216.654 23.5167 217.071 23.625 217.654 23.625H219.404V26H217.154C215.871 26 214.888 25.7 214.204 25.1C213.521 24.5 213.179 23.525 213.179 22.175V14.55H211.554V12.225H213.179V8.8H216.054V12.225H219.404V14.55H216.054ZM229.156 12C230.206 12 231.14 12.225 231.956 12.675C232.79 13.125 233.44 13.7917 233.906 14.675C234.39 15.5583 234.631 16.625 234.631 17.875V26H231.806V18.3C231.806 17.0667 231.498 16.125 230.881 15.475C230.265 14.8083 229.423 14.475 228.356 14.475C227.29 14.475 226.44 14.8083 225.806 15.475C225.19 16.125 224.881 17.0667 224.881 18.3V26H222.031V7.5H224.881V13.825C225.365 13.2417 225.973 12.7917 226.706 12.475C227.456 12.1583 228.273 12 229.156 12ZM250.736 26.225C249.436 26.225 248.261 25.9333 247.211 25.35C246.161 24.75 245.336 23.9167 244.736 22.85C244.136 21.7667 243.836 20.5167 243.836 19.1C243.836 17.7 244.144 16.4583 244.761 15.375C245.377 14.2917 246.219 13.4583 247.286 12.875C248.352 12.2917 249.544 12 250.861 12C252.177 12 253.369 12.2917 254.436 12.875C255.502 13.4583 256.344 14.2917 256.961 15.375C257.577 16.4583 257.886 17.7 257.886 19.1C257.886 20.5 257.569 21.7417 256.936 22.825C256.302 23.9083 255.436 24.75 254.336 25.35C253.252 25.9333 252.052 26.225 250.736 26.225ZM250.736 23.75C251.469 23.75 252.152 23.575 252.786 23.225C253.436 22.875 253.961 22.35 254.361 21.65C254.761 20.95 254.961 20.1 254.961 19.1C254.961 18.1 254.769 17.2583 254.386 16.575C254.002 15.875 253.494 15.35 252.861 15C252.227 14.65 251.544 14.475 250.811 14.475C250.077 14.475 249.394 14.65 248.761 15C248.144 15.35 247.652 15.875 247.286 16.575C246.919 17.2583 246.736 18.1 246.736 19.1C246.736 20.5833 247.111 21.7333 247.861 22.55C248.627 23.35 249.586 23.75 250.736 23.75ZM273.178 12.225V26H270.328V24.375C269.878 24.9417 269.286 25.3917 268.553 25.725C267.836 26.0417 267.07 26.2 266.253 26.2C265.17 26.2 264.195 25.975 263.328 25.525C262.478 25.075 261.803 24.4083 261.303 23.525C260.82 22.6417 260.578 21.575 260.578 20.325V12.225H263.403V19.9C263.403 21.1333 263.711 22.0833 264.328 22.75C264.945 23.4 265.786 23.725 266.853 23.725C267.92 23.725 268.761 23.4 269.378 22.75C270.011 22.0833 270.328 21.1333 270.328 19.9V12.225H273.178ZM279.788 14.225C280.205 13.525 280.755 12.9833 281.438 12.6C282.138 12.2 282.963 12 283.913 12V14.95H283.188C282.072 14.95 281.222 15.2333 280.638 15.8C280.072 16.3667 279.788 17.35 279.788 18.75V26H276.938V12.225H279.788V14.225Z" fill="black"/>
<path d="M27.6362 49.55V52.375H20.3612V56.85H25.9362V59.625H20.3612V67H16.8612V49.55H27.6362ZM39.1181 67L35.2681 60.2H33.6181V67H30.1181V49.55H36.6681C38.0181 49.55 39.1681 49.7917 40.1181 50.275C41.0681 50.7417 41.7764 51.3833 42.2431 52.2C42.7264 53 42.9681 53.9 42.9681 54.9C42.9681 56.05 42.6347 57.0917 41.9681 58.025C41.3014 58.9417 40.3097 59.575 38.9931 59.925L43.1681 67H39.1181ZM33.6181 57.575H36.5431C37.4931 57.575 38.2014 57.35 38.6681 56.9C39.1347 56.4333 39.3681 55.7917 39.3681 54.975C39.3681 54.175 39.1347 53.5583 38.6681 53.125C38.2014 52.675 37.4931 52.45 36.5431 52.45H33.6181V57.575ZM49.6337 52.375V56.75H55.5087V59.525H49.6337V64.15H56.2587V67H46.1337V49.525H56.2587V52.375H49.6337ZM62.9394 52.375V56.75H68.8144V59.525H62.9394V64.15H69.5644V67H59.4394V49.525H69.5644V52.375H62.9394ZM102.027 49.55L97.1521 67H93.0271L89.7521 54.575L86.3271 67L82.2271 67.025L77.5271 49.55H81.2771L84.3521 63.1L87.9021 49.55H91.8021L95.1521 63.025L98.2521 49.55H102.027ZM112.412 67.175C110.779 67.175 109.279 66.7917 107.912 66.025C106.546 65.2583 105.462 64.2 104.662 62.85C103.862 61.4833 103.462 59.9417 103.462 58.225C103.462 56.525 103.862 55 104.662 53.65C105.462 52.2833 106.546 51.2167 107.912 50.45C109.279 49.6833 110.779 49.3 112.412 49.3C114.062 49.3 115.562 49.6833 116.912 50.45C118.279 51.2167 119.354 52.2833 120.137 53.65C120.937 55 121.337 56.525 121.337 58.225C121.337 59.9417 120.937 61.4833 120.137 62.85C119.354 64.2 118.279 65.2583 116.912 66.025C115.546 66.7917 114.046 67.175 112.412 67.175ZM112.412 64.05C113.462 64.05 114.387 63.8167 115.187 63.35C115.987 62.8667 116.612 62.1833 117.062 61.3C117.512 60.4167 117.737 59.3917 117.737 58.225C117.737 57.0583 117.512 56.0417 117.062 55.175C116.612 54.2917 115.987 53.6167 115.187 53.15C114.387 52.6833 113.462 52.45 112.412 52.45C111.362 52.45 110.429 52.6833 109.612 53.15C108.812 53.6167 108.187 54.2917 107.737 55.175C107.287 56.0417 107.062 57.0583 107.062 58.225C107.062 59.3917 107.287 60.4167 107.737 61.3C108.187 62.1833 108.812 62.8667 109.612 63.35C110.429 63.8167 111.362 64.05 112.412 64.05ZM132.941 67L129.091 60.2H127.441V67H123.941V49.55H130.491C131.841 49.55 132.991 49.7917 133.941 50.275C134.891 50.7417 135.6 51.3833 136.066 52.2C136.55 53 136.791 53.9 136.791 54.9C136.791 56.05 136.458 57.0917 135.791 58.025C135.125 58.9417 134.133 59.575 132.816 59.925L136.991 67H132.941ZM127.441 57.575H130.366C131.316 57.575 132.025 57.35 132.491 56.9C132.958 56.4333 133.191 55.7917 133.191 54.975C133.191 54.175 132.958 53.5583 132.491 53.125C132.025 52.675 131.316 52.45 130.366 52.45H127.441V57.575ZM149.807 67L143.457 59.225V67H139.957V49.55H143.457V57.375L149.807 49.55H154.032L146.832 58.2L154.232 67H149.807ZM162.559 67.175C161.342 67.175 160.242 66.9667 159.259 66.55C158.292 66.1333 157.526 65.5333 156.959 64.75C156.392 63.9667 156.101 63.0417 156.084 61.975H159.834C159.884 62.6917 160.134 63.2583 160.584 63.675C161.051 64.0917 161.684 64.3 162.484 64.3C163.301 64.3 163.942 64.1083 164.409 63.725C164.876 63.325 165.109 62.8083 165.109 62.175C165.109 61.6583 164.951 61.2333 164.634 60.9C164.317 60.5667 163.917 60.3083 163.434 60.125C162.967 59.925 162.317 59.7083 161.484 59.475C160.351 59.1417 159.426 58.8167 158.709 58.5C158.009 58.1667 157.401 57.675 156.884 57.025C156.384 56.3583 156.134 55.475 156.134 54.375C156.134 53.3417 156.392 52.4417 156.909 51.675C157.426 50.9083 158.151 50.325 159.084 49.925C160.017 49.5083 161.084 49.3 162.284 49.3C164.084 49.3 165.542 49.7417 166.659 50.625C167.792 51.4917 168.417 52.7083 168.534 54.275H164.684C164.651 53.675 164.392 53.1833 163.909 52.8C163.442 52.4 162.817 52.2 162.034 52.2C161.351 52.2 160.801 52.375 160.384 52.725C159.984 53.075 159.784 53.5833 159.784 54.25C159.784 54.7167 159.934 55.1083 160.234 55.425C160.551 55.725 160.934 55.975 161.384 56.175C161.851 56.3583 162.501 56.575 163.334 56.825C164.467 57.1583 165.392 57.4917 166.109 57.825C166.826 58.1583 167.442 58.6583 167.959 59.325C168.476 59.9917 168.734 60.8667 168.734 61.95C168.734 62.8833 168.492 63.75 168.009 64.55C167.526 65.35 166.817 65.9917 165.884 66.475C164.951 66.9417 163.842 67.175 162.559 67.175ZM186.243 49.55V67H182.743V59.575H175.268V67H171.768V49.55H175.268V56.725H182.743V49.55H186.243ZM197.788 67.175C196.155 67.175 194.655 66.7917 193.288 66.025C191.922 65.2583 190.838 64.2 190.038 62.85C189.238 61.4833 188.838 59.9417 188.838 58.225C188.838 56.525 189.238 55 190.038 53.65C190.838 52.2833 191.922 51.2167 193.288 50.45C194.655 49.6833 196.155 49.3 197.788 49.3C199.438 49.3 200.938 49.6833 202.288 50.45C203.655 51.2167 204.73 52.2833 205.513 53.65C206.313 55 206.713 56.525 206.713 58.225C206.713 59.9417 206.313 61.4833 205.513 62.85C204.73 64.2 203.655 65.2583 202.288 66.025C200.922 66.7917 199.422 67.175 197.788 67.175ZM197.788 64.05C198.838 64.05 199.763 63.8167 200.563 63.35C201.363 62.8667 201.988 62.1833 202.438 61.3C202.888 60.4167 203.113 59.3917 203.113 58.225C203.113 57.0583 202.888 56.0417 202.438 55.175C201.988 54.2917 201.363 53.6167 200.563 53.15C199.763 52.6833 198.838 52.45 197.788 52.45C196.738 52.45 195.805 52.6833 194.988 53.15C194.188 53.6167 193.563 54.2917 193.113 55.175C192.663 56.0417 192.438 57.0583 192.438 58.225C192.438 59.3917 192.663 60.4167 193.113 61.3C193.563 62.1833 194.188 62.8667 194.988 63.35C195.805 63.8167 196.738 64.05 197.788 64.05ZM222.042 54.95C222.042 55.8833 221.817 56.7583 221.367 57.575C220.934 58.3917 220.242 59.05 219.292 59.55C218.359 60.05 217.176 60.3 215.742 60.3H212.817V67H209.317V49.55H215.742C217.092 49.55 218.242 49.7833 219.192 50.25C220.142 50.7167 220.851 51.3583 221.317 52.175C221.801 52.9917 222.042 53.9167 222.042 54.95ZM215.592 57.475C216.559 57.475 217.276 57.2583 217.742 56.825C218.209 56.375 218.442 55.75 218.442 54.95C218.442 53.25 217.492 52.4 215.592 52.4H212.817V57.475H215.592ZM229.052 49.25L228.652 61.325H225.702L225.277 49.25H229.052ZM227.252 67.175C226.619 67.175 226.094 66.9833 225.677 66.6C225.277 66.2 225.077 65.7083 225.077 65.125C225.077 64.5417 225.277 64.0583 225.677 63.675C226.094 63.275 226.619 63.075 227.252 63.075C227.869 63.075 228.377 63.275 228.777 63.675C229.177 64.0583 229.377 64.5417 229.377 65.125C229.377 65.7083 229.177 66.2 228.777 66.6C228.377 66.9833 227.869 67.175 227.252 67.175Z" fill="#2D3092"/>
<rect x="12.7084" y="40.6364" width="223.029" height="33" stroke="#FBA229" stroke-linejoin="round"/>
<path d="M11.1955 42.1492L5.60687 40.7097L5.60141 40.7084C4.79776 40.5161 4.03857 40.1298 3.4098 39.551C1.52692 37.8176 1.52777 35.0084 3.41324 33.2762C5.29803 31.5446 8.35338 31.546 10.2363 33.2794C10.865 33.8582 11.2836 34.5574 11.492 35.2967L11.4926 35.296L13.0537 40.4421C13.369 41.4832 12.3266 42.4409 11.1955 42.1492Z" fill="#FBA229"/>
<path d="M12.9034 75.9769L11.4316 80.8094L11.4303 80.8141C11.2336 81.5091 10.8387 82.1655 10.2468 82.7092C8.47462 84.3373 5.60245 84.3365 3.83144 82.7061C2.06108 81.0763 2.06259 78.4343 3.83481 76.8062C4.42662 76.2626 5.1415 75.9006 5.89734 75.7205L5.89669 75.7199L11.1581 74.3702C12.2226 74.0975 13.2017 74.9989 12.9034 75.9769Z" fill="#FBA229"/>
<path d="M235.027 40.5488L236.582 35.4428L236.584 35.4378C236.791 34.7036 237.209 34.01 237.834 33.4355C239.707 31.7152 242.741 31.7161 244.613 33.4388C246.483 35.1608 246.481 37.9523 244.609 39.6726C243.984 40.2471 243.228 40.6295 242.43 40.8198L242.43 40.8205L236.871 42.2466C235.746 42.5347 234.712 41.5823 235.027 40.5488Z" fill="#FBA229"/>
<path d="M236.842 74.1538L242.196 75.5329L242.201 75.5341C242.971 75.7184 243.698 76.0884 244.3 76.6429C246.104 78.3034 246.103 80.9945 244.297 82.6538C242.491 84.3126 239.565 84.3112 237.761 82.6507C237.159 82.0962 236.758 81.4264 236.558 80.7182L236.557 80.7188L235.062 75.7891C234.76 74.7918 235.759 73.8744 236.842 74.1538Z" fill="#FBA229"/>
</svg>
