<svg width="258" height="464" viewBox="0 0 258 464" fill="none" xmlns="http://www.w3.org/2000/svg">
<path d="M236.611 463.239L178.327 463.233V461.508C178.334 428.969 156.331 402.499 129.285 402.493C102.239 402.487 80.2296 428.956 80.2296 461.496V463.22L21.9524 463.214L78.0118 363.595L180.539 363.607L236.611 463.239ZM181.178 459.79L231.21 459.796L179.01 367.063L79.528 367.05L27.3528 459.771L77.3853 459.777C78.1497 426.134 101.142 399.05 129.291 399.05C157.434 399.05 180.42 426.141 181.178 459.79Z" fill="#01265B"/>
<path d="M129.285 384.107C93.7497 384.1 64.9432 418.753 64.9369 461.502H78.7889C78.7951 427.959 101.399 400.775 129.279 400.775C157.158 400.775 179.762 427.971 179.756 461.514H193.608C193.62 418.766 164.82 384.113 129.285 384.107Z" fill="#01265B"/>
<path d="M153.499 268.535H132.035L127.694 31.6967H133.482L153.499 268.535ZM134.842 265.079H150.329L130.895 35.1394H130.632L134.842 265.079Z" fill="#01265B"/>
<path d="M133.771 267.218L133.1 266.396L141.157 256.877L132.361 248.901L140.474 239.915L133.213 232.101L139.754 224.482L131.785 217.898L138.87 209.551L132.775 202.615L138.037 195.561L131.86 188.926L137.805 181.2L132.43 173.876L136.521 167.317L131.923 161.341L136.283 154.123L131.791 147.814L135.506 141.863L131.948 136.828L135.331 130.469L131.497 124.336L134.266 119.758L130.745 115.156L133.978 110.427L131.096 106.464L133.57 101.999L130.795 97.9357L133.113 93.496L130.72 89.7711L132.725 86.0838L130.814 83.1929L132.53 79.4618L130.394 76.2636L132.167 73.1533L130.15 70.3376L132.035 67.0203L128.997 62.7499H135.619L133.232 66.9451L135.249 69.7795L133.37 73.078L135.306 75.7807L133.671 79.3426L135.794 82.5219L133.896 86.0148L136.264 89.608L134.272 93.427L137.06 97.7664L134.754 101.924L137.887 106.508L135.231 110.396L138.438 114.804L135.5 119.658L139.459 124.832L136.496 130.406L140.174 136.295L136.734 141.813L141.138 148.046L137.505 154.06L142.022 160.406L137.768 167.229L143.814 175.086L139.096 181.213L144.515 188.6L139.39 195.467L146.088 202.659L140.255 209.532L147.197 217.421L141.27 224.325L149.684 231.28L141.903 239.896L149.747 248.343L142.623 256.752L152.196 265.431L151.62 266.346L141.928 257.561L133.771 267.218ZM133.852 248.813L141.853 256.062L148.349 248.393L141.195 240.692L133.852 248.813ZM134.623 232.07L141.182 239.137L148.149 231.424L140.562 225.153L134.623 232.07ZM133.288 217.741L140.462 223.667L145.812 217.433L139.572 210.335L133.288 217.741ZM134.109 202.546L139.553 208.742L144.684 202.697L138.751 196.326L134.109 202.546ZM133.226 188.845L138.683 194.702L143.237 188.594L138.444 182.066L133.226 188.845ZM133.664 173.813L138.463 180.348L142.51 175.086L137.185 168.163L133.664 173.813ZM133.163 161.253L137.11 166.376L140.8 160.456L136.928 155.019L133.163 161.253ZM133.025 147.764L136.866 153.163L139.923 148.103L136.145 142.754L133.025 147.764ZM133.144 136.727L136.108 140.916L138.99 136.295L135.957 131.441L133.144 136.727ZM132.693 124.317L135.888 129.428L138.263 124.957L134.93 120.605L132.693 124.317ZM132.017 115.105L134.848 118.799L137.223 114.873L134.623 111.299L132.017 115.105ZM132.305 106.358L134.598 109.512L136.659 106.502L134.209 102.921L132.305 106.358ZM131.973 97.8354L134.128 100.99L135.895 97.8103L133.739 94.4554L131.973 97.8354ZM131.891 89.7084L133.652 92.4487L135.099 89.677L133.345 87.0244L131.891 89.7084ZM131.96 83.0738L133.276 85.0679L134.623 82.5909L133.176 80.4275L131.96 83.0738ZM131.584 76.2072L133.025 78.3706L134.153 75.925L132.812 74.0563L131.584 76.2072ZM131.352 70.2561L132.725 72.175L134.046 69.8548L132.674 67.9233L131.352 70.2561ZM131.071 63.8974L132.593 66.0358L133.808 63.8974H131.071Z" fill="#01265B"/>
<path d="M133.802 250.023L133.758 247.722L149.822 247.295L149.866 249.59L133.802 250.023Z" fill="#01265B"/>
<path d="M132.957 233.255L132.913 230.96L148.976 230.527L149.02 232.828L132.957 233.255Z" fill="#01265B"/>
<path d="M132.117 218.493L132.073 216.192L148.143 215.766L148.18 218.061L132.117 218.493Z" fill="#01265B"/>
<path d="M132.142 203.681L132.098 201.474L146.896 201.041L146.94 203.249L132.142 203.681Z" fill="#01265B"/>
<path d="M132.029 188.869L131.985 186.75L145.637 186.323L145.687 188.437L132.029 188.869Z" fill="#01265B"/>
<path d="M131.134 175.462L131.09 173.343L144.741 172.916L144.791 175.036L131.134 175.462Z" fill="#01265B"/>
<path d="M131.134 162.005L131.09 159.992L143.419 159.559L143.463 161.572L131.134 162.005Z" fill="#01265B"/>
<path d="M130.538 148.586L130.488 146.598L142.517 146.165L142.567 148.153L130.538 148.586Z" fill="#01265B"/>
<path d="M130.538 137.46L130.482 135.649L140.494 135.216L140.544 137.027L130.538 137.46Z" fill="#01265B"/>
<path d="M131.14 125.871L131.083 124.179L139.804 123.746L139.861 125.439L131.14 125.871Z" fill="#01265B"/>
<path d="M131.183 115.906L131.12 114.309L138.933 113.876L138.989 115.48L131.183 115.906Z" fill="#01265B"/>
<path d="M130.231 107.177L130.169 105.58L137.981 105.147L138.038 106.745L130.231 107.177Z" fill="#01265B"/>
<path d="M130.062 98.4922L130 96.8883L137.812 96.4623L137.868 98.0599L130.062 98.4922Z" fill="#01265B"/>
<path d="M130.062 90.7475L130 89.1499L137.812 88.7176L137.875 90.3152L130.062 90.7475Z" fill="#01265B"/>
<path d="M130.062 83.4807L129.993 82.0453L136.283 81.6127L136.352 83.0482L130.062 83.4807Z" fill="#01265B"/>
<path d="M129.849 77.0331L129.78 75.5984L136.07 75.1661L136.139 76.6008L129.849 77.0331Z" fill="#01265B"/>
<path d="M129.699 70.781L129.63 69.3463L135.92 68.9141L135.989 70.3487L129.699 70.781Z" fill="#01265B"/>
<path d="M145.499 342.142L134.36 280.512L152.071 276.856L170.86 342.148H173.892L153.982 272.962L130.92 277.728L142.567 342.142H145.499Z" fill="#01265B"/>
<path d="M150.73 342.148L137.737 279.12H132.643L144.033 342.142L150.73 342.148Z" fill="#01265B"/>
<path d="M143.519 320.652L168.592 335.595L162.79 342.148H164.181L170.252 335.301L145.167 320.351L161.512 301.62L137.555 283.516L137.047 284.494L159.965 301.808L143.519 320.652Z" fill="#01265B"/>
<path d="M147.955 337.571L154.671 342.148H156.607L149.565 337.345L166.462 318.633L142.222 302.805L155.222 284.381L154.489 283.635L140.731 303.137L164.833 318.877L147.955 337.571Z" fill="#01265B"/>
<path d="M140.581 304.404L140.462 302.115L160.679 300.566L160.798 302.861L140.581 304.404Z" fill="#01265B"/>
<path d="M144.409 321.649L144.277 319.354L165.578 317.61L165.71 319.905L144.409 321.649Z" fill="#01265B"/>
<path d="M148.826 338.605L148.694 336.31L170.434 334.473L170.566 336.768L148.826 338.605Z" fill="#01265B"/>
<path d="M215.167 462.417L165.968 366.241L168.411 364.429L217.61 460.611L215.167 462.417Z" fill="#01265B"/>
<path d="M200.682 462.424L150.768 366.247L153.199 364.422L203.112 460.599L200.682 462.424Z" fill="#01265B"/>
<path d="M185.389 374.161H128.214V376.463H185.389V374.161Z" fill="#01265B"/>
<path d="M195.707 393.5H155.204V395.801H195.707V393.5Z" fill="#01265B"/>
<path d="M203.056 405.835H173.611V408.18H203.056V405.835Z" fill="#01265B"/>
<path d="M210.336 418.647H182.112V420.948H210.336V418.647Z" fill="#01265B"/>
<path d="M217.14 430.542H187.325V432.907H217.14V430.542Z" fill="#01265B"/>
<path d="M224.326 442.884H193.621V445.279H224.326V442.884Z" fill="#01265B"/>
<path d="M129.649 365.331H126.78V389.467H129.649V365.331Z" fill="#01265B"/>
<path d="M145.249 392.535L140.074 364.943L142.868 364.184L148.043 391.776L145.249 392.535Z" fill="#01265B"/>
<path d="M234.256 461.325H215.618L219.339 452.276L207.83 444.268L211.308 438.073L201.528 432.63L205.237 426.027L195.081 419.718L197.656 413.234L188.766 407.734L191.898 400.354L182.802 394.02V384.457L172.928 376.286L176.054 371.47L169.012 368.165L169.357 367.093L176.668 370.523L179.4 366.322L180.152 367.03L177.595 370.962L183.754 373.853V383.855L195.758 393.794L193.164 399.908L201.659 405.822L198.922 412.726L210.017 419.586L206.634 425.606L216.144 431.514L212.73 437.603L223.894 443.817L220.599 451.831L234.256 461.325ZM217.159 460.171H230.698L220.173 452.847L217.159 460.171ZM209.19 443.892L219.759 451.242L222.591 444.356L212.178 438.562L209.19 443.892ZM202.944 432.153L211.846 437.107L214.747 431.94L206.089 426.56L202.944 432.153ZM196.34 419.204L205.775 425.067L208.614 420.013L198.502 413.761L196.34 419.204ZM190.044 407.233L198.057 412.193L200.4 406.28L192.713 400.931L190.044 407.233ZM183.754 393.355L192.331 399.325L194.524 394.164L183.754 385.247V393.355ZM174.3 376.029L182.795 383.059V374.631L176.981 371.903L174.3 376.029Z" fill="#01265B"/>
<path d="M215.918 461.357L200.644 461.031L203.394 453.067L192.988 445.04L195.945 438.28L187.3 432.504L190.57 426.001L181.511 419.404L183.459 413.679L174.08 407.803L177.457 400.855L166.957 394.271L168.598 385.021L157.773 376.041L161.732 371.138L153.963 367.682L154.295 366.604L162.459 370.235L166.205 365.594L166.888 366.397L163.436 370.673L171.48 374.254L169.664 384.513L181.674 394.471L178.792 400.397L187.218 405.678L184.675 413.14L194.924 419.561L191.879 425.606L199.98 431.501L197.223 437.816L207.36 444.588L204.585 452.615L215.918 461.357ZM202.066 459.908L212.56 460.134L204.215 453.694L202.066 459.908ZM194.247 444.645L203.77 451.988L206.151 445.096L196.779 438.838L194.247 444.645ZM188.634 432.084L196.39 437.264L198.721 431.934L191.391 426.597L188.634 432.084ZM182.707 418.934L191.071 425.023L193.59 420.025L184.317 414.218L182.707 418.934ZM175.415 407.346L183.829 412.613L186.009 406.217L178.316 401.395L175.415 407.346ZM168.047 393.669L177.946 399.871L180.408 394.816L169.457 385.736L168.047 393.669ZM159.245 375.878L168.818 383.811L170.378 374.988L162.716 371.576L159.245 375.878Z" fill="#01265B"/>
<path d="M146.276 395.261L151.984 383.421L142.812 375.884L137.274 380.361L146.677 388.288L127.882 386.563L135.582 380.336L128.352 374.241L134.16 370.861L128.001 367.18L128.427 366.151L135.25 370.228L141.477 366.603L148.049 370.516L151.677 366.81L152.297 367.688L148.983 371.074L156.795 375.727L153.256 383.077L166.907 394.295L146.276 395.261ZM152.767 384.067L147.968 394.026L163.969 393.273L152.767 384.067ZM130.695 385.666L143.269 386.82L136.415 381.045L130.695 385.666ZM144.372 375.777L152.46 382.424L155.455 376.21L148.187 371.883L144.372 375.777ZM130.232 374.423L136.434 379.646L141.722 375.376L135.244 371.507L130.232 374.423ZM136.328 370.88L143.495 375.163L147.248 371.331L141.465 367.889L136.328 370.88Z" fill="#01265B"/>
<path d="M126.203 268.529H104.739L124.799 31.6904H130.588L126.203 268.529ZM107.915 265.08H123.402L127.662 35.1393H127.399L107.915 265.08Z" fill="#01265B"/>
<path d="M124.467 267.218L116.31 257.579L106.618 266.359L106.042 265.443L115.621 256.764L108.504 248.355L116.354 239.908L108.573 231.292L116.993 224.338L111.066 217.427L118.008 209.538L112.175 202.659L118.873 195.473L113.748 188.6L119.167 181.219L114.449 175.092L120.495 167.235L116.241 160.412L120.758 154.066L117.125 148.052L121.529 141.819L118.089 136.301L121.767 130.419L118.804 124.844L122.763 119.671L119.825 114.811L123.032 110.402L120.376 106.514L123.509 101.93L121.203 97.7726L123.997 93.4332L122.005 89.6142L124.373 86.021L122.475 82.5281L124.599 79.3488L122.964 75.787L124.899 73.0842L123.02 69.7857L125.037 66.9513L122.657 62.7561H129.279L126.24 67.0266L128.126 70.3439L126.109 73.1595L127.882 76.2698L125.745 79.468L127.456 83.1991L125.545 86.09L127.55 89.7773L125.156 93.4959L127.474 97.9357L124.693 101.999L127.167 106.464L124.285 110.427L127.518 115.155L123.991 119.758L126.76 124.336L122.926 130.469L126.309 136.828L122.751 141.863L126.459 147.82L121.967 154.129L126.328 161.347L121.729 167.317L125.82 173.876L120.445 181.2L126.391 188.926L120.207 195.561L125.47 202.615L119.367 209.551L126.453 217.904L118.484 224.488L125.025 232.107L117.764 239.921L125.877 248.907L117.074 256.883L125.131 266.403L124.467 267.218ZM109.895 248.386L116.392 256.062L124.392 248.813L117.056 240.686L109.895 248.386ZM110.095 231.417L117.062 239.131L123.628 232.063L117.688 225.14L110.095 231.417ZM112.438 217.433L117.789 223.667L124.962 217.741L118.685 210.335L112.438 217.433ZM113.56 202.697L118.691 208.742L124.141 202.546L119.499 196.319L113.56 202.697ZM115.013 188.594L119.568 194.701L125.025 188.844L119.806 182.066L115.013 188.594ZM115.746 175.086L119.793 180.347L124.592 173.813L121.072 168.169L115.746 175.086ZM117.457 160.456L121.147 166.376L125.094 161.253L121.328 155.019L117.457 160.456ZM118.334 148.103L121.391 153.163L125.238 147.764L122.118 142.754L118.334 148.103ZM119.28 136.295L122.162 140.916L125.125 136.727L122.318 131.441L119.28 136.295ZM120 124.957L122.375 129.428L125.57 124.317L123.327 120.611L120 124.957ZM121.046 114.867L123.421 118.793L126.253 115.099L123.646 111.286L121.046 114.867ZM121.61 106.502L123.671 109.512L125.964 106.357L124.06 102.915L121.61 106.502ZM122.381 97.8103L124.141 100.996L126.297 97.8416L124.536 94.4616L122.381 97.8103ZM123.17 89.6832L124.618 92.4549L126.378 89.7146L124.924 87.0306L123.17 89.6832ZM123.653 82.5909L125 85.0679L126.315 83.0737L125.1 80.4274L123.653 82.5909ZM124.123 75.9187L125.244 78.3643L126.691 76.2008L125.463 74.0499L124.123 75.9187ZM124.223 69.8485L125.545 72.1687L126.917 70.2498L125.595 67.917L124.223 69.8485ZM124.467 63.8974L125.683 66.0358L127.205 63.8974H124.467Z" fill="#01265B"/>
<path d="M124.442 250.023L108.378 249.59L108.422 247.289L124.486 247.722L124.442 250.023Z" fill="#01265B"/>
<path d="M125.288 233.255L109.224 232.822L109.268 230.527L125.332 230.96L125.288 233.255Z" fill="#01265B"/>
<path d="M126.127 218.487L110.063 218.054L110.107 215.759L126.171 216.192L126.127 218.487Z" fill="#01265B"/>
<path d="M126.108 203.675L111.31 203.249L111.36 201.041L126.152 201.474L126.108 203.675Z" fill="#01265B"/>
<path d="M126.221 188.87L112.57 188.437L112.614 186.317L126.272 186.75L126.221 188.87Z" fill="#01265B"/>
<path d="M127.117 175.462L113.466 175.03L113.516 172.91L127.167 173.343L127.117 175.462Z" fill="#01265B"/>
<path d="M127.124 162.005L114.794 161.572L114.844 159.559L127.174 159.992L127.124 162.005Z" fill="#01265B"/>
<path d="M127.725 148.586L115.696 148.153L115.746 146.165L127.775 146.598L127.725 148.586Z" fill="#01265B"/>
<path d="M127.725 137.461L117.72 137.028L117.776 135.216L127.781 135.649L127.725 137.461Z" fill="#01265B"/>
<path d="M127.124 125.871L118.409 125.439L118.465 123.746L127.186 124.179L127.124 125.871Z" fill="#01265B"/>
<path d="M127.086 115.906L119.273 115.474L119.336 113.876L127.142 114.309L127.086 115.906Z" fill="#01265B"/>
<path d="M128.038 107.177L120.232 106.745L120.294 105.147L128.101 105.58L128.038 107.177Z" fill="#01265B"/>
<path d="M128.207 98.4921L120.401 98.0598L120.464 96.4559L128.27 96.8882L128.207 98.4921Z" fill="#01265B"/>
<path d="M128.207 90.7475L120.401 90.3152L120.464 88.7176L128.27 89.1499L128.207 90.7475Z" fill="#01265B"/>
<path d="M128.214 83.4798L121.924 83.0475L121.992 81.6128L128.283 82.0451L128.214 83.4798Z" fill="#01265B"/>
<path d="M128.427 77.0331L122.136 76.6008L122.205 75.1661L128.495 75.5984L128.427 77.0331Z" fill="#01265B"/>
<path d="M128.577 70.781L122.287 70.3487L122.356 68.9141L128.646 69.3463L128.577 70.781Z" fill="#01265B"/>
<path d="M87.272 342.449L106.167 276.85L123.879 280.512L112.664 342.456H115.596L127.312 277.721L104.257 272.956L84.2397 342.449H87.272Z" fill="#01265B"/>
<path d="M114.13 342.456L125.595 279.12H120.495L107.426 342.456H114.13Z" fill="#01265B"/>
<path d="M94.3199 342.456H95.7107L89.6274 335.589L114.706 320.652L98.2668 301.802L121.191 284.488L120.683 283.516L96.7194 301.614L113.059 320.351L87.9734 335.294L94.3199 342.456Z" fill="#01265B"/>
<path d="M108.661 337.345L101.155 342.456H103.091L110.271 337.564L93.3989 318.871L117.501 303.137L103.743 283.629L103.016 284.375L116.009 302.805L91.77 318.626L108.661 337.345Z" fill="#01265B"/>
<path d="M117.651 304.404L97.4271 302.855L97.5524 300.56L117.77 302.109L117.651 304.404Z" fill="#01265B"/>
<path d="M113.823 321.649L92.5155 319.893L92.6471 317.604L113.948 319.354L113.823 321.649Z" fill="#01265B"/>
<path d="M109.4 338.599L87.6602 336.755L87.7917 334.467L109.531 336.31L109.4 338.599Z" fill="#01265B"/>
<path d="M43.0348 462.398L40.5914 460.592L89.8095 364.422L92.2528 366.228L43.0348 462.398Z" fill="#01265B"/>
<path d="M57.5195 462.411L55.0886 460.586L105.021 364.416L107.452 366.241L57.5195 462.411Z" fill="#01265B"/>
<path d="M130.006 374.155H72.8314V376.455H130.006V374.155Z" fill="#01265B"/>
<path d="M103.01 393.488H62.5066V395.788H103.01V393.488Z" fill="#01265B"/>
<path d="M84.6031 405.823H55.1575V408.168H84.6031V405.823Z" fill="#01265B"/>
<path d="M76.0955 418.634H47.8716V420.934H76.0955V418.634Z" fill="#01265B"/>
<path d="M70.8829 430.524H41.0676V432.888H70.8829V430.524Z" fill="#01265B"/>
<path d="M64.5865 442.865H33.8816V445.26H64.5865V442.865Z" fill="#01265B"/>
<path d="M131.441 365.331H128.571V389.467H131.441V365.331Z" fill="#01265B"/>
<path d="M112.965 392.529L110.171 391.77L115.352 364.184L118.146 364.943L112.965 392.529Z" fill="#01265B"/>
<path d="M42.5838 461.306H23.9453L37.6093 451.806L34.3139 443.792L45.4782 437.584L42.0638 431.495L51.5741 425.588L48.1972 419.567L59.2926 412.707L56.5548 405.803L65.0501 399.896L62.4564 393.782L74.4602 383.849V373.847L80.6187 370.962L78.0626 367.03L78.8144 366.322L81.5459 370.529L88.8572 367.099L89.2018 368.172L82.1599 371.476L85.2862 376.292L75.4125 384.463V394.026L66.3157 400.36L69.4482 407.741L60.5581 413.234L63.1268 419.718L52.9712 426.026L56.6801 432.63L46.9004 438.066L50.3712 444.262L38.8561 452.264L42.5838 461.306ZM27.5038 460.152H41.0426L38.0354 452.828L27.5038 460.152ZM35.6108 444.337L38.4426 451.229L49.0117 443.88L46.0233 438.549L35.6108 444.337ZM43.4671 431.921L46.3678 437.088L55.2704 432.141L52.1254 426.541L43.4671 431.921ZM49.6006 419.994L52.4386 425.048L61.8738 419.185L59.7123 413.736L49.6006 419.994ZM57.8015 406.267L60.1446 412.18L68.1639 407.226L65.4887 400.924L57.8015 406.267ZM63.6906 394.152L65.8834 399.313L74.4602 393.343V385.235L63.6906 394.152ZM75.4188 374.624V383.052L83.9141 376.023L81.239 371.896L75.4188 374.624Z" fill="#01265B"/>
<path d="M42.2828 461.344L53.6163 452.608L50.8409 444.582L60.9777 437.815L58.2211 431.501L66.3217 425.606L63.2769 419.561L73.5328 413.146L70.9892 405.683L79.4156 400.403L76.5337 394.477L88.5438 384.526L86.7269 374.266L94.7712 370.692L91.3192 366.415L92.0021 365.613L95.7486 370.253L103.912 366.622L104.244 367.701L96.4753 371.156L100.435 376.06L89.6026 385.033L91.2377 394.289L80.7376 400.867L84.1144 407.816L74.7357 413.685L76.6841 419.41L67.6249 426.001L70.8952 432.504L62.2495 438.279L65.2003 445.039L54.7941 453.06L57.5444 461.024L42.2828 461.344ZM53.9859 453.681L45.6346 460.121L56.1285 459.895L53.9859 453.681ZM52.05 445.083L54.4307 451.975L63.9598 444.632L61.4225 438.825L52.05 445.083ZM59.4866 431.921L61.8172 437.251L69.5795 432.071L66.8229 426.584L59.4866 431.921ZM64.6239 420.006L67.1362 425.004L75.5 418.921L73.8961 414.206L64.6239 420.006ZM72.2046 406.21L74.3848 412.606L82.7988 407.339L79.9043 401.388L72.2046 406.21ZM77.8055 394.81L80.2614 399.864L90.1602 393.662L88.7568 385.73L77.8055 394.81ZM87.8358 374.988L89.3958 383.811L98.9688 375.878L95.5042 371.582L87.8358 374.988Z" fill="#01265B"/>
<path d="M111.937 395.255L91.313 394.283L104.964 383.07L101.425 375.721L109.243 371.074L105.929 367.688L106.55 366.81L110.177 370.516L116.749 366.609L122.976 370.234L129.799 366.164L130.225 367.192L124.067 370.867L129.874 374.247L122.644 380.342L130.344 386.569L111.549 388.288L120.959 380.361L115.421 375.884L106.249 383.422L111.937 395.255ZM94.2388 393.273L110.24 394.026L105.441 384.067L94.2388 393.273ZM121.799 381.045L114.945 386.82L127.519 385.673L121.799 381.045ZM102.765 376.204L105.76 382.418L113.848 375.771L110.033 371.877L102.765 376.204ZM116.498 375.376L121.786 379.653L127.988 374.429L122.976 371.513L116.498 375.376ZM110.966 371.325L114.719 375.156L121.886 370.873L116.749 367.882L110.966 371.325Z" fill="#01265B"/>
<path d="M157.722 272.078H100.472V285.441H157.722V272.078Z" fill="#01265B"/>
<path d="M160.742 264.176H96.3308V272.799H160.742V264.176Z" fill="#01265B"/>
<path d="M135.957 31.6904H122.325V37.3405H135.957V31.6904Z" fill="#01265B"/>
<path d="M138.557 36.8637H119.048V49.7002H138.557V36.8637Z" fill="#01265B"/>
<path d="M131.948 26.8995H125.501V33.0324H131.948V26.8995Z" fill="#01265B"/>
<path d="M130.281 0.843933H127.174V29.2948H130.281V0.843933Z" fill="#01265B"/>
<path d="M133.62 48.0699H124.342V63.3207H133.62V48.0699Z" fill="#01265B"/>
<path d="M184.668 368.21L72.6741 368.198V341.76L184.668 341.772V368.21ZM73.6264 367.05L183.715 367.063V342.926L73.6326 342.913L73.6264 367.05Z" fill="#01265B"/>
<path d="M184.191 352.69H73.1501V367.633H184.191V352.69Z" fill="#01265B"/>
<path d="M79.2212 342.336H78.2563V354.978H79.2212V342.336Z" fill="#01265B"/>
<path d="M84.7342 342.336H83.7694V354.978H84.7342V342.336Z" fill="#01265B"/>
<path d="M90.2473 342.336H89.2825V354.978H90.2473V342.336Z" fill="#01265B"/>
<path d="M95.7672 342.336H94.8024V354.978H95.7672V342.336Z" fill="#01265B"/>
<path d="M101.28 342.336H100.315V354.978H101.28V342.336Z" fill="#01265B"/>
<path d="M106.793 342.336H105.828V354.978H106.793V342.336Z" fill="#01265B"/>
<path d="M112.313 342.342H111.348V354.984H112.313V342.342Z" fill="#01265B"/>
<path d="M117.826 342.342H116.861V354.984H117.826V342.342Z" fill="#01265B"/>
<path d="M123.339 342.342H122.374V354.984H123.339V342.342Z" fill="#01265B"/>
<path d="M128.859 342.342H127.894V354.984H128.859V342.342Z" fill="#01265B"/>
<path d="M134.372 342.342H133.407V354.984H134.372V342.342Z" fill="#01265B"/>
<path d="M139.885 342.342H138.92V354.984H139.885V342.342Z" fill="#01265B"/>
<path d="M145.405 342.342H144.44V354.984H145.405V342.342Z" fill="#01265B"/>
<path d="M150.918 342.342H149.953V354.984H150.918V342.342Z" fill="#01265B"/>
<path d="M156.431 342.342H155.466V354.984H156.431V342.342Z" fill="#01265B"/>
<path d="M161.951 342.342H160.986V354.984H161.951V342.342Z" fill="#01265B"/>
<path d="M167.464 342.342H166.499V354.984H167.464V342.342Z" fill="#01265B"/>
<path d="M172.977 342.342H172.012V354.984H172.977V342.342Z" fill="#01265B"/>
<path d="M178.497 342.348H177.532V354.99H178.497V342.348Z" fill="#01265B"/>
<path d="M258 463.232H187.951V461.508C187.951 428.968 161.506 402.499 128.997 402.499C96.4876 402.499 70.043 428.968 70.043 461.508V463.232H0L67.3615 363.607H190.588L258 463.232ZM191.371 459.783H251.503L188.759 367.056H69.1909L6.49057 459.783H66.6223C67.537 426.14 95.1657 399.05 128.997 399.05C162.828 399.05 190.457 426.134 191.371 459.783Z" fill="#01265B"/>
<path d="M128.997 384.107C86.2882 384.107 51.6677 418.759 51.6677 461.508H68.3202C68.3202 427.965 95.4853 400.775 128.997 400.775C162.509 400.775 189.674 427.965 189.674 461.508H206.326C206.326 418.759 171.706 384.107 128.997 384.107Z" fill="#01265B"/>
<path d="M158.085 268.529H132.292L127.048 31.6903H134.002L158.085 268.529ZM135.663 265.08H154.276L130.889 35.1393H130.569L135.663 265.08Z" fill="#01265B"/>
<path d="M134.379 267.218L133.577 266.396L143.263 256.877L132.687 248.901L142.436 239.914L133.708 232.101L141.571 224.482L131.992 217.897L140.506 209.551L133.176 202.615L139.504 195.561L132.073 188.926L139.222 181.2L132.762 173.876L137.68 167.317L132.155 161.347L137.399 154.129L132.004 147.82L136.465 141.869L132.186 136.834L136.252 130.475L131.641 124.342L134.968 119.765L130.733 115.162L134.617 110.433L131.152 106.47L134.122 102.005L130.783 97.9419L133.564 93.5021L130.689 89.7772L133.094 86.09L130.801 83.1991L132.863 79.4679L130.3 76.2698L132.43 73.1594L130.006 70.3438L132.274 67.0265L128.621 62.756H136.578L133.715 66.9513L136.139 69.7857L133.878 73.0842L136.208 75.7869L134.241 79.3488L136.797 82.5281L134.517 86.021L137.367 89.6142L134.974 93.4331L138.332 97.7726L135.563 101.93L139.328 106.514L136.133 110.402L139.986 114.811L136.459 119.664L141.22 124.838L137.655 130.412L142.078 136.301L137.944 141.819L143.238 148.052L138.871 154.066L144.296 160.412L139.184 167.235L146.451 175.092L140.782 181.219L147.297 188.6L141.139 195.466L149.189 202.653L142.179 209.526L150.517 217.415L143.394 224.319L153.493 231.286L144.14 239.902L153.569 248.349L145.011 256.758L156.519 265.437L155.83 266.352L144.184 257.567L134.379 267.218ZM134.473 248.813L144.083 256.062L151.889 248.386L143.288 240.686L134.473 248.813ZM135.394 232.07L143.281 239.137L151.651 231.424L142.53 225.153L135.394 232.07ZM133.79 217.741L142.411 223.667L148.838 217.433L141.339 210.335L133.79 217.741ZM134.78 202.546L141.327 208.742L147.491 202.697L140.356 196.326L134.78 202.546ZM133.708 188.844L140.268 194.701L145.744 188.594L139.98 182.066L133.708 188.844ZM134.235 173.813L139.998 180.347L144.866 175.086L138.464 168.163L134.235 173.813ZM133.633 161.253L138.376 166.376L142.811 160.456L138.163 155.019L133.633 161.253ZM133.47 147.764L138.088 153.163L141.765 148.103L137.223 142.754L133.47 147.764ZM133.602 136.721L137.16 140.91L140.625 136.288L136.979 131.435L133.602 136.721ZM133.063 124.311L136.904 129.422L139.76 124.951L135.757 120.599L133.063 124.311ZM132.249 115.105L135.651 118.799L138.507 114.873L135.381 111.299L132.249 115.105ZM132.593 106.357L135.35 109.512L137.825 106.502L134.88 102.921L132.593 106.357ZM132.192 97.8353L134.786 100.99L136.904 97.8102L134.31 94.4553L132.192 97.8353ZM132.098 89.7082L134.216 92.4486L135.951 89.6769L133.846 87.0243L132.098 89.7082ZM132.173 83.0737L133.752 85.0678L135.369 82.5908L133.633 80.4274L132.173 83.0737ZM131.722 76.2071L133.458 78.3705L134.811 75.9249L133.201 74.0561L131.722 76.2071ZM131.447 70.2497L133.101 72.1686L134.692 69.8484L133.038 67.917L131.447 70.2497ZM131.108 63.8973L132.938 66.0357L134.398 63.8973H131.108Z" fill="#01265B"/>
<path d="M153.666 247.275L134.357 247.709L134.409 250.01L153.718 249.575L153.666 247.275Z" fill="#01265B"/>
<path d="M152.651 230.507L133.341 230.942L133.393 233.241L152.702 232.807L152.651 230.507Z" fill="#01265B"/>
<path d="M151.642 215.746L132.332 216.181L132.384 218.48L151.693 218.046L151.642 215.746Z" fill="#01265B"/>
<path d="M150.139 201.04L132.351 201.474L132.405 203.68L150.193 203.246L150.139 201.04Z" fill="#01265B"/>
<path d="M148.621 186.309L132.213 186.744L132.269 188.861L148.677 188.427L148.621 186.309Z" fill="#01265B"/>
<path d="M147.543 172.902L131.135 173.337L131.191 175.454L147.599 175.019L147.543 172.902Z" fill="#01265B"/>
<path d="M145.96 159.56L131.143 159.99L131.201 162.001L146.018 161.571L145.96 159.56Z" fill="#01265B"/>
<path d="M144.883 146.177L130.422 146.61L130.482 148.595L144.942 148.162L144.883 146.177Z" fill="#01265B"/>
<path d="M142.445 135.218L130.417 135.65L130.482 137.46L142.51 137.028L142.445 135.218Z" fill="#01265B"/>
<path d="M141.616 123.748L131.136 124.179L131.206 125.869L141.685 125.438L141.616 123.748Z" fill="#01265B"/>
<path d="M140.566 113.891L131.178 114.319L131.251 115.921L140.639 115.494L140.566 113.891Z" fill="#01265B"/>
<path d="M139.42 105.155L130.032 105.583L130.105 107.185L139.493 106.758L139.42 105.155Z" fill="#01265B"/>
<path d="M139.214 96.4705L129.825 96.8981L129.898 98.5004L139.287 98.0728L139.214 96.4705Z" fill="#01265B"/>
<path d="M139.213 88.7256L129.825 89.1532L129.898 90.7554L139.286 90.3279L139.213 88.7256Z" fill="#01265B"/>
<path d="M137.375 81.6109L129.818 82.0423L129.9 83.4747L137.456 83.0433L137.375 81.6109Z" fill="#01265B"/>
<path d="M137.118 75.1644L129.562 75.5958L129.644 77.0282L137.2 76.5968L137.118 75.1644Z" fill="#01265B"/>
<path d="M136.936 68.9123L129.38 69.3437L129.461 70.7761L137.017 70.3447L136.936 68.9123Z" fill="#01265B"/>
<path d="M148.481 342.142L135.087 280.512L156.369 276.85L178.961 342.142H182.607L158.668 272.955L130.952 277.721L144.96 342.142H148.481Z" fill="#01265B"/>
<path d="M154.765 342.142L139.146 279.12H133.019L146.721 342.142H154.765Z" fill="#01265B"/>
<path d="M146.094 320.652L176.235 335.589L169.256 342.142H170.935L178.227 335.294L148.08 320.351L167.721 301.614L138.921 283.516L138.313 284.488L165.86 301.802L146.094 320.652Z" fill="#01265B"/>
<path d="M151.432 337.571L159.501 342.142H161.832L153.368 337.345L173.673 318.633L144.534 302.805L160.159 284.375L159.282 283.635L142.749 303.137L171.712 318.877L151.432 337.571Z" fill="#01265B"/>
<path d="M166.732 300.56L142.429 302.107L142.575 304.402L166.878 302.856L166.732 300.56Z" fill="#01265B"/>
<path d="M172.62 317.605L147.018 319.348L147.174 321.644L172.777 319.901L172.62 317.605Z" fill="#01265B"/>
<path d="M178.439 334.463L152.31 336.304L152.472 338.6L178.6 336.758L178.439 334.463Z" fill="#01265B"/>
<path d="M176.02 364.427L173.085 366.235L232.249 462.395L235.184 460.588L176.02 364.427Z" fill="#01265B"/>
<path d="M157.74 364.418L154.817 366.245L214.843 462.409L217.767 460.583L157.74 364.418Z" fill="#01265B"/>
<path d="M196.421 374.155H127.706V376.455H196.421V374.155Z" fill="#01265B"/>
<path d="M208.838 393.494H160.153V395.796H208.838V393.494Z" fill="#01265B"/>
<path d="M217.666 405.829H182.275V408.174H217.666V405.829Z" fill="#01265B"/>
<path d="M226.418 418.64H192.493V420.942H226.418V418.64Z" fill="#01265B"/>
<path d="M234.594 430.536H198.758V432.9H234.594V430.536Z" fill="#01265B"/>
<path d="M243.234 442.871H206.326V445.267H243.234V442.871Z" fill="#01265B"/>
<path d="M129.429 365.331H125.984V389.467H129.429V365.331Z" fill="#01265B"/>
<path d="M145.345 364.188L141.983 364.947L148.21 392.534L151.572 391.775L145.345 364.188Z" fill="#01265B"/>
<path d="M255.168 461.313H232.765L237.238 452.264L223.405 444.256L227.577 438.06L215.824 432.617L220.285 426.014L208.081 419.705L211.169 413.221L200.481 407.728L204.246 400.347L193.308 394.014V384.451L181.442 376.28L185.201 371.464L176.737 368.159L177.156 367.087L185.94 370.517L189.223 366.315L190.125 367.024L187.055 370.956L194.454 373.847V383.849L208.882 393.782L205.762 399.896L215.968 405.803L212.679 412.707L226.011 419.567L221.951 425.588L233.379 431.495L229.275 437.584L242.695 443.792L238.735 451.806L255.168 461.313ZM234.619 460.165H250.889L238.234 452.841L234.619 460.165ZM225.046 443.88L237.752 451.229L241.154 444.344L228.636 438.549L225.046 443.88ZM217.528 432.147L228.229 437.101L231.712 431.934L221.306 426.553L217.528 432.147ZM209.59 419.198L220.93 425.061L224.345 420.006L212.19 413.754L209.59 419.198ZM202.028 407.226L211.664 412.18L214.483 406.267L205.242 400.924L202.028 407.226ZM194.46 393.355L204.773 399.325L207.404 394.164L194.46 385.247V393.355ZM183.102 376.029L193.314 383.059V374.63L186.322 371.903L183.102 376.029Z" fill="#01265B"/>
<path d="M233.128 461.35L214.772 461.024L218.08 453.06L205.568 445.033L209.121 438.273L198.727 432.498L202.661 425.995L191.773 419.398L194.116 413.672L182.839 407.803L186.899 400.855L174.274 394.277L176.242 385.021L163.229 376.047L167.991 371.143L158.656 367.688L159.057 366.61L168.874 370.24L173.379 365.6L174.199 366.403L170.052 370.679L179.719 374.254L177.539 384.513L191.973 394.471L188.509 400.397L198.639 405.677L195.582 413.139L207.905 419.555L204.246 425.6L213.982 431.494L210.668 437.809L222.847 444.575L219.514 452.602L233.128 461.35ZM216.482 459.901L229.094 460.127L219.057 453.687L216.482 459.901ZM207.078 444.638L218.524 451.981L221.388 445.089L210.123 438.831L207.078 444.638ZM200.331 432.077L209.653 437.257L212.454 431.927L203.645 426.597L200.331 432.077ZM193.214 418.927L203.263 425.016L206.289 420.019L195.15 414.218L193.214 418.927ZM184.449 407.345L194.561 412.613L197.179 406.216L187.932 401.394L184.449 407.345ZM175.59 393.662L187.487 399.864L190.445 394.81L177.282 385.73L175.59 393.662ZM165.009 375.878L176.511 383.811L178.384 374.988L169.175 371.582L165.009 375.878Z" fill="#01265B"/>
<path d="M149.414 395.255L156.268 383.415L145.242 375.877L138.588 380.355L149.897 388.281L127.305 386.557L136.559 380.33L127.869 374.235L134.854 370.854L127.455 367.18L127.963 366.151L136.158 370.227L143.644 366.603L151.538 370.51L155.899 366.804L156.644 367.681L152.66 371.068L162.051 375.721L157.797 383.07L174.205 394.289L149.414 395.255ZM157.221 384.067L151.457 394.025L170.69 393.273L157.221 384.067ZM130.694 385.666L145.806 386.82L137.567 381.045L130.694 385.666ZM147.128 375.777L156.851 382.424L160.447 376.21L151.707 371.883L147.128 375.777ZM130.131 374.423L137.586 379.646L143.939 375.37L136.158 371.5L130.131 374.423ZM137.461 370.873L146.075 375.156L150.586 371.325L143.638 367.888L137.461 370.873Z" fill="#01265B"/>
<path d="M125.275 268.529H99.4822L123.565 31.6903H130.519L125.275 268.529ZM103.298 265.08H121.911L127.004 35.1393H126.685L103.298 265.08Z" fill="#01265B"/>
<path d="M123.189 267.218L113.384 257.58L101.738 266.365L101.048 265.449L112.557 256.771L103.999 248.361L113.428 239.915L104.074 231.298L114.193 224.344L107.069 217.44L115.408 209.551L108.397 202.678L116.448 195.492L110.289 188.625L116.805 181.244L111.135 175.118L118.403 167.26L113.29 160.438L118.716 154.091L114.349 148.078L119.643 141.844L115.508 136.326L119.931 130.438L116.366 124.863L121.128 119.689L117.601 114.836L121.454 110.427L118.259 106.539L122.024 101.955L119.255 97.7978L122.613 93.4583L120.219 89.6394L123.07 86.0462L120.79 82.5533L123.346 79.374L121.378 75.8121L123.709 73.1094L121.447 69.8109L123.872 66.9765L121.009 62.7812H128.972L125.319 67.0517L127.587 70.369L125.163 73.1846L127.293 76.295L124.73 79.4931L126.791 83.2243L124.498 86.1152L126.904 89.8024L124.029 93.5273L126.81 97.9671L123.471 102.031L126.441 106.495L122.976 110.459L126.86 115.187L122.625 119.79L125.952 124.367L121.341 130.5L125.407 136.859L121.128 141.895L125.589 147.846L120.194 154.154L125.438 161.372L119.912 167.342L124.831 173.901L118.346 181.194L125.495 188.92L118.064 195.554L124.392 202.609L117.062 209.545L125.576 217.891L115.997 224.476L123.859 232.095L115.132 239.908L124.881 248.894L114.305 256.871L123.991 266.39L123.189 267.218ZM105.672 248.386L113.478 256.062L123.089 248.813L114.268 240.686L105.672 248.386ZM105.916 231.417L114.286 239.131L122.174 232.063L115.032 225.14L105.916 231.417ZM108.729 217.433L115.157 223.667L123.778 217.741L116.229 210.341L108.729 217.433ZM110.076 202.697L116.241 208.742L122.788 202.546L117.206 196.319L110.076 202.697ZM111.824 188.594L117.3 194.702L123.859 188.845L117.588 182.066L111.824 188.594ZM112.701 175.086L117.569 180.348L123.333 173.813L119.104 168.169L112.701 175.086ZM114.756 160.456L119.192 166.376L123.935 161.253L119.405 155.019L114.756 160.456ZM115.803 148.103L119.48 153.163L124.098 147.764L120.345 142.754L115.803 148.103ZM116.943 136.295L120.407 140.916L123.966 136.727L120.589 131.441L116.943 136.295ZM117.807 124.957L120.664 129.428L124.505 124.317L121.811 120.611L117.807 124.957ZM119.06 114.867L121.917 118.793L125.319 115.099L122.187 111.286L119.06 114.867ZM119.743 106.502L122.218 109.512L124.975 106.358L122.682 102.921L119.743 106.502ZM120.664 97.8103L122.782 100.99L125.376 97.8354L123.258 94.4554L120.664 97.8103ZM121.617 89.6833L123.352 92.455L125.47 89.7146L123.722 87.0307L121.617 89.6833ZM122.193 82.5909L123.809 85.0679L125.388 83.0738L123.928 80.4275L122.193 82.5909ZM122.757 75.9187L124.11 78.3644L125.845 76.2009L124.367 74.05L122.757 75.9187ZM122.882 69.8548L124.473 72.175L126.127 70.2561L124.536 67.9234L122.882 69.8548ZM123.17 63.8975L124.63 66.0358L126.459 63.8975H123.17Z" fill="#01265B"/>
<path d="M103.916 247.285L103.865 249.585L123.176 250.016L123.227 247.716L103.916 247.285Z" fill="#01265B"/>
<path d="M104.929 230.521L104.878 232.822L124.189 233.253L124.24 230.952L104.929 230.521Z" fill="#01265B"/>
<path d="M105.941 215.751L105.89 218.051L125.201 218.482L125.253 216.182L105.941 215.751Z" fill="#01265B"/>
<path d="M107.424 201.037L107.37 203.243L125.158 203.674L125.211 201.468L107.424 201.037Z" fill="#01265B"/>
<path d="M108.94 186.305L108.885 188.424L125.294 188.855L125.35 186.736L108.94 186.305Z" fill="#01265B"/>
<path d="M110.022 172.9L109.967 175.018L126.376 175.449L126.432 173.33L110.022 172.9Z" fill="#01265B"/>
<path d="M111.611 159.548L111.552 161.558L126.37 161.988L126.428 159.978L111.611 159.548Z" fill="#01265B"/>
<path d="M112.705 146.168L112.646 148.154L127.106 148.585L127.165 146.6L112.705 146.168Z" fill="#01265B"/>
<path d="M115.136 135.216L115.072 137.026L127.099 137.457L127.164 135.647L115.136 135.216Z" fill="#01265B"/>
<path d="M115.97 123.747L115.901 125.437L126.38 125.868L126.449 124.178L115.97 123.747Z" fill="#01265B"/>
<path d="M116.995 113.876L116.922 115.478L126.309 115.908L126.383 114.306L116.995 113.876Z" fill="#01265B"/>
<path d="M118.144 105.146L118.071 106.748L127.458 107.178L127.531 105.576L118.144 105.146Z" fill="#01265B"/>
<path d="M118.351 96.4613L118.278 98.0634L127.665 98.4938L127.738 96.8917L118.351 96.4613Z" fill="#01265B"/>
<path d="M118.348 88.7199L118.274 90.322L127.662 90.7524L127.735 89.1503L118.348 88.7199Z" fill="#01265B"/>
<path d="M120.202 81.6167L120.121 83.0491L127.677 83.4798L127.758 82.0474L120.202 81.6167Z" fill="#01265B"/>
<path d="M120.458 75.1692L120.377 76.6016L127.933 77.0322L128.015 75.5998L120.458 75.1692Z" fill="#01265B"/>
<path d="M120.636 68.9163L120.554 70.3487L128.11 70.7793L128.192 69.3469L120.636 68.9163Z" fill="#01265B"/>
<path d="M78.5006 342.456L101.199 276.85L122.481 280.512L109.018 342.456H112.545L126.616 277.721L98.8995 272.955L74.8544 342.456H78.5006Z" fill="#01265B"/>
<path d="M110.778 342.456L124.549 279.12H118.422L102.722 342.456H110.778Z" fill="#01265B"/>
<path d="M86.9647 342.456H88.6438L81.3325 335.589L111.474 320.652L91.7074 301.802L119.255 284.488L118.647 283.516L89.8467 301.614L109.488 320.351L79.3402 335.294L86.9647 342.456Z" fill="#01265B"/>
<path d="M104.2 337.345L95.1783 342.456H97.5152L106.136 337.571L85.856 318.877L114.819 303.137L98.2858 283.635L97.4087 284.375L113.034 302.805L83.895 318.633L104.2 337.345Z" fill="#01265B"/>
<path d="M90.8516 300.554L90.7053 302.851L115.009 304.401L115.155 302.104L90.8516 300.554Z" fill="#01265B"/>
<path d="M84.9541 317.588L84.7977 319.884L110.4 321.631L110.557 319.334L84.9541 317.588Z" fill="#01265B"/>
<path d="M79.1144 334.47L78.953 336.766L105.082 338.607L105.243 336.311L79.1144 334.47Z" fill="#01265B"/>
<path d="M81.5266 364.419L22.394 460.591L25.3285 462.399L84.461 366.226L81.5266 364.419Z" fill="#01265B"/>
<path d="M99.8443 364.412L39.849 460.601L42.772 462.427L102.767 366.239L99.8443 364.412Z" fill="#01265B"/>
<path d="M129.861 374.155H61.1466V376.455H129.861V374.155Z" fill="#01265B"/>
<path d="M97.4212 393.494H48.7357V395.795H97.4212V393.494Z" fill="#01265B"/>
<path d="M75.2993 405.829H39.9082V408.174H75.2993V405.829Z" fill="#01265B"/>
<path d="M65.0748 418.641H31.1497V420.942H65.0748V418.641Z" fill="#01265B"/>
<path d="M58.81 430.536H22.974V432.9H58.81V430.536Z" fill="#01265B"/>
<path d="M51.2414 442.871H14.3341V445.267H51.2414V442.871Z" fill="#01265B"/>
<path d="M131.584 365.331H128.139V389.468H131.584V365.331Z" fill="#01265B"/>
<path d="M112.24 364.172L106.024 391.761L109.385 392.52L115.601 364.931L112.24 364.172Z" fill="#01265B"/>
<path d="M24.7969 461.313H2.39941L18.8263 451.806L14.8668 443.792L28.2865 437.584L24.1829 431.495L35.6103 425.588L31.5506 419.568L44.8888 412.707L41.5997 405.803L51.8054 399.896L48.6854 393.782L63.1138 383.849V373.847L70.5128 370.956L67.4429 367.024L68.3451 366.315L71.6279 370.517L80.4115 367.087L80.8313 368.159L72.3672 371.464L76.1262 376.28L64.2603 384.451V394.014L53.3215 400.347L57.0868 407.728L46.4049 413.228L49.4936 419.706L37.2893 426.014L41.7438 432.617L29.9906 438.06L34.1694 444.256L20.3362 452.264L24.7969 461.313ZM6.67843 460.165H22.9487L19.3338 452.841L6.67843 460.165ZM16.4143 444.344L19.8162 451.235L32.5217 443.886L28.9318 438.556L16.4143 444.344ZM25.8557 431.927L29.339 437.095L40.0397 432.141L36.2619 426.541L25.8557 431.927ZM33.2233 420L36.6378 425.055L47.9775 419.191L45.3775 413.742L33.2233 420ZM43.0845 406.273L45.9037 412.187L55.5394 407.227L52.3254 400.924L43.0845 406.273ZM50.164 394.158L52.7953 399.319L63.1075 393.349V385.247L50.164 394.158ZM64.254 374.631V383.059L74.466 376.029L71.2458 371.903L64.254 374.631Z" fill="#01265B"/>
<path d="M24.4396 461.35L38.0597 452.615L34.7267 444.588L46.9122 437.822L43.598 431.507L53.3339 425.612L49.6751 419.567L61.9984 413.152L58.9411 405.69L69.0716 400.41L65.6071 394.484L80.0417 384.526L77.8614 374.267L87.5284 370.692L83.3809 366.415L84.2079 365.613L88.7125 370.253L98.5298 366.622L98.9307 367.701L89.5958 371.156L94.3573 376.06L81.3448 385.034L83.312 394.289L70.688 400.867L74.7477 407.816L63.4769 413.685L65.8201 419.41L54.9315 426.007L58.8659 432.51L48.4722 438.286L52.0245 445.046L39.5195 453.072L42.8274 461.036L24.4396 461.35ZM38.5046 453.693L28.468 460.133L41.0795 459.908L38.5046 453.693ZM36.174 445.09L39.0371 451.981L50.4833 444.638L47.4322 438.831L36.174 445.09ZM45.1079 431.927L47.9084 437.257L57.237 432.078L53.9228 426.591L45.1079 431.927ZM51.2852 420.012L54.3112 425.01L64.3603 418.928L62.4307 414.212L51.2852 420.012ZM60.3946 406.21L63.0133 412.607L73.1251 407.339L69.648 401.388L60.3946 406.21ZM67.1295 394.81L70.0865 399.864L81.9838 393.662L80.2985 385.73L67.1295 394.81ZM79.1834 374.988L81.0566 383.811L92.5592 375.878L88.3929 371.583L79.1834 374.988Z" fill="#01265B"/>
<path d="M108.153 395.255L83.3623 394.283L99.7704 383.064L95.5165 375.714L104.908 371.061L100.923 367.675L101.669 366.797L106.029 370.503L113.923 366.597L121.41 370.221L129.604 366.145L130.112 367.174L122.713 370.848L129.698 374.228L121.009 380.324L130.262 386.551L107.671 388.275L118.979 380.349L112.326 375.871L101.299 383.409L108.153 395.255ZM86.877 393.273L106.111 394.025L100.347 384.067L86.877 393.273ZM120 381.045L111.762 386.82L126.873 385.666L120 381.045ZM97.1203 376.204L100.716 382.418L110.44 375.771L105.86 371.877L97.1203 376.204ZM113.629 375.376L119.981 379.653L127.437 374.429L121.416 371.513L113.629 375.376ZM106.981 371.325L111.492 375.156L120.107 370.873L113.929 367.882L106.981 371.325Z" fill="#01265B"/>
<path d="M163.166 272.078H94.3577V285.441H163.166V272.078Z" fill="#01265B"/>
<path d="M166.794 264.176H89.3767V272.799H166.794V264.176Z" fill="#01265B"/>
<path d="M136.972 31.6903H120.589V37.3405H136.972V31.6903Z" fill="#01265B"/>
<path d="M140.105 36.8636H116.655V49.7001H140.105V36.8636Z" fill="#01265B"/>
<path d="M132.154 26.8994H124.405V33.0323H132.154V26.8994Z" fill="#01265B"/>
<path d="M130.15 0.843872H126.416V29.2948H130.15V0.843872Z" fill="#01265B"/>
<path d="M134.166 48.0699H123.014V63.3207H134.166V48.0699Z" fill="#01265B"/>
<path d="M195.563 368.204H60.9524V341.766H195.556V368.204H195.563ZM62.1052 367.056H194.416V342.92H62.1052V367.056Z" fill="#01265B"/>
<path d="M194.987 352.69H61.5289V367.633H194.987V352.69Z" fill="#01265B"/>
<path d="M68.8213 342.342H67.6622V354.984H68.8213V342.342Z" fill="#01265B"/>
<path d="M75.4497 342.342H74.2906V354.984H75.4497V342.342Z" fill="#01265B"/>
<path d="M82.0782 342.342H80.9192V354.984H82.0782V342.342Z" fill="#01265B"/>
<path d="M88.7064 342.342H87.5474V354.984H88.7064V342.342Z" fill="#01265B"/>
<path d="M95.3349 342.342H94.1759V354.984H95.3349V342.342Z" fill="#01265B"/>
<path d="M101.963 342.342H100.804V354.984H101.963V342.342Z" fill="#01265B"/>
<path d="M108.591 342.342H107.432V354.984H108.591V342.342Z" fill="#01265B"/>
<path d="M115.22 342.342H114.061V354.984H115.22V342.342Z" fill="#01265B"/>
<path d="M121.848 342.342H120.689V354.984H121.848V342.342Z" fill="#01265B"/>
<path d="M128.477 342.342H127.318V354.984H128.477V342.342Z" fill="#01265B"/>
<path d="M135.105 342.342H133.946V354.984H135.105V342.342Z" fill="#01265B"/>
<path d="M141.733 342.342H140.574V354.984H141.733V342.342Z" fill="#01265B"/>
<path d="M148.362 342.342H147.203V354.984H148.362V342.342Z" fill="#01265B"/>
<path d="M154.99 342.342H153.831V354.984H154.99V342.342Z" fill="#01265B"/>
<path d="M161.625 342.342H160.466V354.984H161.625V342.342Z" fill="#01265B"/>
<path d="M168.253 342.342H167.094V354.984H168.253V342.342Z" fill="#01265B"/>
<path d="M174.882 342.342H173.723V354.984H174.882V342.342Z" fill="#01265B"/>
<path d="M181.51 342.342H180.351V354.984H181.51V342.342Z" fill="#01265B"/>
<path d="M188.139 342.342H186.98V354.984H188.139V342.342Z" fill="#01265B"/>
</svg>
