<svg width="640" height="592" viewBox="0 0 640 592" fill="none" xmlns="http://www.w3.org/2000/svg">
<circle cx="353.5" cy="254.5" r="201.5" fill="#FFE566"/>
<g clip-path="url(#clip0_1118_935)">
<path d="M636.748 448.178C630.911 450.287 458.332 453.673 451.828 449.732C451.078 449.343 448.27 392.306 448.27 392.306C448.465 391.501 445.602 386.005 441.183 378.372C428.87 356.917 404.827 318.532 404.827 318.532L507.251 287.612L549.333 371.794L560.062 393.277C560.062 393.277 583.576 402.464 604.117 411.624C604.144 411.651 604.172 411.651 604.172 411.679C616.819 417.286 627.826 422.448 630.383 424.363C636.97 429.359 642.557 446.124 636.748 448.178Z" fill="#EFBDB7"/>
<path d="M636.748 448.178C630.911 450.287 458.332 453.674 451.828 449.732C451.078 449.344 448.271 392.306 448.271 392.306C448.465 391.501 445.602 386.006 441.183 378.373L549.333 371.767L560.062 393.25C560.062 393.25 583.576 402.437 604.117 411.596C604.144 411.624 604.172 411.624 604.172 411.652C616.819 417.258 627.826 422.421 630.383 424.336C636.97 429.36 642.557 446.124 636.748 448.178Z" fill="white"/>
<path d="M637.47 448.817C631.467 450.926 458.638 453.896 451.967 449.843C449.438 448.317 446.38 421.755 448.243 392.278L559.672 390.502C559.672 390.502 624.212 418.979 631.022 424.197C637.832 429.443 643.474 446.679 637.47 448.817Z" fill="#73EEFF"/>
<path opacity="0.1" d="M497.189 451.814C472.591 451.703 454.08 451.12 451.967 449.871C449.438 448.344 446.38 421.782 448.243 392.306L450.967 392.251L497.189 451.814Z" fill="black"/>
<path d="M634.857 441.962C605.867 441.74 488.962 443.627 460.278 445.598C460.055 445.626 460.055 445.764 460.278 445.792C488.99 446.625 605.895 443.821 634.857 442.434C635.497 442.406 635.469 441.962 634.857 441.962Z" fill="#263238"/>
<path d="M619.82 418.203C612.955 418.037 606.284 421.423 602.615 425.558C599.086 429.555 596.111 435.106 596.417 441.102C596.417 441.268 596.751 441.268 596.779 441.102C598.252 429.749 608.369 419.619 619.848 418.564C620.043 418.536 620.043 418.203 619.82 418.203Z" fill="#263238"/>
<path d="M568.817 393.278C557.226 393.306 543.857 397.636 536.797 407.239C536.519 407.6 537.047 407.988 537.409 407.822C547.804 402.243 557.699 398.052 569.039 394.721C569.845 394.444 569.651 393.25 568.817 393.278Z" fill="#263238"/>
<path d="M577.822 396.609C566.232 396.637 552.863 400.967 545.803 410.57C545.525 410.931 546.053 411.319 546.414 411.153C556.809 405.574 566.704 401.383 578.045 398.052C578.851 397.775 578.656 396.581 577.822 396.609Z" fill="#263238"/>
<path d="M586.828 399.94C575.237 399.968 561.868 404.298 554.808 413.901C554.53 414.262 555.058 414.65 555.42 414.484C565.815 408.905 575.71 404.714 587.05 401.383C587.856 401.106 587.662 399.912 586.828 399.94Z" fill="#263238"/>
<path d="M595.861 403.271C584.271 403.298 570.901 407.628 563.842 417.232C563.564 417.592 564.092 417.981 564.453 417.815C574.848 412.236 584.743 408.045 596.084 404.714C596.862 404.436 596.667 403.271 595.861 403.271Z" fill="#263238"/>
<path d="M467.199 417.981C454.191 418.23 454.58 438.436 467.616 438.159C480.624 437.909 480.235 417.731 467.199 417.981Z" fill="#263238"/>
<path d="M580.824 362.163C574.876 357.417 567.566 362.274 564.036 367.381C558.31 375.652 554.475 387.171 554.002 397.163C554.002 397.413 554.169 397.496 554.364 397.496C554.614 398.329 555.614 398.995 556.476 398.384C564.62 392.528 574.07 387.31 580.213 379.122C583.743 374.376 586.439 366.66 580.824 362.163ZM567.01 387.004C563.063 389.974 559.005 392.722 555.17 395.859C557.143 390.058 558.839 384.201 561.396 378.595C562.619 375.93 563.925 373.21 565.509 370.712C567.955 366.854 579.184 356.973 580.546 369.546C581.297 376.485 571.708 383.452 567.01 387.004Z" fill="#263238"/>
<path d="M525.262 401.965C535.38 403.353 545.747 400.3 555.642 398.579C556.67 398.413 556.893 397.219 556.476 396.442C556.615 396.331 556.698 396.109 556.504 395.942C549.027 389.281 538.131 383.924 528.208 382.176C522.094 381.093 513.477 382.897 512.699 390.475C511.948 397.663 519.342 401.16 525.262 401.965ZM518.147 395.471C510.142 385.673 525.04 384.618 529.515 385.59C532.405 386.2 535.241 387.199 538.02 388.199C543.801 390.308 549.194 393.195 554.725 395.859C549.805 396.414 544.997 397.358 540.105 398.08C534.268 398.968 522.566 400.883 518.147 395.471Z" fill="#263238"/>
<path d="M433.373 377.235L554.892 358.833C554.892 358.833 496.467 242.565 460.306 179.477C440.21 144.394 385.204 142.673 358.438 184.723C322.693 240.872 294.982 293.469 279.083 322.64L251.51 324.999L257.459 369.963L349.071 390.447C384.176 394.638 408.802 332.243 409.358 333.298C413.833 341.541 433.373 377.235 433.373 377.235Z" fill="#37474F"/>
<path d="M410.053 333.603C406.606 326.526 403.91 319.032 400.825 311.788C397.851 304.793 394.877 297.771 391.903 290.777C385.954 276.594 379.756 262.494 373.975 248.227C370.723 240.234 367.749 232.129 364.719 224.052C364.636 223.858 364.358 223.941 364.413 224.136C366.748 231.768 369.194 239.373 371.751 246.951C371.084 245.646 370.389 244.342 369.694 243.065C367.749 239.568 365.72 236.126 363.719 232.684C363.635 232.545 363.441 232.684 363.524 232.823C365.386 236.292 367.249 239.734 369.194 243.148C370.167 244.841 371.223 246.534 372.224 248.227C379.423 269.433 387.594 290.277 397.434 310.4C401.297 318.31 405.828 325.915 409.691 333.798C409.803 334.103 410.164 333.853 410.053 333.603Z" fill="#263238"/>
<path d="M436.096 355.669C430.232 346.649 416.279 319.31 411.275 309.873C401.158 290.777 391.902 271.265 383.175 251.503C378.227 240.345 373.613 229.076 369.027 217.752C368.999 217.669 368.888 217.697 368.916 217.78C375.809 238.18 384.009 258.136 392.903 277.732C401.825 297.355 430.565 350.174 435.735 355.891C435.902 356.113 436.235 355.891 436.096 355.669Z" fill="#263238"/>
<path d="M360.661 232.823C350.182 251.503 339.481 270.043 328.975 288.695C323.666 298.132 318.357 307.541 313.076 317.006C310.602 321.447 308.212 325.943 305.627 330.356C303.209 334.52 300.29 337.961 296.01 340.293C291.313 342.874 285.893 344.095 280.778 345.594C274.858 347.315 268.993 349.174 263.045 350.812C262.767 350.895 262.906 351.312 263.184 351.228C268.493 349.813 273.83 348.592 279.139 347.287C283.975 346.094 288.95 345.094 293.62 343.374C297.872 341.819 301.541 339.516 304.349 335.963C307.378 332.16 309.546 327.664 311.881 323.417C322.387 304.238 332.783 285.004 343.095 265.714C348.959 254.75 354.769 243.759 360.717 232.851C360.772 232.823 360.689 232.768 360.661 232.823Z" fill="#263238"/>
<path d="M430.621 360.221C437.903 358.889 445.352 358.278 452.69 357.335C460.056 356.391 467.421 355.447 474.787 354.476C489.463 352.561 539.466 344.623 543.246 343.374C543.496 343.29 543.413 342.902 543.162 342.902C539.577 342.791 506.862 347.149 499.497 348.231C484.821 350.396 470.229 352.977 455.581 355.447C451.411 356.141 447.242 356.946 443.073 357.696C438.904 358.445 434.735 359.333 430.538 359.861C430.287 359.861 430.371 360.249 430.621 360.221Z" fill="#263238"/>
<path d="M503.499 486.23C501.554 480.346 397.378 342.901 390.263 340.264C389.457 339.903 342.872 373.015 342.872 373.015C340.955 375.569 252.428 356.889 252.428 356.889L251.538 463.526L412.777 460.112C412.777 460.112 434.568 472.907 454.469 483.316C454.497 483.316 454.525 483.344 454.525 483.316C466.782 489.755 477.65 495.195 480.735 496C488.851 498.054 505.473 492.059 503.499 486.23Z" fill="#EFBDB7"/>
<path d="M480.79 496C477.677 495.195 466.837 489.755 454.58 483.288C454.552 483.316 454.524 483.288 454.497 483.288C434.595 472.88 412.804 460.084 412.804 460.084L376.921 460.862L320.747 370.323C333.088 372.516 342.288 373.82 342.9 372.988C342.9 372.988 389.456 339.903 390.262 340.264C397.378 342.901 501.553 480.346 503.499 486.23C505.472 492.059 488.851 498.082 480.79 496Z" fill="white"/>
<path d="M504.444 486.397C502.388 480.374 397.74 343.012 390.43 340.292C387.65 339.237 364.886 353.309 342.873 372.988L410.442 461.473C410.442 461.473 472.786 494.446 481.124 496.583C489.435 498.693 506.501 492.42 504.444 486.397Z" fill="#73EEFF"/>
<path d="M497.44 488.618C479.318 466.025 408.441 373.155 392.236 349.452C392.097 349.257 392.236 349.174 392.375 349.341C410.803 371.351 480.958 464.776 497.801 488.34C498.163 488.84 497.829 489.09 497.44 488.618Z" fill="#263238"/>
<path d="M469.451 491.505C465.059 486.203 463.586 478.904 464.586 473.464C465.531 468.218 468.061 462.445 472.98 458.975C473.119 458.864 473.314 459.114 473.203 459.253C465.17 467.413 463.502 481.652 469.756 491.31C469.867 491.477 469.59 491.699 469.451 491.505Z" fill="#263238"/>
<path d="M418.252 466.94C411.109 457.809 406.217 444.653 409.413 433.19C409.525 432.745 410.164 432.94 410.247 433.301C412.304 444.902 415.111 455.255 419.531 466.219C419.837 467.024 418.78 467.606 418.252 466.94Z" fill="#263238"/>
<path d="M426.452 471.965C419.308 462.833 414.416 449.677 417.613 438.214C417.724 437.77 418.363 437.964 418.447 438.325C420.503 449.927 423.311 460.28 427.73 471.243C428.036 472.02 426.98 472.603 426.452 471.965Z" fill="#263238"/>
<path d="M434.651 476.961C427.508 467.829 422.616 454.673 425.812 443.21C425.923 442.766 426.563 442.96 426.646 443.321C428.703 454.923 431.51 465.276 435.93 476.239C436.208 477.016 435.179 477.627 434.651 476.961Z" fill="#263238"/>
<path d="M442.851 481.956C435.708 472.825 430.816 459.669 434.012 448.206C434.123 447.762 434.763 447.956 434.846 448.317C436.903 459.918 439.71 470.271 444.129 481.235C444.407 482.04 443.351 482.622 442.851 481.956Z" fill="#263238"/>
<path d="M374.809 371.961C366.971 361.608 383.092 349.395 390.93 359.776C398.796 370.157 382.675 382.341 374.809 371.961Z" fill="#263238"/>
<path d="M414.194 484.621C416.835 474.768 415.111 464.109 414.639 454.09C414.583 453.063 413.444 452.702 412.638 453.007C412.527 452.841 412.332 452.757 412.165 452.924C404.605 459.474 397.906 469.633 394.932 479.236C393.098 485.176 393.793 493.919 401.214 495.64C408.246 497.25 412.638 490.366 414.194 484.621ZM406.856 490.838C396.128 497.555 396.934 482.65 398.462 478.32C399.435 475.545 400.769 472.825 402.131 470.216C404.966 464.748 408.496 459.78 411.859 454.645C411.776 459.585 412.137 464.47 412.221 469.411C412.332 475.295 412.777 487.147 406.856 490.838Z" fill="#263238"/>
<path d="M381.34 424.641C375.865 429.943 379.784 437.798 384.426 441.933C391.93 448.65 402.909 453.868 412.776 455.617C413.027 455.672 413.138 455.478 413.138 455.284C413.999 455.117 414.778 454.229 414.305 453.313C409.524 444.487 405.494 434.495 398.156 427.389C393.848 423.281 386.51 419.645 381.34 424.641ZM404.299 441.434C406.745 445.708 408.996 450.093 411.609 454.284C406.078 451.592 400.491 449.177 395.238 445.93C392.736 444.376 390.179 442.738 387.928 440.878C384.398 437.964 376.004 425.613 388.65 425.835C395.627 425.946 401.353 436.354 404.299 441.434Z" fill="#263238"/>
<path d="M298.706 332.243C298.706 332.243 122.014 301.268 71.7611 311.455C1.63451 325.638 -11.2345 408.405 40.7697 439.269C106.644 478.349 371.946 470.771 371.946 470.771L308.574 363.524C308.574 363.524 211.097 343.04 122.709 346.01L299.457 372.961L298.706 332.243Z" fill="#37474F"/>
<path d="M312.799 370.435C312.715 370.297 312.715 370.047 312.66 369.88C312.632 369.742 312.576 369.575 312.548 369.436C312.465 369.075 312.382 368.742 312.271 368.409C312.076 367.688 311.798 366.994 311.548 366.3C311.27 365.606 310.964 364.94 310.658 364.246C310.325 363.552 309.88 362.997 309.463 362.359C309.408 362.303 309.352 362.275 309.296 362.248C309.269 362.22 309.213 362.192 309.185 362.164C309.13 362.137 309.074 362.109 309.019 362.109C308.963 362.081 308.935 362.053 308.852 362.053C298.123 360.055 225.3 349.647 214.46 348.425C203.537 347.176 192.586 346.177 181.634 345.261C159.788 343.429 137.83 342.513 115.9 342.902C113.843 342.93 111.786 343.013 109.729 343.096C109.284 342.957 108.84 342.874 108.367 342.763C107.311 342.513 106.282 342.264 105.198 342.042C103.225 341.653 101.224 341.375 99.2504 341.07C95.1089 340.432 90.9397 339.988 86.826 339.238C86.5759 339.183 86.4647 339.571 86.7427 339.627C90.8841 340.543 94.9699 341.736 99.1114 342.652C100.307 342.902 101.502 343.179 102.697 343.402C94.6642 343.818 86.6315 344.456 78.5987 345.178C78.3486 345.206 78.3486 345.594 78.5987 345.566C89.5221 344.928 100.501 344.845 111.452 345.039C122.32 345.233 133.16 345.455 144 346.094C165.93 347.343 187.833 349.313 209.68 351.589C221.937 352.866 296.205 363.691 308.518 364.218C308.574 364.218 308.629 364.19 308.657 364.19C308.768 364.468 308.852 364.746 308.991 365.023C309.324 365.689 309.658 366.355 310.019 366.994C310.38 367.632 310.714 368.243 311.131 368.853C311.325 369.159 311.52 369.436 311.742 369.742C311.854 369.88 311.937 370.047 312.048 370.186C312.132 370.324 312.326 370.491 312.382 370.657C312.521 370.879 312.938 370.685 312.799 370.435Z" fill="#263238"/>
<path d="M349.071 464.249C345.152 457.977 341.817 451.287 338.203 444.82C334.59 438.326 331.004 431.859 327.391 425.392C320.192 412.485 294.315 369.02 291.758 365.995C291.591 365.8 291.258 366.023 291.341 366.245C292.564 369.603 308.713 398.358 312.437 404.797C319.886 417.62 327.697 430.193 335.396 442.878C337.592 446.486 339.871 450.066 342.094 453.674C344.318 457.255 346.681 460.808 348.737 464.499C348.849 464.693 349.21 464.471 349.071 464.249Z" fill="#263238"/>
<path d="M291.007 376.792C284.531 375.238 277.916 374.239 271.384 372.99C264.824 371.741 258.293 370.519 251.733 369.298C238.614 366.856 225.495 364.524 212.348 362.331C186.109 357.918 159.788 354.255 133.299 351.729C118.345 350.286 103.364 349.342 88.4102 348.259C88.1045 348.232 88.1045 348.731 88.4102 348.759C115.093 349.953 141.721 353.561 168.126 357.363C194.281 361.11 220.353 365.246 246.424 369.631C253.79 370.88 261.128 372.129 268.493 373.406C275.942 374.683 283.419 376.293 290.924 377.236C291.202 377.264 291.313 376.875 291.007 376.792Z" fill="#263238"/>
<path d="M269.077 166.82C274.191 198.655 301.319 297.52 330.087 308.067C348.988 314.978 447.493 309.316 463.614 292.58C470.646 285.28 462.141 223.052 451.328 223.829C440.516 224.634 363.858 237.541 356.409 234.238C349.015 230.935 313.966 166.098 295.01 141.812C265.797 104.342 265.075 141.784 269.077 166.82Z" fill="#EFBDB7"/>
<path d="M280.556 226.3L334.784 194.714C334.784 194.714 312.66 159.715 294.76 139.009C276.86 118.276 261.573 113.446 266.048 156.134C270.328 197.379 280.556 226.3 280.556 226.3Z" fill="#263238"/>
<path d="M311.937 330.828C309.018 333.215 145.418 316.478 144.723 315.34C142.833 312.259 176.937 211.534 198.951 174.148C227.19 126.214 240.032 123.216 247.731 121.107C257.57 118.415 273.691 120.552 281.085 125.881C285.198 128.851 296.261 152.998 300.041 172.122C307.573 210.48 314.466 328.718 311.937 330.828Z" fill="#73EEFF"/>
<path d="M277.026 148.697C267.687 150.945 251.594 136.762 245.229 125.244C244.784 124.439 245.979 116.112 246.924 105.898C247.48 99.7085 247.953 92.7696 247.925 86.4413C247.925 85.1368 287.811 95.9337 287.811 95.9337C287.811 95.9337 283.947 109.256 284.058 120.303C284.086 121.219 284.17 122.079 284.336 122.912C284.364 123.023 284.392 123.19 284.392 123.356C285.226 128.269 286.032 146.532 277.026 148.697Z" fill="#EFBDB7"/>
<path d="M250.371 86.5808C252.261 97.2944 259.071 123.19 280.306 123.579C281.779 123.607 283.141 123.523 284.392 123.329C284.392 123.163 284.364 123.024 284.336 122.885C284.17 122.052 284.059 121.22 284.031 120.304C283.92 109.229 287.783 95.9066 287.783 95.9066C287.783 95.9066 259.015 88.1351 250.371 86.5808Z" fill="#263238"/>
<path d="M250.037 33.8447C243.033 46.8342 242.338 88.2455 250.399 99.1256C262.1 114.891 285.226 120.803 299.651 105.87C313.632 91.3818 313.604 37.3974 304.237 27.1001C290.396 11.9178 260.377 14.6656 250.037 33.8447Z" fill="#EFBDB7"/>
<path d="M281.529 70.8682C281.502 70.7572 281.307 71.007 281.307 71.118C281.335 73.9213 280.89 77.1132 278.333 77.9736C278.249 78.0014 278.249 78.1402 278.361 78.1402C281.446 77.7516 282.002 73.505 281.529 70.8682Z" fill="#263238"/>
<path d="M279.083 67.8989C274.608 67.4548 274.052 76.4476 278.194 76.8639C282.307 77.2525 282.863 68.2597 279.083 67.8989Z" fill="#263238"/>
<path d="M297.122 71.8969C297.15 71.7859 297.344 72.0357 297.317 72.1467C297.066 74.9222 297.233 78.1419 299.707 79.2243C299.79 79.2521 299.763 79.3909 299.679 79.3909C296.622 78.7803 296.427 74.4782 297.122 71.8969Z" fill="#263238"/>
<path d="M299.79 69.1484C304.293 69.0929 304.098 78.0857 299.929 78.1412C295.815 78.1967 296.01 69.2039 299.79 69.1484Z" fill="#263238"/>
<path d="M275.386 60.5165C276.665 60.5165 277.832 60.2944 279.083 60.1556C280.501 59.9891 281.64 60.0169 282.78 59.0732C283.391 58.5736 283.475 57.4078 283.03 56.7695C282.002 55.2984 280.223 55.0486 278.5 55.1874C276.637 55.3262 275.248 55.8813 273.913 57.158C272.579 58.3515 273.719 60.5442 275.386 60.5165Z" fill="#263238"/>
<path d="M304.321 62.8203C303.098 62.5427 301.986 62.0709 300.791 61.6823C299.457 61.2382 298.317 61.0162 297.428 59.8227C296.955 59.1843 297.122 58.0463 297.678 57.519C299.012 56.2977 300.791 56.4365 302.431 56.9084C304.21 57.4357 305.461 58.2961 306.517 59.8227C307.545 61.2937 305.961 63.2089 304.321 62.8203Z" fill="#263238"/>
<path d="M275.275 96.4592C275.914 97.1531 276.526 98.0967 277.527 98.2355C278.499 98.3743 279.667 98.0135 280.556 97.7082C280.64 97.6804 280.723 97.7914 280.667 97.8469C279.889 98.8739 278.305 99.4568 277.026 99.1514C275.775 98.8461 275.22 97.7359 274.969 96.5424C274.969 96.4036 275.192 96.3481 275.275 96.4592Z" fill="#263238"/>
<path d="M278.722 88.2995C280.139 90.8253 282.363 92.2686 284.809 92.9069C285.893 93.1845 287.06 93.2955 288.228 93.2678C288.45 93.2678 288.672 93.2678 288.895 93.24C289.089 93.24 289.284 93.2122 289.506 93.1845C289.84 93.1567 290.034 92.9069 290.118 92.6016V92.5739C290.118 92.4629 290.118 92.3796 290.118 92.2963C290.118 92.2963 290.118 92.2963 290.118 92.2686V92.0188C290.312 89.8816 290.285 86.6064 290.285 86.6064C291.035 87.0505 294.926 89.0767 294.954 87.9665C294.954 78.6684 294.982 68.3155 293.036 59.0452C292.981 58.7399 292.508 58.7676 292.536 59.073C292.175 68.0102 293.37 76.9753 293.147 85.9681C291.897 85.4129 289.868 84.386 288.756 84.3305C288.45 84.4137 288.895 90.6587 288.728 91.6024C288.728 91.6024 288.728 91.6302 288.7 91.7134C285.059 91.9632 282.419 90.6865 279.055 88.0775C278.805 87.8832 278.583 88.0775 278.722 88.2995Z" fill="#263238"/>
<path d="M287.005 92.1023C287.005 92.1023 284.948 94.5448 282.28 95.322C281.307 95.5995 280.251 95.6828 279.195 95.322C276.999 94.6003 277.082 92.5464 277.582 90.8256C277.999 89.41 278.75 88.2165 278.75 88.2165C278.75 88.2165 281.807 91.4639 287.005 92.1023Z" fill="#263238"/>
<path d="M282.28 95.3227C281.307 95.6002 280.251 95.6835 279.195 95.3227C276.999 94.601 277.082 92.5471 277.582 90.8263C279.973 91.2149 282.224 92.9912 282.28 95.3227Z" fill="#FF98B9"/>
<path d="M246.202 70.9809C254.79 73.4512 263.574 36.3975 263.574 36.3975C263.574 36.3975 271.162 43.0311 278.249 45.6124C285.337 48.1936 294.065 49.5814 295.371 49.5814C296.677 49.5814 283.391 39.4506 283.391 39.4506C283.391 39.4506 296.844 45.3348 309.268 44.6132C315.911 44.2246 315.55 41.3935 315.828 39.2286C316.078 37.0637 307.656 14.665 280.751 12.0837C262.601 10.3351 252.261 24.8235 252.261 24.8235C252.261 24.8235 239.892 33.1779 238.614 39.3119C236.835 47.6108 237.085 68.3719 246.202 70.9809Z" fill="#263238"/>
<path d="M295.566 73.1736C296.01 66.8731 299.79 61.9604 303.96 62.2657C308.129 62.571 311.186 67.9279 310.714 74.2561C310.269 80.5566 306.489 85.4693 302.32 85.164C298.15 84.8587 295.121 79.4742 295.566 73.1736ZM297.094 73.2847C296.705 78.7525 299.095 83.3877 302.431 83.6375C305.766 83.8873 308.796 79.6129 309.185 74.1728C309.574 68.705 307.184 64.0698 303.848 63.82C300.513 63.5702 297.483 67.8168 297.094 73.2847Z" fill="#455A64"/>
<path d="M266.77 71.1199C267.214 64.8194 272.384 60.0177 278.305 60.4341C284.197 60.8504 288.644 66.3182 288.2 72.6465C287.755 78.947 282.585 83.7487 276.693 83.3324C270.744 82.916 266.297 77.4204 266.77 71.1199ZM268.299 71.231C267.909 76.6988 271.689 81.445 276.748 81.8058C281.807 82.1666 286.226 78.0033 286.615 72.5632C287.004 67.0954 283.224 62.3492 278.166 61.9884C273.107 61.6275 268.688 65.7631 268.299 71.231Z" fill="#455A64"/>
<path d="M287.727 71.591C293.62 69.9812 296.066 72.0351 296.094 72.0628L297.122 70.9249C297.011 70.8138 294.092 68.2603 287.311 70.0922L287.727 71.591Z" fill="#455A64"/>
<path d="M267.604 70.1769L267.993 68.6781C267.02 68.4283 243.923 62.4331 241.393 62.1278C238.725 61.7392 232.221 64.8479 231.498 65.1809L232.165 66.5687C234 65.6805 239.114 63.4878 241.088 63.6266C241.115 63.6266 241.171 63.6266 241.199 63.6266C243.144 63.9042 259.321 68.0397 267.604 70.1769Z" fill="#455A64"/>
<path d="M252.039 68.1217C252.039 68.1217 245.285 53.5223 238.808 55.6872C232.332 57.8521 235.779 77.8916 242.227 81.6941C248.676 85.4966 252.345 79.6125 252.345 79.6125L252.039 68.1217Z" fill="#EFBDB7"/>
<path d="M239.948 61.405C239.837 61.3772 239.781 61.516 239.865 61.5715C244.367 64.4026 246.119 69.3431 247.064 74.3391C245.952 72.2852 244.145 70.9529 241.449 72.2296C241.31 72.2852 241.393 72.5072 241.532 72.5072C243.589 72.4517 244.979 73.0346 246.035 74.8664C246.786 76.1709 247.175 77.6975 247.619 79.113C247.758 79.5849 248.592 79.5016 248.509 78.9742C248.509 78.9465 248.509 78.891 248.481 78.8632C249.732 72.7292 246.48 63.2091 239.948 61.405Z" fill="#263238"/>
<path d="M346.931 272.318C346.903 282.56 317.857 279.979 310.603 280.867C303.348 281.811 302.292 283.643 305.933 285.752C306.323 286.002 307.184 286.279 308.324 286.585C297.039 284.253 259.71 271.264 259.71 271.264C259.71 271.264 282.113 263.853 293.982 261.466C305.794 259.107 346.959 262.049 346.931 272.318Z" fill="#EFBDB7"/>
<path d="M416.668 219.639C416.668 219.639 426.591 210.618 435.68 205.955C444.741 201.293 464.948 192.994 468.395 190.468L474.676 189.052L454.33 326.303L400.436 350.201L302.876 340.098L316.579 210.563L322.944 209.036C322.944 209.036 335.424 210.813 345.569 211.257C355.658 211.645 389.818 207.399 416.668 219.639Z" fill="white"/>
<path d="M392.626 354.948L409.414 223.22L312.326 209.953L297.873 343.929L392.626 354.948Z" fill="#73EEFF"/>
<path opacity="0.1" d="M392.626 354.948L409.414 223.22L312.326 209.953L297.873 343.929L392.626 354.948Z" fill="black"/>
<path d="M392.626 354.947L406.218 353.421L423.145 221.665L409.414 223.219L392.626 354.947Z" fill="#73EEFF"/>
<path d="M406.217 353.42L423.144 221.665L477.233 187.442L455.998 327.275L406.217 353.42Z" fill="#73EEFF"/>
<path opacity="0.1" d="M406.217 353.42L423.144 221.665L477.233 187.442L455.998 327.275L406.217 353.42Z" fill="black"/>
<path d="M202.23 154.579C181.746 177.45 115.872 273.04 124.683 302.35C130.464 321.584 237.864 348.368 260.933 351.255C270.995 352.504 284.198 283.448 277.082 275.288C269.967 267.128 205.316 266.878 203.509 258.968C201.73 251.085 235.251 179.032 240.754 152.053C250.371 105.063 215.266 140.035 202.23 154.579Z" fill="#EFBDB7"/>
<path d="M369.167 312.981C368.722 322.057 354.63 325.055 353.685 325.249C354.519 325.166 367.054 323.917 365.942 332.882C364.775 342.18 352.462 346.981 352.462 346.981C352.462 346.981 356.631 349.119 352.879 355.336C347.459 364.218 325.139 366.91 313.132 365.578C301.152 364.273 258.209 350.479 251.677 348.23L259.71 271.264C259.71 271.264 297.039 284.254 308.324 286.585C308.351 286.585 308.463 286.613 308.49 286.613C314.299 288.168 327.558 290.305 332.144 290.666C344.79 291.581 362.162 282.367 364.302 291.526C366.193 299.714 353.518 304.932 353.518 304.932C353.518 304.932 369.667 303.627 369.167 312.981Z" fill="#EFBDB7"/>
<path d="M352.767 304.875C334.589 310.898 325.612 310.399 307.323 305.902C306.961 305.819 306.767 306.319 307.128 306.457C324.639 312.508 335.84 314.756 353.129 305.736C353.962 305.292 353.657 304.57 352.767 304.875Z" fill="#263238"/>
<path d="M354.38 324.832C334.951 329.439 325.195 328.995 305.683 325.692C305.405 325.637 305.294 326.109 305.572 326.164C324.444 331.021 335.646 333.02 354.435 325.859C355.297 325.526 355.269 324.61 354.38 324.832Z" fill="#263238"/>
<path d="M352.212 346.898C333.089 350.006 322.36 349.978 303.848 344.316C303.404 344.178 303.181 344.816 303.598 344.982C321.943 352.587 335.312 352.726 352.239 347.48C353.379 347.12 353.407 346.703 352.212 346.898Z" fill="#263238"/>
<path d="M476.261 225.551C482.348 234.211 495.634 243.981 497.885 251.531C499.914 258.331 494.55 261.772 494.55 261.772C494.55 261.772 502.888 264.298 503.805 271.459C504.278 275.151 498.774 279.147 498.774 279.147C498.774 279.147 505.39 281.451 505.779 287.89C506.112 293.025 500.553 296.245 500.553 296.245C500.553 296.245 505.862 301.407 504.5 306.736C501.776 317.533 458.249 324.972 448.799 310.095C444.38 303.156 455.109 301.935 455.109 301.935C455.109 301.935 439.266 299.992 437.487 291.082C435.736 282.173 449.772 281.396 449.772 281.396C449.772 281.396 434.429 279.369 433.54 269.96C432.623 260.135 446.77 261.772 446.77 261.772C446.77 261.772 435.986 256.86 436.959 249.504C438.571 237.32 459.361 248.755 468.561 244.842L471.146 228.188L476.261 225.551Z" fill="#EFBDB7"/>
<path d="M487.323 237.764C482.264 229.048 491.826 215.615 488.212 206.594C483.293 194.409 471.146 209.259 471.119 228.188L473.676 242.898L487.323 237.764Z" fill="#EFBDB7"/>
<path d="M499.72 296.882C499.859 296.854 499.942 297.048 499.803 297.104C486.072 303.016 469.201 305.347 454.525 302.072C454.052 301.961 453.997 301.128 454.553 301.156C470.313 301.628 484.349 300.795 499.72 296.882Z" fill="#100E3A"/>
<path d="M498.969 279.203C499.136 279.147 499.219 279.425 499.052 279.508C484.877 285.531 465.782 287.612 449.327 281.867C448.772 281.673 448.466 280.923 449.133 281.118C460.334 284.115 485.155 282.783 498.969 279.203Z" fill="#100E3A"/>
<path d="M445.686 260.967C461.696 265.852 477.678 265.13 493.966 262.049C494.188 262.021 494.216 262.299 494.049 262.382C486.489 266.074 475.899 266.962 467.589 266.962C459.639 266.962 452.468 265.352 445.519 261.522C445.242 261.383 445.325 260.856 445.686 260.967Z" fill="#100E3A"/>
<path d="M164.124 195.658L222.132 219.666C222.132 219.666 236.64 180.892 242.311 154.136C248.009 127.379 242.616 112.28 211.264 141.673C180.995 170.04 164.124 195.658 164.124 195.658Z" fill="#263238"/>
</g>
<g filter="url(#filter0_d_1118_935)">
<circle cx="503.5" cy="72.5" r="64.5" fill="#FBA229"/>
</g>
<circle cx="114.5" cy="477.5" r="114.5" fill="#A2FF93"/>
<defs>
<filter id="filter0_d_1118_935" x="431" y="0" width="149" height="149" filterUnits="userSpaceOnUse" color-interpolation-filters="sRGB">
<feFlood flood-opacity="0" result="BackgroundImageFix"/>
<feColorMatrix in="SourceAlpha" type="matrix" values="0 0 0 0 0 0 0 0 0 0 0 0 0 0 0 0 0 0 127 0" result="hardAlpha"/>
<feOffset dx="2" dy="2"/>
<feGaussianBlur stdDeviation="5"/>
<feComposite in2="hardAlpha" operator="out"/>
<feColorMatrix type="matrix" values="0 0 0 0 0 0 0 0 0 0 0 0 0 0 0 0 0 0 0.15 0"/>
<feBlend mode="normal" in2="BackgroundImageFix" result="effect1_dropShadow_1118_935"/>
<feBlend mode="normal" in="SourceGraphic" in2="effect1_dropShadow_1118_935" result="shape"/>
</filter>
<clipPath id="clip0_1118_935">
<rect width="631" height="485" fill="white" transform="translate(9 12)"/>
</clipPath>
</defs>
</svg>
