<svg width="449" height="458" viewBox="0 0 449 458" fill="none" xmlns="http://www.w3.org/2000/svg">
<path d="M201.666 101.269C201.666 101.269 230.629 72.73 254.67 88.8077C278.707 104.885 278.707 116.443 295.233 118.952C311.758 121.466 345.812 103.377 363.84 125.986C381.869 148.594 341.307 213.413 351.82 228.485C362.337 243.557 390.378 226.977 392.382 260.138C394.386 293.299 347.31 300.835 348.312 314.906C349.315 328.973 361.331 341.536 344.805 347.564C328.28 353.593 210.596 355.603 210.596 355.603L99.9224 350.078C99.9224 350.078 42.8342 315.409 45.836 273.204C48.8423 230.998 101.922 221.451 94.4109 191.307C86.8996 161.162 59.3554 147.593 73.8769 129.505C90.7173 108.533 124.456 138.549 146.99 126.991C166.655 116.906 151.699 98.6483 173.882 91.7172C196.066 84.7861 201.666 101.269 201.666 101.269Z" fill="#DEFFC4"/>
<path d="M81.3833 367.786H342.018C342.018 367.786 437.023 362.775 448.274 382.816C459.525 402.851 336.396 401.598 332.644 413.495C328.892 425.392 392.019 434.157 392.019 446.68C392.019 459.203 360.768 455.445 222.011 456.698C155.751 457.296 97.9414 461.393 97.9414 451.065C97.9414 440.732 143.255 441.047 145.131 431.03C147.007 421.012 18.25 427.898 18.25 415.374C18.25 402.851 50.7519 416.001 52.0026 403.477C53.2533 390.954 -3.00108 397.845 0.125704 382.189C3.25249 366.534 81.3833 367.786 81.3833 367.786Z" fill="url(#paint0_linear_893_1255)"/>
<path d="M153.603 377.316C148.346 377.316 146.58 377.194 145.994 377.106C145.844 373.707 144.4 351.177 142.873 327.395C142.153 316.229 141.434 304.981 140.847 295.745C138.993 266.524 139.901 231.343 139.912 230.994V230.938L134.361 197.565C136.962 196.844 149.458 193.435 154.406 193.019L159.995 192.553L283.716 199.123C283.788 199.123 285.891 199.051 288.846 199.051C293.445 199.051 299.848 199.222 304.27 200.054L318.742 202.77L292.172 373.186C284.469 373.491 183.122 377.316 153.603 377.316Z" fill="#66B4BF"/>
<path d="M159.995 193.113L283.678 199.682H283.727H283.777C283.799 199.682 285.897 199.61 288.835 199.61C293.407 199.61 299.776 199.782 304.159 200.608L318.105 203.225L291.691 372.659C281.126 373.059 182.624 376.762 153.604 376.762C149.259 376.762 147.355 376.673 146.52 376.601C146.282 371.889 144.887 350.179 143.421 327.322C142.707 316.168 141.982 304.937 141.401 295.706C139.552 266.513 140.454 231.354 140.465 231.005L140.471 230.899L140.454 230.794L134.992 197.969C138.374 197.038 149.807 193.961 154.456 193.579L159.995 193.113ZM159.979 191.999C159.979 191.999 159.979 191.999 154.356 192.47C148.733 192.941 133.73 197.166 133.73 197.166L139.353 230.977C139.353 230.977 138.418 266.197 140.288 295.778C142.164 325.36 145.446 375.609 145.446 377.488C145.446 377.754 148.451 377.871 153.598 377.871C184.501 377.871 292.637 373.729 292.637 373.729L319.356 202.327C319.356 202.327 311.857 200.919 304.353 199.511C299.854 198.668 293.329 198.496 288.83 198.496C285.83 198.496 283.727 198.574 283.727 198.574L159.979 191.999Z" fill="#1E344A"/>
<path d="M282.411 304.926C282.339 302.204 281.758 275.721 286.157 254.566C290.789 232.28 308.831 204.262 319.44 202.876C319.987 202.804 320.524 202.771 321.039 202.771C330.895 202.771 335.688 216.142 335.688 243.65C335.688 272.212 326.396 336.353 325.068 345.357L282.411 304.926Z" fill="#4980A9"/>
<path d="M321.033 203.33C330.519 203.33 335.128 216.519 335.128 243.656C335.128 271.247 326.434 332.14 324.669 344.226L282.953 304.682C282.859 300.973 282.41 275.283 286.694 254.682C288.869 244.232 294.264 231.67 301.127 221.076C307.784 210.803 314.824 204.046 319.5 203.436C320.031 203.364 320.546 203.33 321.033 203.33ZM321.033 202.222C320.491 202.222 319.932 202.26 319.362 202.333C308.581 203.741 290.297 231.914 285.609 254.455C280.922 276.996 281.857 305.17 281.857 305.17L325.455 346.493C325.455 346.493 336.235 274.646 336.235 243.65C336.241 214.307 330.773 202.222 321.033 202.222Z" fill="#1E344A"/>
<path d="M89.3965 295.834C90.4037 291.615 97.349 263.464 108.926 236.831C119.762 211.901 131.295 200.475 134.179 197.875L141.074 228.51C141.749 231.498 142.059 234.57 142.004 237.63L140.698 307.764L89.3965 295.834Z" fill="#4980A9"/>
<path d="M133.847 198.94L140.532 228.638C141.196 231.581 141.5 234.608 141.445 237.624L140.15 307.071L90.0662 295.424C91.4442 289.752 98.2899 262.693 109.436 237.059C119.497 213.902 130.15 202.46 133.847 198.94ZM134.511 196.855C134.511 196.855 121.074 207.499 108.417 236.615C95.7608 265.731 88.7269 296.255 88.7269 296.255L141.229 308.463L142.546 237.646C142.602 234.536 142.286 231.432 141.605 228.394L134.511 196.855Z" fill="#1E344A"/>
<path d="M267.8 195.757C256.732 191.932 251.569 186.555 250.03 184.687C248.824 175.634 251.276 164.967 251.276 164.967L192.935 168.754C192.935 168.754 196.847 172.368 197.805 179.303C197.805 179.303 196.753 187.093 185.973 190.38C175.192 193.667 162.22 192.675 162.22 192.675C162.22 192.675 170.378 239.537 217.169 242.242C265.919 245.058 283.473 199.56 283.473 199.56C283.473 199.56 274.386 198.036 267.8 195.757Z" fill="#EED58C" stroke="#1E344A" stroke-width="2" stroke-miterlimit="10"/>
<path d="M192.935 168.759L251.276 164.973C251.276 164.973 239.516 201.24 224.203 202.493C208.89 203.746 197.805 179.309 197.805 179.309L192.935 168.759Z" fill="#1E344A"/>
<path d="M172.497 112.113C172.497 112.113 157.793 112.113 154.976 104.79C152.159 97.4608 155.142 93.5136 155.142 93.5136C155.142 93.5136 147.079 91.917 146.769 84.383C146.465 76.849 149.525 71.028 149.525 71.028C149.525 71.028 141.384 64.8412 141.639 57.8449C142.01 47.5224 151.003 43.5143 151.003 43.5143C151.003 43.5143 143.31 33.1585 152.657 26.6667C162.005 20.175 171.39 27.465 171.39 27.465C171.39 27.465 166.366 13.151 177.412 10.8004C188.458 8.44988 195.807 12.2086 195.807 12.2086C195.807 12.2086 207.595 -0.137436 218.226 0.00115821C228.857 0.139753 232.98 13.4781 232.98 13.4781C232.98 13.4781 243.954 5.48395 255.592 11.3049C267.23 17.1259 264.768 23.601 264.768 23.601C264.768 23.601 285.587 19.4709 293.385 27.3264C301.182 35.1764 294.309 42.4055 294.309 42.4055C294.309 42.4055 309.727 40.2434 312.931 53.2214C316.136 66.205 307.209 70.2131 307.209 70.2131C307.209 70.2131 314.47 83.3685 308.144 92.4991C301.813 101.63 295.598 100.737 295.598 100.737C295.598 100.737 297.165 108.011 290.252 116.177C283.34 124.343 267.385 124.293 267.385 124.293L172.497 112.113Z" fill="#1E344A"/>
<path d="M176.106 147.072C171.983 148.07 166.637 140.564 164.174 130.313C161.711 120.063 163.056 110.949 167.179 109.951L174.728 109.02L182.636 146.279L176.106 147.072Z" fill="#D65555" stroke="#1E344A" stroke-width="1.5" stroke-miterlimit="10" stroke-linejoin="round"/>
<path d="M182.632 146.285C186.756 145.291 188.102 136.176 185.639 125.928C183.175 115.679 177.835 108.177 173.711 109.172C169.586 110.167 168.24 119.282 170.703 129.53C173.167 139.779 178.507 147.28 182.632 146.285Z" fill="#A23D3D" stroke="#1E344A" stroke-width="1.5" stroke-miterlimit="10" stroke-linejoin="round"/>
<path d="M174.861 85.8963C174.861 85.8963 173.394 113.094 175.276 120.384C177.157 127.669 179.105 133.395 179.105 133.395C179.105 133.395 179.365 145.054 183.538 154.262C195.265 180.141 218.42 187.392 218.42 187.392C218.42 187.392 238.774 179.481 251.276 164.973C263.777 150.465 261.995 133.467 261.995 133.467L266.041 96.9783L242.858 60.8994L191.419 71.5601L174.861 85.8963Z" fill="#EED58C" stroke="#1E344A" stroke-width="2" stroke-miterlimit="10"/>
<path d="M252.123 111.093C252.123 111.093 242.488 107.135 234.961 107.65C230.739 107.938 227.64 109.591 225.73 110.988C224.435 111.936 222.603 111.547 221.784 110.162C221.043 108.909 221.414 107.301 222.62 106.486C225.122 104.801 229.704 102.417 235.376 102.655C246.622 103.132 252.123 111.093 252.123 111.093Z" fill="#1E344A"/>
<path d="M225.061 130.33C225.061 130.33 229.964 125.368 236.09 124.686C242.216 124.004 248.215 126.455 248.215 126.455C248.215 126.455 245.166 131.965 237.297 133.196C229.422 134.432 225.061 130.33 225.061 130.33Z" fill="white" stroke="#1E344A" stroke-width="2" stroke-miterlimit="10"/>
<path d="M183.239 132.337C183.239 132.337 185.713 128.157 193.228 128.295C200.744 128.434 205.619 132.608 205.619 132.608C205.619 132.608 201.989 135.43 194.036 135.94C188.054 136.317 183.239 132.337 183.239 132.337Z" fill="white" stroke="#1E344A" stroke-width="2" stroke-miterlimit="10"/>
<path d="M176.034 115.877C176.034 115.877 184.108 111.825 189.543 111.32C194.977 110.816 198.353 112.85 198.353 112.85C199.731 113.089 201.087 112.318 201.585 111.01C202.216 109.352 201.242 107.512 199.515 107.113C196.477 106.409 191.646 105.821 186.781 107.395C178.773 109.984 176.034 115.877 176.034 115.877Z" fill="#1E344A"/>
<path d="M209.687 135.158L206.493 151.474C206.493 151.474 209.886 152.56 212.907 151.435C215.929 150.31 217.877 148.513 217.877 148.513" stroke="#1E344A" stroke-width="2" stroke-miterlimit="10"/>
<path d="M211.447 162.567C211.447 162.567 211.065 159.701 214.806 158.814C221.613 157.195 224.335 159.607 227.922 159.013C231.508 158.42 233.81 156.641 233.81 156.641C233.81 156.641 231.563 162.184 221.58 163.537C211.59 164.884 211.447 162.567 211.447 162.567Z" fill="#D65555" stroke="#1E344A" stroke-width="2" stroke-miterlimit="10" stroke-linejoin="round"/>
<path d="M214.081 164.141C214.081 164.141 216.273 168.504 219.715 168.865C228.558 169.785 232.316 158.98 232.316 158.98C232.316 158.98 227.219 162.561 221.574 163.537C215.929 164.507 214.081 164.141 214.081 164.141Z" fill="#D65555" stroke="#1E344A" stroke-width="2" stroke-miterlimit="10" stroke-linejoin="round"/>
<path d="M186.892 134.188C186.892 134.188 187.999 130.163 192.692 130.202C197.379 130.247 199.051 135.175 199.051 135.175C199.051 135.175 196.046 135.99 192.304 135.674C188.563 135.358 186.892 134.188 186.892 134.188Z" fill="#56A219" stroke="#1E344A" stroke-width="1.3096" stroke-miterlimit="10"/>
<path d="M229.35 132.392C229.35 132.392 230.479 127.896 235.974 127.347C241.469 126.798 242.997 131.405 242.997 131.405C242.997 131.405 240.108 133.163 235.553 133.595C231.004 134.027 229.35 132.392 229.35 132.392Z" fill="#56A219" stroke="#1E344A" stroke-width="1.3096" stroke-miterlimit="10"/>
<path d="M277.751 104.995C277.906 103.658 278.011 102.3 278.072 100.936C279.372 70.1907 255.548 44.207 224.85 42.8987C205.497 42.0782 188.037 51.2642 177.45 65.8665C187.982 55.9266 202.348 50.089 217.949 50.7487C247.28 51.996 270.335 75.7733 271.193 104.712L277.751 104.995Z" fill="#D65555" stroke="#1E344A" stroke-width="2" stroke-miterlimit="10" stroke-linejoin="round"/>
<path d="M181.203 61.7254C181.203 61.7254 168.962 77.4975 167.982 85.9185C167.002 94.3395 160.871 98.7745 166.316 103.082C171.762 107.39 174.734 103.753 174.734 103.753C174.734 103.753 178.668 99.534 181.336 95.5758C184.003 91.6175 182.891 88.4354 182.891 88.4354C182.891 88.4354 188.558 94.9438 197.473 91.2461C206.389 87.5539 212.122 77.7691 212.122 77.7691C212.122 77.7691 214.967 84.4716 222.537 82.9138C230.108 81.356 230.894 77.6305 230.894 77.6305C230.894 77.6305 229.56 86.9718 237.286 89.1838C245.011 91.3902 248.033 86.5061 248.033 86.5061C248.033 86.5061 246.074 95.8252 252.239 97.9651C258.404 100.105 260.236 101.125 260.236 101.125C260.236 101.125 255.963 105.959 258.371 108.254C260.778 110.55 267.292 111.769 267.292 111.769L271.193 104.729C271.193 104.729 274.968 92.9813 271.199 85.9296C267.43 78.8779 263.086 78.063 263.086 78.063C263.086 78.063 261.094 66.0718 254.11 61.0768C247.125 56.0819 242.687 57.4567 242.687 57.4567C242.687 57.4567 230.866 48.4924 223.401 47.55C215.935 46.6076 212.338 50.211 212.338 50.211C212.338 50.211 202.388 48.8473 196.97 51.1257C191.557 53.4042 186.931 59.1587 186.931 59.1587L181.203 61.7254Z" fill="#1E344A"/>
<path opacity="0.2" d="M182.636 72.6745C182.636 72.6745 181.385 87.493 190.971 87.2824C200.556 87.0717 212.222 69.9581 212.222 69.9581C212.222 69.9581 213.472 78.7228 220.971 78.307C228.47 77.8912 230.971 68.5001 230.971 68.5001C230.971 68.5001 224.513 76.0119 220.135 72.0481C215.758 68.0843 213.887 60.1511 213.887 60.1511C213.887 60.1511 198.22 79.8648 191.386 78.7283C183.887 77.4754 182.636 72.6745 182.636 72.6745Z" fill="#66B4BF"/>
<path opacity="0.2" d="M176.388 91.9777C176.388 91.9777 170.766 99.1791 165.137 94.1675C159.515 89.1559 165.763 78.2014 165.763 78.2014C165.763 78.2014 156.698 93.2306 162.326 99.4895C167.949 105.754 176.388 91.9777 176.388 91.9777Z" fill="#66B4BF"/>
<path opacity="0.2" d="M156.072 66.9367C156.072 66.9367 149.824 64.747 152.32 56.6031C154.821 48.4649 163.571 50.0282 163.571 50.0282C163.571 50.0282 154.196 41.2635 159.509 36.8784C164.822 32.4933 176.073 38.1313 176.073 38.1313C176.073 38.1313 164.202 24.9814 157.638 29.993C151.075 35.0046 156.078 46.2695 156.078 46.2695C156.078 46.2695 148.153 47.3062 146.387 55.0343C143.886 65.9943 156.072 66.9367 156.072 66.9367Z" fill="#66B4BF"/>
<path opacity="0.1" d="M249.334 140.763C249.533 143.175 245.997 145.437 241.437 145.814C236.876 146.191 233.025 144.538 232.825 142.127C232.626 139.715 236.162 137.454 240.723 137.077C245.277 136.7 249.134 138.352 249.334 140.763Z" fill="#C4007B"/>
<path opacity="0.1" d="M201.203 144.86C200.998 147.271 197.136 148.912 192.581 148.519C188.026 148.131 184.496 145.858 184.7 143.446C184.905 141.035 188.768 139.394 193.323 139.787C197.883 140.181 201.408 142.448 201.203 144.86Z" fill="#C4007B"/>
<path d="M176.964 124.038C176.743 122.247 178.038 120.629 179.831 120.462C182.957 120.168 188.054 119.919 193.727 120.54C203.068 121.565 207.213 122.159 208.348 124.919C209.482 127.686 208.791 139.145 205.968 141.739C203.146 144.334 186.306 143.203 182.232 140.941C179.238 139.283 177.617 129.266 176.964 124.038Z" stroke="#1E344A" stroke-width="4" stroke-miterlimit="10"/>
<path d="M220.025 121.432C217.966 121.82 216.594 123.783 216.937 125.856C217.817 131.189 223.262 141.196 226.195 141.767C230.329 142.571 248.349 140.619 249.92 137.969C251.492 135.319 254.087 118.3 251.01 117.125C248.575 116.193 228.409 119.852 220.025 121.432Z" stroke="#1E344A" stroke-width="4" stroke-miterlimit="10"/>
<path d="M209.018 128.706L217.175 128.218" stroke="#1E344A" stroke-width="6" stroke-miterlimit="10"/>
<path d="M252.184 123.86L265.842 111.487" stroke="#1E344A" stroke-width="4" stroke-miterlimit="10"/>
<path d="M264.176 140.94C259.965 140.441 257.541 131.555 258.775 121.083C260.009 110.61 264.42 102.528 268.631 103.021L276.036 104.767L270.574 142.465L264.176 140.94Z" fill="#A23D3D" stroke="#1E344A" stroke-width="1.5" stroke-miterlimit="10" stroke-linejoin="round"/>
<path d="M280.423 124.414C281.653 113.945 279.235 105.056 275.022 104.559C270.809 104.062 266.396 112.146 265.166 122.615C263.936 133.084 266.354 141.973 270.567 142.47C274.78 142.967 279.193 134.883 280.423 124.414Z" fill="#D65555" stroke="#1E344A" stroke-width="1.5" stroke-miterlimit="10" stroke-linejoin="round"/>
<path d="M88.7269 296.25C88.7269 296.25 116.802 299.121 121.179 282.839C125.557 266.563 107.637 266.141 113.68 255.497C119.724 244.853 127.433 250.281 128.888 237.131C130.349 223.981 120.343 215.216 120.343 215.216C120.343 215.216 109.928 232.119 102.009 253.829C94.0895 275.538 88.7269 296.25 88.7269 296.25Z" fill="#365D8D" stroke="#1E344A" stroke-width="1.5" stroke-miterlimit="10"/>
<path d="M295.77 228.787C295.77 228.787 316.086 240.684 317.646 259.783C319.207 278.881 304.209 267.921 303.584 282.008C302.959 296.094 313.9 295.468 311.083 307.054C308.271 318.635 281.862 305.175 281.862 305.175C281.862 305.175 281.082 285.14 283.894 265.731C286.705 246.317 295.77 228.787 295.77 228.787Z" fill="#365D8D" stroke="#1E344A" stroke-width="1.5" stroke-miterlimit="10"/>
<path d="M209.669 241.311C209.669 241.311 244.828 323.486 271.076 346.027C297.33 368.568 320.767 379.367 324.049 367.626C327.33 355.884 332.018 346.964 314.674 316.911C297.33 286.858 232.636 230.506 232.636 230.506C232.636 230.506 237.888 193.296 232.166 188.711C228.259 185.579 204.041 184.953 201.224 187.774C198.413 190.591 190.444 222.523 194.19 221.115C197.943 219.707 204.506 201.39 204.506 201.39H210.599C210.599 201.39 204.976 218.764 205.912 226.276C206.858 233.793 209.669 241.311 209.669 241.311Z" fill="#EED58C" stroke="#1E344A" stroke-width="2" stroke-miterlimit="10"/>
<path d="M203.577 194.976C203.577 194.976 204.827 197.482 204.512 200.298C204.202 203.114 203.577 203.896 203.577 203.896" fill="#EED58C"/>
<path d="M203.577 194.976C203.577 194.976 204.827 197.482 204.512 200.298C204.202 203.114 203.577 203.896 203.577 203.896" stroke="#1E344A" stroke-width="2" stroke-miterlimit="10" stroke-linecap="round"/>
<path d="M214.512 195.286C214.512 195.286 212.011 197.637 211.075 199.982C210.14 202.327 209.354 206.401 209.354 206.401" fill="#EED58C"/>
<path d="M214.512 195.286C214.512 195.286 212.011 197.637 211.075 199.982C210.14 202.327 209.354 206.401 209.354 206.401" stroke="#1E344A" stroke-width="2" stroke-miterlimit="10" stroke-linecap="round"/>
<path opacity="0.1" d="M212.951 247.414C212.951 247.414 247.174 255.869 258.42 278.41C269.671 300.951 261.702 314.566 270.606 326.779C279.51 338.986 292.637 337.113 298.73 347.441C304.823 357.774 301.542 367.165 301.542 367.165C301.542 367.165 283.257 361.062 263.102 337.113C242.946 313.164 235.912 295.789 235.912 295.789L212.951 247.414Z" fill="#C4007B"/>
<path d="M281.862 402.38L297.8 377.959H281.862V402.38Z" fill="#E3E3E3" stroke="#1E344A" stroke-width="2" stroke-miterlimit="10" stroke-linejoin="round"/>
<path d="M297.8 377.959L297.812 379.545C297.839 383.309 296.76 387.001 294.707 390.15L284.646 405.612C282.908 408.284 279.947 409.897 276.765 409.914L272.017 409.941L281.862 402.374L297.8 377.959Z" fill="#AFAFAF" stroke="#1E344A" stroke-width="2" stroke-miterlimit="10" stroke-linejoin="round"/>
<path d="M68.4666 256.251L75.268 403.206C75.4507 407.208 78.749 410.352 82.7447 410.34L274.358 409.903C278.492 409.891 281.835 406.521 281.813 402.374L280.96 257.598C280.938 253.507 277.64 250.197 273.556 250.159L75.9875 248.412C71.7096 248.385 68.2674 251.96 68.4666 256.251Z" fill="#E3E3E3" stroke="#1E344A" stroke-width="2" stroke-miterlimit="10"/>
<path d="M170.222 322.582C170.222 322.582 162.668 315.464 155.712 321.69C148.75 327.921 160.449 343.943 164.301 344.386C168.152 344.83 171.406 343.2 171.406 343.2C171.406 343.2 175.535 345.395 179.254 344.236C183.548 342.9 193.471 327.178 185.624 321.834C177.771 316.501 170.222 322.582 170.222 322.582Z" fill="white"/>
<path d="M170.516 317.981C170.516 317.981 169.481 313.529 172.292 308.934C175.104 304.332 179.398 302.259 179.398 302.259C179.398 302.259 179.249 308.34 176.587 312.199C173.925 316.057 170.516 317.981 170.516 317.981Z" fill="white"/>
<path opacity="0.5" d="M68.4658 256.251L74.7747 402.535C74.974 407.153 78.8036 410.778 83.419 410.712L107.946 410.362C107.946 410.362 129.042 378.43 124.355 360.114C119.668 341.797 96.6954 351.659 91.0727 329.59C85.45 307.52 106.541 306.112 105.135 285.45C103.663 263.818 68.4658 256.251 68.4658 256.251Z" fill="#AFAFAF"/>
<path d="M342.959 387.195L340.773 354.321L363.895 359.016L364.21 394.081L342.959 387.195Z" fill="#D65555" stroke="#1E344A" stroke-width="2" stroke-miterlimit="10" stroke-linejoin="round"/>
<path d="M363.895 359.016L392.65 351.82L390.148 385.005L364.21 394.081L363.895 359.016Z" fill="#993939" stroke="#1E344A" stroke-width="2" stroke-miterlimit="10" stroke-linejoin="round"/>
<path d="M340.773 354.321L364.941 348.062L392.65 351.82L363.895 359.016L340.773 354.321Z" fill="#1E344A"/>
<path d="M359.922 354.481C359.922 354.481 349.54 349.104 346.319 342.291C343.098 335.477 345.068 323.287 345.068 323.287C345.068 323.287 350.973 326.873 356.883 337.091C362.783 347.308 359.922 354.481 359.922 354.481Z" fill="#56A219" stroke="#1E344A" stroke-width="2" stroke-miterlimit="10"/>
<path d="M385.223 323.281C385.223 323.281 374.841 328.659 371.62 335.472C368.4 342.285 370.37 354.476 370.37 354.476C370.37 354.476 376.275 350.889 382.185 340.672C388.084 330.455 385.223 323.281 385.223 323.281Z" fill="#56A219" stroke="#1E344A" stroke-width="2" stroke-miterlimit="10"/>
<path d="M364.21 355.574C364.21 355.574 358.897 344.774 359.207 335.538C359.517 326.302 366.706 318.635 366.706 318.635C366.706 318.635 372.644 325.366 372.018 335.073C371.399 344.774 364.21 355.574 364.21 355.574Z" fill="#74BC66" stroke="#1E344A" stroke-width="2" stroke-miterlimit="10"/>
<path d="M87.9409 192.275C98.6322 192.275 107.299 183.593 107.299 172.883C107.299 162.173 98.6322 153.491 87.9409 153.491C77.2496 153.491 68.5825 162.173 68.5825 172.883C68.5825 183.593 77.2496 192.275 87.9409 192.275Z" fill="#E8BB51"/>
<path d="M87.3322 162.095L90.5309 168.587L97.6866 169.629L92.5121 174.685L93.7297 181.82L87.3322 178.449L80.9348 181.82L82.1578 174.685L76.9834 169.629L84.1335 168.587L87.3322 162.095Z" fill="white"/>
<path d="M366.712 137.37C381.383 137.37 393.276 125.457 393.276 110.76C393.276 96.0639 381.383 84.1501 366.712 84.1501C352.041 84.1501 340.148 96.0639 340.148 110.76C340.148 125.457 352.041 137.37 366.712 137.37Z" fill="#1E344A"/>
<path d="M349.24 114.835L362.157 105.233H381.327L368.615 114.835H349.24Z" fill="white"/>
<path d="M354.21 116.243V119.614C354.21 122.308 356.39 124.492 359.08 124.492H367.032C368.139 124.492 369.213 124.115 370.076 123.422L375.04 119.447C376.988 117.89 378.117 115.528 378.117 113.033L377.962 109.829L368.742 116.404L354.21 116.243Z" fill="white"/>
<path d="M365.771 108.57C365.771 108.57 371.554 104.185 369.523 101.995C367.492 99.8057 366.086 99.1793 367.177 96.8287C368.272 94.4781 372.18 95.2653 372.18 95.2653" stroke="white" stroke-miterlimit="10"/>
<path d="M375.146 95.4982C375.146 96.363 374.448 97.0615 373.585 97.0615C372.722 97.0615 372.024 96.363 372.024 95.4982C372.024 94.6333 372.722 93.9348 373.585 93.9348C374.448 93.9348 375.146 94.6389 375.146 95.4982Z" fill="white"/>
<path d="M375.849 96.1248L379.208 97.9265L379.833 96.5184L378.821 96.0472L380.149 95.8143L379.911 94.3286L376.009 94.9551L375.849 96.1248Z" fill="white"/>
<defs>
<linearGradient id="paint0_linear_893_1255" x1="224.5" y1="367.229" x2="224.799" y2="515.768" gradientUnits="userSpaceOnUse">
<stop offset="0.164583" stop-color="#F9CA5C"/>
<stop offset="0.419792" stop-color="#F8D98E"/>
<stop offset="0.669792" stop-color="#F7F3E5"/>
<stop offset="1" stop-color="#F7FAFB"/>
</linearGradient>
</defs>
</svg>
