<svg width="206" height="42" viewBox="0 0 206 42" fill="none" xmlns="http://www.w3.org/2000/svg">
<g clip-path="url(#clip0_1078_412)">
<path d="M52.0963 11.1838H56.9603V28.6356H65.461V32.7227H52.0963V11.1838Z" fill="#0B0B1D"/>
<path d="M67.375 24.526C67.375 19.2116 71.1694 15.924 75.1101 15.924C79.7827 15.924 82.0908 19.313 82.0908 23.7941C82.0908 24.6723 81.9782 25.5393 81.8881 25.9446H72.0814C72.5205 28.3203 74.1418 29.4125 76.3374 29.4125C77.5759 29.4125 78.6905 29.0409 79.884 28.3428L81.4941 31.2702C79.8164 32.4299 77.6209 33.1167 75.6731 33.1167C71.0005 33.1167 67.375 29.9529 67.375 24.526ZM77.9474 22.7358C77.9474 20.9343 77.1593 19.6395 75.2227 19.6395C73.6914 19.6395 72.3628 20.6641 72.0363 22.7358H77.9474Z" fill="#0B0B1D"/>
<path d="M84.3089 28.1741C84.3089 24.7175 87.0561 22.8485 93.5414 22.1616C93.4401 20.7317 92.7307 19.7972 90.9518 19.7972C89.5782 19.7972 88.2045 20.3714 86.617 21.2834L84.8943 18.0971C86.9773 16.8248 89.3192 15.9353 91.8976 15.9353C96.086 15.9353 98.4054 18.3335 98.4054 23.3551V32.7228H94.4421L94.0931 31.0451H93.9693C92.5844 32.2611 91.0419 33.1168 89.1954 33.1168C86.2117 33.1168 84.3089 30.9326 84.3089 28.1741ZM93.5414 27.9601V25.1003C90.0848 25.5619 88.9589 26.5527 88.9589 27.7912C88.9589 28.8496 89.6908 29.3675 90.8392 29.3675C91.9426 29.3563 92.6857 28.8158 93.5414 27.9601Z" fill="#0B0B1D"/>
<path d="M102.481 16.3293H106.444L106.794 19.1891H106.917C108.111 17.0048 109.901 15.924 111.579 15.924C112.513 15.924 113.065 16.0478 113.538 16.2505L112.727 20.4389C112.142 20.2925 111.657 20.1799 110.959 20.1799C109.721 20.1799 108.223 20.9793 107.345 23.2087V32.7114H102.492V16.3293H102.481Z" fill="#0B0B1D"/>
<path d="M115.643 16.3293H119.606L119.956 18.401H120.079C121.464 17.0724 123.108 15.924 125.349 15.924C128.918 15.924 130.438 18.4348 130.438 22.5331V32.7114H125.585V23.1524C125.585 20.7879 124.955 20.0561 123.547 20.0561C122.331 20.0561 121.577 20.619 120.507 21.6436V32.7002H115.654V16.3293H115.643Z" fill="#0B0B1D"/>
<path d="M134.942 11.1838H142.316C146.786 11.1838 150.254 12.4111 150.254 16.5207C150.254 18.4573 149.173 20.5065 147.417 21.1707V21.3059C149.612 21.8801 151.312 23.5014 151.312 26.3725C151.312 30.7523 147.608 32.7114 142.924 32.7114H134.942V11.1838ZM142.091 19.8084C144.456 19.8084 145.503 18.8063 145.503 17.2413C145.503 15.5862 144.399 14.9332 142.125 14.9332H139.817V19.7971H142.091V19.8084ZM142.53 28.9621C145.187 28.9621 146.561 28.0163 146.561 26.0572C146.561 24.1657 145.21 23.4001 142.53 23.4001H139.805V28.9621H142.53Z" fill="#0B0B1D"/>
<path d="M153.587 24.526C153.587 19.0765 157.426 15.924 161.57 15.924C165.713 15.924 169.552 19.0765 169.552 24.526C169.552 29.9642 165.713 33.1167 161.57 33.1167C157.426 33.1167 153.587 29.9642 153.587 24.526ZM164.576 24.526C164.576 21.6887 163.574 19.8422 161.57 19.8422C159.565 19.8422 158.563 21.6887 158.563 24.526C158.563 27.3633 159.565 29.1985 161.57 29.1985C163.574 29.1985 164.576 27.3633 164.576 24.526Z" fill="#0B0B1D"/>
<path d="M171.264 16.3293H176.094L177.659 23.918C177.952 25.5394 178.121 27.1269 178.402 28.7933H178.537C178.83 27.1382 179.111 25.4831 179.505 23.918L181.296 16.3293H185.518L187.364 23.918C187.758 25.5394 188.051 27.1269 188.389 28.7933H188.524C188.817 27.1382 188.986 25.5394 189.278 23.918L190.832 16.3293H195.325L191.406 32.7227H185.72L184.212 26.1699C183.908 24.6499 183.638 23.1412 183.334 21.3735H183.198C182.906 23.1412 182.68 24.6612 182.365 26.1811L180.924 32.7227H175.362L171.264 16.3293Z" fill="#0B0B1D"/>
<path d="M198.241 27.6224V9.57385H203.093V27.825C203.093 28.8721 203.578 29.1986 203.972 29.1986C204.163 29.1986 204.287 29.1986 204.568 29.1311L205.143 32.7115C204.602 32.9367 203.814 33.1168 202.699 33.1168C199.378 33.1168 198.241 30.9438 198.241 27.6224Z" fill="#0B0B1D"/>
<path d="M23.194 42.0004H18.1273C8.11788 42.0004 0 33.8825 0 23.8844V18.8177C0 8.80831 8.11788 0.69043 18.1161 0.69043H23.1827C33.1921 0.69043 41.2987 8.80831 41.2987 18.8065V23.8731C41.31 33.8825 33.1921 42.0004 23.194 42.0004Z" fill="#2D3092"/>
<path d="M31.3794 23.4003C31.0304 22.6459 30.5462 22.0154 29.927 21.5087C29.5104 21.1822 29.0375 20.9233 28.5308 20.7319C28.0129 20.5517 27.2923 20.3716 26.3578 20.2252C27.0334 19.9775 27.5625 19.7636 27.9228 19.5609C28.2831 19.3582 28.5984 19.1105 28.8799 18.8065C29.668 17.9846 30.0621 16.9488 30.0621 15.6765C30.0621 14.8883 29.8932 14.179 29.5442 13.5485C29.1951 12.918 28.711 12.4113 28.0805 12.0172C27.3486 11.5781 26.4366 11.3192 25.322 11.2291C25.018 11.2066 24.3875 11.1953 23.4079 11.1953H13.8263V11.5331C14.378 11.5669 14.8284 11.6344 15.1774 11.7695C15.5265 11.8934 15.8305 12.096 16.1007 12.3775C16.4159 12.6928 16.6186 13.0869 16.7312 13.5597C16.8325 14.0326 16.8888 14.7757 16.8888 15.7778V26.5303C16.8888 27.5324 16.8325 28.2755 16.7312 28.7484C16.6411 29.165 16.461 29.5253 16.202 29.818C16.2133 29.818 16.2245 29.818 16.2358 29.818C16.8776 29.7955 17.418 29.6942 17.8796 29.514C18.4201 29.3114 18.8592 28.9848 19.197 28.5457C19.4221 28.253 19.6136 27.9152 19.7599 27.5324C19.7712 27.4986 19.7937 27.4536 19.805 27.4198C19.895 27.1609 19.9851 26.8569 20.0752 26.5078V20.7656H22.6873C24.5563 20.7656 25.9187 21.1259 26.7969 21.8465C27.2698 22.2406 27.6526 22.7923 27.9341 23.5129C28.2156 24.2335 28.362 25.0216 28.362 25.866C28.362 27.8026 27.2248 29.0974 26.9996 29.3677C25.3557 31.293 23.0138 31.4056 22.631 31.4056C22.7886 31.3943 25.8399 31.2817 27.8328 30.8651C28.3845 30.7525 29.1501 30.5499 29.8819 30.0319C30.5125 29.5816 31.0079 28.9961 31.3569 28.2643C31.7172 27.5324 31.8861 26.7217 31.8861 25.8323C31.8973 24.9653 31.7285 24.1546 31.3794 23.4003ZM25.108 19.4821C24.8491 19.6622 24.5563 19.8086 24.2411 19.9212C23.9258 20.0338 23.5092 20.1239 22.9913 20.2027C22.3946 20.2815 21.8204 20.3153 21.2687 20.3153H20.0864V11.6457H21.4375C22.4734 11.6457 23.2503 11.702 23.7682 11.8258C24.2749 11.9384 24.7365 12.1636 25.1306 12.4789C25.5922 12.8504 25.9525 13.3683 26.234 14.0326C26.5154 14.6969 26.6506 15.4063 26.6506 16.1381C26.6506 16.8362 26.5154 17.4779 26.2452 18.0522C25.9863 18.6376 25.6034 19.1105 25.108 19.4821Z" fill="white"/>
<path d="M21.3362 27.4423L21.2349 30.6061L21.2011 31.4956H9.4127V31.2591C10.077 31.2591 10.5949 31.0677 10.9552 30.6962C11.1579 30.4822 11.3042 30.212 11.3718 29.8855C11.4506 29.559 11.4844 29.0636 11.4844 28.388V21.1033C11.4844 20.4053 11.4394 19.8873 11.3605 19.5608C11.2817 19.223 11.1241 18.9528 10.8989 18.7502C10.7188 18.5813 10.5048 18.4574 10.2797 18.3786C10.0545 18.2998 9.76174 18.2548 9.40144 18.2435V18.0183H15.7179V18.2435C15.3576 18.266 15.0536 18.311 14.8284 18.3899C14.6032 18.4687 14.3893 18.5925 14.2204 18.7614C13.9952 18.9753 13.8488 19.2568 13.77 19.5833C13.6912 19.9099 13.6462 20.4278 13.6462 21.1146V26.823C13.6462 27.7012 13.6687 28.3543 13.7137 28.7821C13.7588 29.21 13.8488 29.559 13.9839 29.8292C14.2091 30.3021 14.5582 30.6511 15.0085 30.8763C15.4589 31.1015 16.0669 31.2028 16.8213 31.2028C16.9226 31.2028 17.0239 31.2028 17.1253 31.2028C17.1365 31.2028 17.1478 31.2028 17.159 31.2028C17.8008 31.1803 18.3412 31.079 18.8029 30.8988C19.3433 30.6962 19.7824 30.3696 20.1202 29.9305C20.3454 29.6378 20.5368 29.3 20.6832 28.9172C20.6944 28.8834 20.7169 28.8384 20.7282 28.8046C20.8183 28.5457 20.9083 28.2417 20.9984 27.8926C21.0322 27.7463 21.066 27.5999 21.0998 27.431L21.3362 27.4423Z" fill="white"/>
</g>
<defs>
<clipPath id="clip0_1078_412">
<rect width="205.154" height="41.31" fill="white" transform="translate(0 0.69043)"/>
</clipPath>
</defs>
</svg>
