<svg width="80" height="80" viewBox="0 0 80 80" fill="none" xmlns="http://www.w3.org/2000/svg">
<path d="M36.25 22.5V50C36.2455 53.9769 34.6637 57.7896 31.8517 60.6017C29.0396 63.4137 25.2269 64.9955 21.25 65C20.587 65 19.9511 64.7366 19.4822 64.2678C19.0134 63.7989 18.75 63.163 18.75 62.5C18.75 61.837 19.0134 61.2011 19.4822 60.7322C19.9511 60.2634 20.587 60 21.25 60C23.9013 59.997 26.4431 58.9425 28.3178 57.0678C30.1925 55.1931 31.247 52.6513 31.25 50V47.5H12.5C11.1744 47.4985 9.90347 46.9712 8.96611 46.0339C8.02875 45.0965 7.50149 43.8256 7.5 42.5V22.5C7.50149 21.1744 8.02875 19.9035 8.96611 18.9661C9.90347 18.0288 11.1744 17.5015 12.5 17.5H31.25C32.5756 17.5015 33.8465 18.0288 34.7839 18.9661C35.7212 19.9035 36.2485 21.1744 36.25 22.5ZM67.5 17.5H48.75C47.4244 17.5015 46.1535 18.0288 45.2161 18.9661C44.2788 19.9035 43.7515 21.1744 43.75 22.5V42.5C43.7515 43.8256 44.2788 45.0965 45.2161 46.0339C46.1535 46.9712 47.4244 47.4985 48.75 47.5H67.5V50C67.497 52.6513 66.4425 55.1931 64.5678 57.0678C62.6931 58.9425 60.1513 59.997 57.5 60C56.837 60 56.2011 60.2634 55.7322 60.7322C55.2634 61.2011 55 61.837 55 62.5C55 63.163 55.2634 63.7989 55.7322 64.2678C56.2011 64.7366 56.837 65 57.5 65C61.4769 64.9955 65.2896 63.4137 68.1017 60.6017C70.9137 57.7896 72.4955 53.9769 72.5 50V22.5C72.4985 21.1744 71.9712 19.9035 71.0339 18.9661C70.0965 18.0288 68.8256 17.5015 67.5 17.5Z" fill="#DA3030" fill-opacity="0.8"/>
</svg>
