<svg width="80" height="80" viewBox="0 0 80 80" fill="none" xmlns="http://www.w3.org/2000/svg">
<path d="M43.75 57.5V30C43.7545 26.0231 45.3363 22.2104 48.1483 19.3983C50.9604 16.5863 54.7731 15.0045 58.75 15C59.413 15 60.0489 15.2634 60.5178 15.7322C60.9866 16.2011 61.25 16.837 61.25 17.5C61.25 18.163 60.9866 18.7989 60.5178 19.2678C60.0489 19.7366 59.413 20 58.75 20C56.0987 20.003 53.5569 21.0575 51.6822 22.9322C49.8075 24.8069 48.753 27.3487 48.75 30V32.5H67.5C68.8256 32.5015 70.0965 33.0288 71.0339 33.9661C71.9712 34.9035 72.4985 36.1744 72.5 37.5V57.5C72.4985 58.8256 71.9712 60.0965 71.0339 61.0339C70.0965 61.9712 68.8256 62.4985 67.5 62.5H48.75C47.4244 62.4985 46.1535 61.9712 45.2161 61.0339C44.2788 60.0965 43.7515 58.8256 43.75 57.5ZM12.5 62.5H31.25C32.5756 62.4985 33.8465 61.9712 34.7839 61.0339C35.7212 60.0965 36.2485 58.8256 36.25 57.5V37.5C36.2485 36.1744 35.7212 34.9035 34.7839 33.9661C33.8465 33.0288 32.5756 32.5015 31.25 32.5L12.5 32.5V30C12.503 27.3487 13.5575 24.8069 15.4322 22.9322C17.3069 21.0575 19.8487 20.003 22.5 20C23.163 20 23.7989 19.7366 24.2678 19.2678C24.7366 18.7989 25 18.163 25 17.5C25 16.837 24.7366 16.2011 24.2678 15.7322C23.7989 15.2634 23.163 15 22.5 15C18.5231 15.0045 14.7104 16.5863 11.8983 19.3983C9.08625 22.2104 7.50446 26.0231 7.5 30V57.5C7.50149 58.8256 8.02876 60.0965 8.96611 61.0339C9.90347 61.9712 11.1744 62.4985 12.5 62.5Z" fill="#DA3030" fill-opacity="0.8"/>
</svg>
