<svg width="217" height="180" viewBox="0 0 217 180" fill="none" xmlns="http://www.w3.org/2000/svg">
<g opacity="0.4">
<path d="M93.3733 22.8643L85.8821 11.5608C34.02 45.754 5.20776 87.2945 5.20776 121.488C5.20776 154.551 29.9863 170.093 51.0193 170.093C77.5266 170.093 96.2545 148.051 96.2545 124.879C96.2545 105.38 83.5771 88.7074 66.5779 82.4905C61.6798 80.795 57.0699 79.382 57.0699 71.187C57.0699 60.7312 64.8492 45.1888 93.3733 22.8643ZM207.758 22.8643L200.267 11.5608C148.981 45.754 119.592 87.2945 119.592 121.488C119.592 154.551 144.947 170.093 165.98 170.093C192.776 170.093 211.792 148.051 211.792 124.879C211.792 105.38 198.826 88.7074 181.251 82.4905C176.353 80.795 172.031 79.382 172.031 71.187C172.031 60.7312 180.098 45.1888 207.758 22.8643Z" fill="#FBA229" stroke="#FBA229" stroke-width="2.5" stroke-linecap="round" stroke-linejoin="round"/>
</g>
</svg>
