<svg width="75" height="75" viewBox="0 0 75 75" fill="none" xmlns="http://www.w3.org/2000/svg">
<path d="M50.2918 40.5205C51.8329 40.5153 53.3467 40.1135 54.6876 39.3538C52.7998 44.2403 49.6687 48.5491 45.6043 51.8538C45.3717 52.0453 45.1792 52.2808 45.0376 52.5467C44.8961 52.8126 44.8083 53.1038 44.7793 53.4037C44.7502 53.7036 44.7806 54.0062 44.8685 54.2943C44.9564 54.5825 45.1003 54.8505 45.2918 55.083C45.4833 55.3155 45.7187 55.5081 45.9847 55.6497C46.2506 55.7912 46.5418 55.879 46.8417 55.908C47.1415 55.9371 47.4441 55.9067 47.7323 55.8188C48.0204 55.7308 48.2884 55.587 48.521 55.3955C56.8543 48.6247 60.5626 39.2497 60.5626 33.4372C60.5483 31.382 59.9358 29.3754 58.8 27.6625C57.6643 25.9496 56.0543 24.6045 54.1668 23.7913C52.9452 23.1996 51.6074 22.8865 50.2501 22.8747C49.0554 22.8166 47.8614 23.0018 46.7403 23.4189C45.6193 23.8361 44.5947 24.4766 43.7287 25.3016C42.8626 26.1266 42.1731 27.1189 41.702 28.2184C41.2309 29.3178 40.9879 30.5015 40.9879 31.6976C40.9879 32.8937 41.2309 34.0774 41.702 35.1768C42.1731 36.2762 42.8626 37.2685 43.7287 38.0935C44.5947 38.9185 45.6193 39.559 46.7403 39.9762C47.8614 40.3934 49.0554 40.5786 50.2501 40.5205H50.2918Z" fill="white"/>
<path d="M27.0833 40.5213C28.6247 40.518 30.139 40.1161 31.4791 39.3547C29.5921 44.236 26.4692 48.5433 22.4166 51.8547C22.163 52.0375 21.9494 52.2703 21.7891 52.5388C21.6288 52.8072 21.5251 53.1057 21.4844 53.4157C21.4438 53.7257 21.467 54.0408 21.5527 54.3415C21.6383 54.6422 21.7846 54.9222 21.9825 55.1643C22.1805 55.4064 22.4258 55.6054 22.7035 55.7491C22.9813 55.8928 23.2854 55.9781 23.5974 55.9998C23.9093 56.0216 24.2224 55.9792 24.5173 55.8754C24.8123 55.7717 25.0829 55.6086 25.3125 55.3963C33.6458 48.6255 37.3541 39.2505 37.3541 33.438C37.3443 31.4061 36.7497 29.4199 35.6414 27.7169C34.5331 26.0138 32.9579 24.6658 31.1041 23.8338C29.8516 23.2247 28.476 22.9111 27.0833 22.9172C25.8886 22.8591 24.6945 23.0443 23.5735 23.4614C22.4525 23.8786 21.4279 24.5191 20.5618 25.3441C19.6958 26.1691 19.0063 27.1614 18.5351 28.2609C18.064 29.3603 17.8211 30.544 17.8211 31.7401C17.8211 32.9362 18.064 34.1199 18.5351 35.2193C19.0063 36.3187 19.6958 37.311 20.5618 38.136C21.4279 38.961 22.4525 39.6015 23.5735 40.0187C24.6945 40.4359 25.8886 40.6211 27.0833 40.563V40.5213Z" fill="white"/>
</svg>
