<svg width="75" height="75" viewBox="0 0 75 75" fill="none" xmlns="http://www.w3.org/2000/svg">
<path d="M24.7083 34.4795C23.1672 34.4847 21.6533 34.8865 20.3124 35.6462C22.2003 30.7597 25.3313 26.4509 29.3958 23.1462C29.6283 22.9547 29.8209 22.7192 29.9624 22.4533C30.104 22.1874 30.1918 21.8962 30.2208 21.5963C30.2498 21.2964 30.2195 20.9938 30.1316 20.7057C30.0436 20.4175 29.8998 20.1495 29.7083 19.917C29.5168 19.6845 29.2813 19.4919 29.0154 19.3503C28.7495 19.2088 28.4583 19.121 28.1584 19.092C27.8586 19.0629 27.5559 19.0933 27.2678 19.1812C26.9796 19.2692 26.7117 19.413 26.4791 19.6045C18.1458 26.3753 14.4374 35.7503 14.4374 41.5628C14.4518 43.618 15.0643 45.6246 16.2 47.3375C17.3358 49.0504 18.9457 50.3955 20.8333 51.2087C22.0549 51.8004 23.3926 52.1135 24.7499 52.1253C25.9446 52.1834 27.1387 51.9982 28.2597 51.5811C29.3807 51.1639 30.4053 50.5234 31.2714 49.6984C32.1375 48.8734 32.827 47.8811 33.2981 46.7816C33.7692 45.6822 34.0121 44.4985 34.0121 43.3024C34.0121 42.1063 33.7692 40.9226 33.2981 39.8232C32.827 38.7238 32.1375 37.7315 31.2714 36.9065C30.4053 36.0815 29.3807 35.441 28.2597 35.0238C27.1387 34.6066 25.9446 34.4214 24.7499 34.4795H24.7083Z" fill="white"/>
<path d="M47.9167 34.4787C46.3753 34.482 44.861 34.8839 43.5209 35.6453C45.4079 30.764 48.5308 26.4567 52.5834 23.1453C52.837 22.9625 53.0506 22.7297 53.2109 22.4612C53.3712 22.1928 53.4749 21.8943 53.5156 21.5843C53.5562 21.2743 53.533 20.9592 53.4473 20.6585C53.3617 20.3578 53.2154 20.0778 53.0175 19.8357C52.8195 19.5936 52.5742 19.3946 52.2965 19.2509C52.0187 19.1072 51.7146 19.0219 51.4026 19.0002C51.0907 18.9784 50.7776 19.0208 50.4827 19.1246C50.1877 19.2283 49.9171 19.3914 49.6875 19.6037C41.3542 26.3745 37.6459 35.7495 37.6459 41.562C37.6557 43.5939 38.2503 45.58 39.3586 47.2831C40.4669 48.9862 42.0421 50.3342 43.8959 51.1662C45.1484 51.7753 46.524 52.0889 47.9167 52.0828C49.1114 52.1409 50.3055 51.9557 51.4265 51.5386C52.5475 51.1214 53.5721 50.4809 54.4382 49.6559C55.3042 48.8309 55.9937 47.8386 56.4649 46.7391C56.936 45.6397 57.1789 44.456 57.1789 43.2599C57.1789 42.0638 56.936 40.8801 56.4649 39.7807C55.9937 38.6813 55.3042 37.689 54.4382 36.864C53.5721 36.039 52.5475 35.3985 51.4265 34.9813C50.3055 34.5641 49.1114 34.3789 47.9167 34.437V34.4787Z" fill="white"/>
</svg>
