<svg width="92" height="15" viewBox="0 0 92 15" fill="none" xmlns="http://www.w3.org/2000/svg">
<g clip-path="url(#clip0_1505_11803)">
<path d="M8.22415 0.778454L9.91595 4.20649C10.0336 4.44491 10.2611 4.61012 10.5242 4.64829L14.3074 5.19804C14.9701 5.29441 15.2345 6.10855 14.7551 6.5757L12.0176 9.24404C11.8274 9.42958 11.7404 9.6971 11.7855 9.95899L12.4316 13.7268C12.5449 14.3867 11.8521 14.8898 11.2595 14.5785L7.8759 12.7997C7.64061 12.6761 7.35932 12.6761 7.12403 12.7997L3.74042 14.5785C3.14781 14.8902 2.45507 14.3867 2.56833 13.7268L3.21445 9.95899C3.25951 9.6971 3.17252 9.42958 2.98229 9.24404L0.244803 6.5757C-0.234546 6.10824 0.0298469 5.2941 0.69255 5.19804L4.47572 4.64829C4.73886 4.61012 4.96633 4.44491 5.08398 4.20649L6.77578 0.778454C7.07177 0.178015 7.92784 0.178015 8.22415 0.778454Z" fill="#FFB300"/>
</g>
<g clip-path="url(#clip1_1505_11803)">
<path d="M27.3902 0.778454L29.082 4.20649C29.1996 4.44491 29.4271 4.61012 29.6902 4.64829L33.4734 5.19804C34.1361 5.29441 34.4005 6.10855 33.9211 6.5757L31.1837 9.24404C30.9934 9.42958 30.9064 9.6971 30.9515 9.95899L31.5976 13.7268C31.7109 14.3867 31.0181 14.8898 30.4255 14.5785L27.0419 12.7997C26.8066 12.6761 26.5253 12.6761 26.29 12.7997L22.9064 14.5785C22.3138 14.8902 21.6211 14.3867 21.7343 13.7268L22.3805 9.95899C22.4255 9.6971 22.3385 9.42958 22.1483 9.24404L19.4108 6.5757C18.9315 6.10824 19.1959 5.2941 19.8586 5.19804L23.6417 4.64829C23.9049 4.61012 24.1323 4.44491 24.25 4.20649L25.9418 0.778454C26.2378 0.178015 27.0939 0.178015 27.3902 0.778454Z" fill="#FFB300"/>
</g>
<g clip-path="url(#clip2_1505_11803)">
<path d="M46.5581 0.778454L48.2499 4.20649C48.3676 4.44491 48.5951 4.61012 48.8582 4.64829L52.6414 5.19804C53.3041 5.29441 53.5685 6.10855 53.0891 6.5757L50.3516 9.24404C50.1614 9.42958 50.0744 9.6971 50.1195 9.95899L50.7656 13.7268C50.8788 14.3867 50.1861 14.8898 49.5935 14.5785L46.2099 12.7997C45.9746 12.6761 45.6933 12.6761 45.458 12.7997L42.0744 14.5785C41.4818 14.8902 40.7891 14.3867 40.9023 13.7268L41.5484 9.95899C41.5935 9.6971 41.5065 9.42958 41.3163 9.24404L38.5788 6.5757C38.0994 6.10824 38.3638 5.2941 39.0265 5.19804L42.8097 4.64829C43.0728 4.61012 43.3003 4.44491 43.418 4.20649L45.1098 0.778454C45.4058 0.178015 46.2618 0.178015 46.5581 0.778454Z" fill="#FFB300"/>
</g>
<g clip-path="url(#clip3_1505_11803)">
<path d="M65.7242 0.778454L67.416 4.20649C67.5336 4.44491 67.7611 4.61012 68.0242 4.64829L71.8074 5.19804C72.4701 5.29441 72.7345 6.10855 72.2551 6.5757L69.5176 9.24404C69.3274 9.42958 69.2404 9.6971 69.2855 9.95899L69.9316 13.7268C70.0449 14.3867 69.3521 14.8898 68.7595 14.5785L65.3759 12.7997C65.1406 12.6761 64.8593 12.6761 64.624 12.7997L61.2404 14.5785C60.6478 14.8902 59.9551 14.3867 60.0683 13.7268L60.7145 9.95899C60.7595 9.6971 60.6725 9.42958 60.4823 9.24404L57.7448 6.5757C57.2655 6.10824 57.5298 5.2941 58.1926 5.19804L61.9757 4.64829C62.2389 4.61012 62.4663 4.44491 62.584 4.20649L64.2758 0.778454C64.5718 0.178015 65.4278 0.178015 65.7242 0.778454Z" fill="#FFB300"/>
</g>
<g clip-path="url(#clip4_1505_11803)">
<path d="M84.8902 0.778454L86.582 4.20649C86.6996 4.44491 86.9271 4.61012 87.1902 4.64829L90.9734 5.19804C91.6361 5.29441 91.9005 6.10855 91.4211 6.5757L88.6837 9.24404C88.4934 9.42958 88.4064 9.6971 88.4515 9.95899L89.0976 13.7268C89.2109 14.3867 88.5181 14.8898 87.9255 14.5785L84.5419 12.7997C84.3066 12.6761 84.0253 12.6761 83.79 12.7997L80.4064 14.5785C79.8138 14.8902 79.1211 14.3867 79.2343 13.7268L79.8805 9.95899C79.9255 9.6971 79.8385 9.42958 79.6483 9.24404L76.9108 6.5757C76.4315 6.10824 76.6959 5.2941 77.3586 5.19804L81.1417 4.64829C81.4049 4.61012 81.6323 4.44491 81.75 4.20649L83.4418 0.778454C83.7378 0.178015 84.5939 0.178015 84.8902 0.778454Z" fill="#FFB300"/>
</g>
<defs>
<clipPath id="clip0_1505_11803">
<rect width="15" height="15" fill="white"/>
</clipPath>
<clipPath id="clip1_1505_11803">
<rect width="15" height="15" fill="white" transform="translate(19.166)"/>
</clipPath>
<clipPath id="clip2_1505_11803">
<rect width="15" height="15" fill="white" transform="translate(38.334)"/>
</clipPath>
<clipPath id="clip3_1505_11803">
<rect width="15" height="15" fill="white" transform="translate(57.5)"/>
</clipPath>
<clipPath id="clip4_1505_11803">
<rect width="15" height="15" fill="white" transform="translate(76.666)"/>
</clipPath>
</defs>
</svg>
