<svg width="66" height="48" viewBox="0 0 66 48" fill="none" xmlns="http://www.w3.org/2000/svg">
<path d="M29.25 5.5V33C29.2455 36.9769 27.6637 40.7896 24.8517 43.6017C22.0396 46.4137 18.2269 47.9955 14.25 48C13.587 48 12.9511 47.7366 12.4822 47.2678C12.0134 46.7989 11.75 46.163 11.75 45.5C11.75 44.837 12.0134 44.2011 12.4822 43.7322C12.9511 43.2634 13.587 43 14.25 43C16.9013 42.997 19.4431 41.9425 21.3178 40.0678C23.1925 38.1931 24.247 35.6513 24.25 33V30.5H5.5C4.17437 30.4985 2.90347 29.9712 1.96611 29.0339C1.02875 28.0965 0.501489 26.8256 0.5 25.5V5.5C0.501489 4.17437 1.02875 2.90347 1.96611 1.96611C2.90347 1.02875 4.17437 0.501489 5.5 0.5H24.25C25.5756 0.501489 26.8465 1.02875 27.7839 1.96611C28.7212 2.90347 29.2485 4.17437 29.25 5.5ZM60.5 0.5H41.75C40.4244 0.501489 39.1535 1.02875 38.2161 1.96611C37.2788 2.90347 36.7515 4.17437 36.75 5.5V25.5C36.7515 26.8256 37.2788 28.0965 38.2161 29.0339C39.1535 29.9712 40.4244 30.4985 41.75 30.5H60.5V33C60.497 35.6513 59.4425 38.1931 57.5678 40.0678C55.6931 41.9425 53.1513 42.997 50.5 43C49.837 43 49.2011 43.2634 48.7322 43.7322C48.2634 44.2011 48 44.837 48 45.5C48 46.163 48.2634 46.7989 48.7322 47.2678C49.2011 47.7366 49.837 48 50.5 48C54.4769 47.9955 58.2896 46.4137 61.1017 43.6017C63.9137 40.7896 65.4955 36.9769 65.5 33V5.5C65.4985 4.17437 64.9712 2.90347 64.0339 1.96611C63.0965 1.02875 61.8256 0.501489 60.5 0.5Z" fill="#56A219" fill-opacity="0.8"/>
</svg>
